<?xml version="1.0" encoding="UTF-8"?>
<svg id="_圖層_1" data-name="圖層 1" xmlns="http://www.w3.org/2000/svg" xmlns:xlink="http://www.w3.org/1999/xlink" viewBox="0 0 847.32 422.33">
  <defs>
    <style>
      .cls-1 {
        stroke: #f4c43a;
      }

      .cls-1, .cls-2, .cls-3, .cls-4, .cls-5, .cls-6 {
        fill: none;
      }

      .cls-1, .cls-3, .cls-7, .cls-8, .cls-9, .cls-6 {
        stroke-linecap: round;
        stroke-linejoin: round;
      }

      .cls-1, .cls-10, .cls-7 {
        stroke-width: 4px;
      }

      .cls-11 {
        fill: #cbcbcb;
      }

      .cls-12, .cls-7 {
        fill: #e8eae1;
      }

      .cls-13 {
        fill: #989898;
      }

      .cls-14 {
        fill: #9ed0f0;
      }

      .cls-15 {
        fill: #4a9dd7;
      }

      .cls-16 {
        clip-path: url(#clippath-2);
      }

      .cls-17 {
        fill: #4d4d4d;
      }

      .cls-2 {
        stroke-width: 2.06px;
      }

      .cls-2, .cls-10, .cls-5 {
        stroke-miterlimit: 10;
      }

      .cls-2, .cls-6 {
        stroke: #f0aa3f;
      }

      .cls-3 {
        stroke: #da3b37;
        stroke-width: 8px;
      }

      .cls-18 {
        fill: #e78f28;
      }

      .cls-19 {
        fill: #ecaf22;
      }

      .cls-20 {
        fill: #886138;
      }

      .cls-21 {
        clip-path: url(#clippath-1);
      }

      .cls-22 {
        fill: #bcdcf3;
      }

      .cls-10 {
        stroke: #040000;
      }

      .cls-10, .cls-23 {
        fill: #231815;
      }

      .cls-24 {
        clip-path: url(#clippath);
      }

      .cls-25 {
        fill: #f4c43a;
      }

      .cls-7, .cls-5 {
        stroke: #4d4d4d;
      }

      .cls-26 {
        fill: #da3b37;
      }

      .cls-8 {
        fill: #86bc43;
        stroke: #86bc43;
        stroke-width: 5px;
      }

      .cls-5, .cls-6 {
        stroke-width: 3px;
      }

      .cls-27 {
        fill: #dc2525;
      }

      .cls-9 {
        fill: #325ca1;
        stroke: #cbcbcb;
        stroke-width: 2px;
      }

      .cls-28 {
        fill: #69ba65;
      }
    </style>
    <clipPath id="clippath">
      <rect class="cls-4" x="197.11" y="222.45" width="52.72" height="52.72" rx="2.8" ry="2.8"/>
    </clipPath>
    <clipPath id="clippath-1">
      <rect class="cls-4" x="445.94" y="222.45" width="52.72" height="52.72" rx="2.8" ry="2.8"/>
    </clipPath>
    <clipPath id="clippath-2">
      <rect class="cls-4" x="698.16" y="222.45" width="52.72" height="52.72" rx="2.8" ry="2.8"/>
    </clipPath>
  </defs>
  <line class="cls-10" x1="724.03" y1="176.69" x2="725" y2="314.72"/>
  <line class="cls-10" x1="571.99" y1="355.95" x2="647.82" y2="355.95"/>
  <line class="cls-10" x1="581.14" y1="313.97" x2="581.14" y2="392.86"/>
  <line class="cls-10" x1="471.64" y1="176.69" x2="472.6" y2="314.72"/>
  <line class="cls-10" x1="223.47" y1="173.24" x2="223.47" y2="389.01"/>
  <line class="cls-10" x1="125.17" y1="66.77" x2="126.48" y2="253.86"/>
  <line class="cls-10" x1="369.77" y1="67.15" x2="371.07" y2="254.24"/>
  <line class="cls-10" x1="624.18" y1="65.54" x2="625.48" y2="252.63"/>
  <line class="cls-10" x1="369.26" y1="252.14" x2="593.1" y2="252.14"/>
  <line class="cls-10" x1="623.47" y1="252.14" x2="847.32" y2="252.14"/>
  <g id="_圖層_2" data-name="圖層 2">
    <g id="_圖層_1-2" data-name="圖層 1-2">
      <path class="cls-28" d="M222.5,355.69h0c7.29,0,13.21,5.91,13.21,13.21h0c0,7.29-5.91,13.21-13.21,13.21h0c-7.29,0-13.21-5.91-13.21-13.21h0c0-7.29,5.91-13.21,13.21-13.21Z"/>
      <path class="cls-28" d="M216.04,369.73h0c5.09,0,9.21,4.12,9.21,9.21h0c0,5.09-4.12,9.21-9.21,9.21h0c-5.09,0-9.21-4.12-9.21-9.21h0c0-5.09,4.12-9.21,9.21-9.21Z"/>
      <path class="cls-28" d="M235.51,365.17h.4c4.67,0,8.46,3.79,8.46,8.46h0c0,4.67-3.79,8.46-8.46,8.46h-.4c-4.67,0-8.46-3.79-8.46-8.46h0c0-4.67,3.79-8.46,8.46-8.46Z"/>
      <rect class="cls-20" x="204.26" y="404.02" width="3.2" height="16.24"/>
      <path class="cls-20" d="M224.82,369.73h0c.88,0,1.6,.72,1.6,1.6v17.96c0,.88-.72,1.6-1.6,1.6h0c-.88,0-1.6-.72-1.6-1.6v-17.96c0-.88,.72-1.6,1.6-1.6Z"/>
      <path class="cls-20" d="M218.88,375.05h0c.62-.62,1.64-.62,2.26,0l4.25,4.25c.62,.62,.62,1.64,0,2.26h0c-.62,.62-1.64,.62-2.26,0l-4.25-4.25c-.62-.62-.62-1.64,0-2.26Z"/>
      <polygon class="cls-8" points="195.79 412.49 215.92 412.49 205.86 370.95 195.79 412.49"/>
      <rect class="cls-12" x="244.37" y="380.25" width="5.16" height="14.09" rx=".53" ry=".53"/>
      <polygon class="cls-12" points="251.74 418.48 211.94 418.48 211.94 396.49 231.84 377.97 251.74 396.49 251.74 418.48"/>
      <polyline class="cls-3" points="210.09 399.14 231.84 377.97 253.22 398.78"/>
      <rect class="cls-28" x="194.37" y="418.48" width="60.89" height="3.85" rx="1.9" ry="1.9"/>
      <path class="cls-17" d="M218.74,403.1h9.14c.27,0,.48,.22,.48,.48v14.92h-10.1v-14.92c0-.27,.22-.48,.48-.48Z"/>
      <rect class="cls-22" x="237.76" y="403.1" width="8.83" height="8.83" rx=".48" ry=".48"/>
    </g>
  </g>
  <g id="_圖層_2-2" data-name="圖層 2">
    <g id="_圖層_1-2-2" data-name="圖層 1-2">
      <rect class="cls-12" x="84" y="46.41" width="25.4" height="15.95" rx=".98" ry=".98"/>
      <rect class="cls-17" x="86.66" y="48.61" width="19.93" height="9.39" rx=".91" ry=".91"/>
      <rect class="cls-17" x="75.92" y="31.21" width="4.09" height="3.34" rx=".44" ry=".44"/>
      <rect class="cls-17" x="113.24" y="31.21" width="4.09" height="3.34" rx=".44" ry=".44"/>
      <rect class="cls-7" x="80.02" y="15.38" width="33.22" height="33.22" rx="1.95" ry="1.95"/>
      <rect class="cls-13" x="85" y="23.54" width="23.25" height="5.28" rx=".84" ry=".84"/>
      <path class="cls-26" d="M104.93,23.54h2.48c.46,0,.84,.37,.84,.84v3.61c0,.46-.37,.84-.84,.84h-2.48v-5.28h0Z"/>
      <rect class="cls-17" x="88.32" y="23.54" width="3.32" height="5.28"/>
      <rect class="cls-17" x="94.97" y="23.54" width="3.32" height="5.28"/>
      <rect class="cls-17" x="101.61" y="23.54" width="3.32" height="5.28"/>
      <circle class="cls-13" cx="87.83" cy="38.06" r="1.41"/>
      <circle class="cls-26" cx="93.69" cy="38.06" r="1.41"/>
      <circle class="cls-26" cx="99.56" cy="38.06" r="1.41"/>
      <circle class="cls-13" cx="105.42" cy="38.06" r="1.41"/>
      <rect class="cls-12" x="89.69" y="51.19" width="1.48" height="4.72" rx=".69" ry=".69"/>
      <rect class="cls-12" x="93.87" y="51.19" width="1.48" height="4.72" rx=".69" ry=".69"/>
      <rect class="cls-12" x="98.06" y="51.19" width="1.48" height="4.72" rx=".69" ry=".69"/>
      <rect class="cls-12" x="102.24" y="51.19" width="1.48" height="4.72" rx=".69" ry=".69"/>
    </g>
  </g>
  <g id="_圖層_2-3" data-name="圖層 2">
    <g id="_圖層_1-2-3" data-name="圖層 1-2">
      <path class="cls-28" d="M572.63,326.22h0c7.29,0,13.21,5.91,13.21,13.21h0c0,7.29-5.91,13.21-13.21,13.21h0c-7.29,0-13.21-5.91-13.21-13.21h0c0-7.29,5.91-13.21,13.21-13.21Z"/>
      <path class="cls-28" d="M566.18,340.26h0c5.09,0,9.21,4.12,9.21,9.21h0c0,5.09-4.12,9.21-9.21,9.21h0c-5.09,0-9.21-4.12-9.21-9.21h0c0-5.09,4.12-9.21,9.21-9.21Z"/>
      <path class="cls-28" d="M585.64,335.71h.4c4.67,0,8.46,3.79,8.46,8.46h0c0,4.67-3.79,8.46-8.46,8.46h-.4c-4.67,0-8.46-3.79-8.46-8.46h0c0-4.67,3.79-8.46,8.46-8.46Z"/>
      <rect class="cls-20" x="554.39" y="374.55" width="3.2" height="16.24"/>
      <path class="cls-20" d="M574.95,340.26h0c.88,0,1.6,.72,1.6,1.6v17.96c0,.88-.72,1.6-1.6,1.6h0c-.88,0-1.6-.72-1.6-1.6v-17.96c0-.88,.72-1.6,1.6-1.6Z"/>
      <path class="cls-20" d="M569.02,345.58h0c.62-.62,1.64-.62,2.26,0l4.25,4.25c.62,.62,.62,1.64,0,2.26h0c-.62,.62-1.64,.62-2.26,0l-4.25-4.25c-.62-.62-.62-1.64,0-2.26Z"/>
      <polygon class="cls-8" points="545.93 383.02 566.06 383.02 555.99 341.48 545.93 383.02"/>
      <rect class="cls-12" x="594.51" y="350.78" width="5.16" height="14.09" rx=".53" ry=".53"/>
      <polygon class="cls-12" points="601.88 389.01 562.07 389.01 562.07 367.02 581.98 348.5 601.88 367.02 601.88 389.01"/>
      <polyline class="cls-3" points="560.23 369.67 581.98 348.5 603.35 369.31"/>
      <rect class="cls-28" x="544.51" y="389.01" width="60.89" height="3.85" rx="1.9" ry="1.9"/>
      <path class="cls-17" d="M568.88,373.63h9.14c.27,0,.48,.22,.48,.48v14.92h-10.1v-14.92c0-.27,.22-.48,.48-.48Z"/>
      <rect class="cls-22" x="587.89" y="373.63" width="8.83" height="8.83" rx=".48" ry=".48"/>
    </g>
  </g>
  <g id="_圖層_2-4" data-name="圖層 2">
    <g id="_圖層_1-2-4" data-name="圖層 1-2">
      <rect class="cls-12" x="649.54" y="375.97" width="25.4" height="15.95" rx=".98" ry=".98"/>
      <rect class="cls-17" x="652.2" y="378.17" width="19.93" height="9.39" rx=".91" ry=".91"/>
      <rect class="cls-17" x="641.46" y="360.78" width="4.09" height="3.34" rx=".44" ry=".44"/>
      <rect class="cls-17" x="678.78" y="360.78" width="4.09" height="3.34" rx=".44" ry=".44"/>
      <rect class="cls-7" x="645.56" y="344.95" width="33.22" height="33.22" rx="1.95" ry="1.95"/>
      <rect class="cls-13" x="650.54" y="353.11" width="23.25" height="5.28" rx=".84" ry=".84"/>
      <path class="cls-26" d="M670.47,353.11h2.48c.46,0,.84,.37,.84,.84v3.61c0,.46-.37,.84-.84,.84h-2.48v-5.28h0Z"/>
      <rect class="cls-17" x="653.87" y="353.11" width="3.32" height="5.28"/>
      <rect class="cls-17" x="660.51" y="353.11" width="3.32" height="5.28"/>
      <rect class="cls-17" x="667.15" y="353.11" width="3.32" height="5.28"/>
      <circle class="cls-13" cx="653.37" cy="367.63" r="1.41"/>
      <circle class="cls-26" cx="659.23" cy="367.63" r="1.41"/>
      <circle class="cls-26" cx="665.1" cy="367.63" r="1.41"/>
      <circle class="cls-13" cx="670.96" cy="367.63" r="1.41"/>
      <rect class="cls-12" x="655.23" y="380.76" width="1.48" height="4.72" rx=".69" ry=".69"/>
      <rect class="cls-12" x="659.41" y="380.76" width="1.48" height="4.72" rx=".69" ry=".69"/>
      <rect class="cls-12" x="663.6" y="380.76" width="1.48" height="4.72" rx=".69" ry=".69"/>
      <rect class="cls-12" x="667.78" y="380.76" width="1.48" height="4.72" rx=".69" ry=".69"/>
    </g>
  </g>
  <line class="cls-10" x1="34.35" y1="66.35" x2="625.89" y2="66.35"/>
  <line class="cls-10" x1="125.95" y1="252.14" x2="349.8" y2="252.14"/>
  <g>
    <polygon class="cls-19" points="138.67 247.95 143.14 252.14 138.67 256.33 153.84 256.33 153.84 262.19 168.04 252.14 153.84 242.09 153.84 247.95 138.67 247.95"/>
    <polygon class="cls-18" points="143.14 252.14 138.67 256.33 153.84 256.33 153.84 262.19 168.04 252.14 143.14 252.14"/>
  </g>
  <g>
    <polygon class="cls-19" points="267.69 245.95 272.16 250.14 267.69 254.33 282.87 254.33 282.87 260.19 297.06 250.14 282.87 240.09 282.87 245.95 267.69 245.95"/>
    <polygon class="cls-18" points="272.16 250.14 267.69 254.33 282.87 254.33 282.87 260.19 297.06 250.14 272.16 250.14"/>
  </g>
  <g>
    <polygon class="cls-19" points="652.42 247.95 656.89 252.14 652.42 256.33 667.59 256.33 667.59 262.19 681.79 252.14 667.59 242.09 667.59 247.95 652.42 247.95"/>
    <polygon class="cls-18" points="656.89 252.14 652.42 256.33 667.59 256.33 667.59 262.19 681.79 252.14 656.89 252.14"/>
  </g>
  <g>
    <polygon class="cls-19" points="392.43 247.95 396.9 252.14 392.43 256.33 407.61 256.33 407.61 262.19 421.8 252.14 407.61 242.09 407.61 247.95 392.43 247.95"/>
    <polygon class="cls-18" points="396.9 252.14 392.43 256.33 407.61 256.33 407.61 262.19 421.8 252.14 396.9 252.14"/>
  </g>
  <g>
    <polygon class="cls-19" points="374.73 133.37 370.55 137.84 366.36 133.37 366.36 148.54 360.49 148.54 370.55 162.74 380.6 148.54 374.73 148.54 374.73 133.37"/>
    <polygon class="cls-18" points="370.55 137.84 366.36 133.37 366.36 148.54 360.49 148.54 370.55 162.74 370.55 137.84"/>
  </g>
  <g>
    <polygon class="cls-19" points="629.21 133.37 625.02 137.84 620.83 133.37 620.83 148.54 614.97 148.54 625.02 162.74 635.07 148.54 629.21 148.54 629.21 133.37"/>
    <polygon class="cls-18" points="625.02 137.84 620.83 133.37 620.83 148.54 614.97 148.54 625.02 162.74 625.02 137.84"/>
  </g>
  <g>
    <polygon class="cls-19" points="728.7 186.59 724.51 191.06 720.33 186.59 720.33 201.76 714.46 201.76 724.51 215.96 734.57 201.76 728.7 201.76 728.7 186.59"/>
    <polygon class="cls-18" points="724.51 191.06 720.33 186.59 720.33 201.76 714.46 201.76 724.51 215.96 724.51 191.06"/>
  </g>
  <g>
    <polygon class="cls-19" points="476.49 186.59 472.3 191.06 468.12 186.59 468.12 201.76 462.25 201.76 472.3 215.96 482.35 201.76 476.49 201.76 476.49 186.59"/>
    <polygon class="cls-18" points="472.3 191.06 468.12 186.59 468.12 201.76 462.25 201.76 472.3 215.96 472.3 191.06"/>
  </g>
  <g id="_圖層_2-5" data-name="圖層 2">
    <g id="_圖層_1-2-5" data-name="圖層 1-2">
      <line class="cls-5" x1="9.66" y1="49.21" x2="25.3" y2="65.68"/>
      <line class="cls-5" x1="9.66" y1="65.88" x2="25.3" y2="82.35"/>
      <line class="cls-5" x1="41.04" y1="48.7" x2="25.4" y2="65.17"/>
      <line class="cls-5" x1="41.04" y1="65.37" x2="25.4" y2="81.84"/>
      <path class="cls-11" d="M22.78,34.5h4.57c.52,0,.95,.42,.95,.95V115.82h-6.46V35.45c0-.52,.42-.95,.95-.95Z"/>
      <rect class="cls-13" y="45.46" width="50.22" height="4.73" rx=".92" ry=".92"/>
      <path class="cls-17" d="M5.78,41.2h.13c1.2,0,2.18,.98,2.18,2.18v2.07H3.6v-2.07c0-1.2,.98-2.18,2.18-2.18h0Z"/>
      <path class="cls-17" d="M44.31,41.2h.11c1.2,0,2.18,.98,2.18,2.18h0v2.07h-4.49v-2.07c0-1.2,.98-2.18,2.18-2.18,0,0,.01,0,.02,0Z"/>
      <rect class="cls-13" x="2.78" y="63.05" width="45.32" height="4.73" rx=".92" ry=".92"/>
      <path class="cls-17" d="M8.23,58.8h.13c1.2,0,2.17,.97,2.18,2.17v2.07H6.05v-2.07c0-1.2,.98-2.17,2.18-2.17Z"/>
      <path class="cls-17" d="M41.85,58.8h.13c1.2,0,2.17,.97,2.18,2.17v2.07h-4.47v-2.07c0-1.2,.98-2.18,2.18-2.18h-.02Z"/>
      <rect class="cls-17" x="18.69" y="115.78" width="12.79" height="2.66" rx=".47" ry=".47"/>
    </g>
  </g>
  <g id="_圖層_2-6" data-name="圖層 2">
    <g id="_圖層_1-2-6" data-name="圖層 1-2">
      <rect class="cls-22" x="197.11" y="222.45" width="52.72" height="52.72" rx="2.8" ry="2.8"/>
      <g class="cls-24">
        <g>
          <polygon class="cls-14" points="249.83 275.16 197.11 222.45 249.83 222.45 249.83 275.16"/>
          <rect class="cls-25" x="232.7" y="228.86" width="12.3" height="3.29" rx=".56" ry=".56"/>
          <rect class="cls-27" x="232.7" y="234.37" width="5.07" height="3.29" rx=".56" ry=".56"/>
          <rect class="cls-15" x="239.92" y="234.37" width="5.07" height="3.29" rx=".56" ry=".56"/>
          <path class="cls-1" d="M202.26,266.47s4.66-10,10.61-2.7c6.01,7.39,10.61-2.67,10.61-2.67"/>
        </g>
      </g>
    </g>
  </g>
  <g id="_圖層_2-7" data-name="圖層 2">
    <g id="_圖層_1-2-7" data-name="圖層 1-2">
      <rect class="cls-22" x="445.94" y="222.45" width="52.72" height="52.72" rx="2.8" ry="2.8"/>
      <g class="cls-21">
        <g>
          <polygon class="cls-14" points="498.66 275.16 445.94 222.45 498.66 222.45 498.66 275.16"/>
          <rect class="cls-25" x="481.53" y="228.86" width="12.3" height="3.29" rx=".56" ry=".56"/>
          <rect class="cls-27" x="481.53" y="234.37" width="5.07" height="3.29" rx=".56" ry=".56"/>
          <rect class="cls-15" x="488.75" y="234.37" width="5.07" height="3.29" rx=".56" ry=".56"/>
          <path class="cls-1" d="M451.1,266.47s4.66-10,10.61-2.7c6.01,7.39,10.61-2.67,10.61-2.67"/>
        </g>
      </g>
    </g>
  </g>
  <g id="_圖層_2-8" data-name="圖層 2">
    <g id="_圖層_1-2-8" data-name="圖層 1-2">
      <rect class="cls-22" x="698.16" y="222.45" width="52.72" height="52.72" rx="2.8" ry="2.8"/>
      <g class="cls-16">
        <g>
          <polygon class="cls-14" points="750.87 275.16 698.16 222.45 750.87 222.45 750.87 275.16"/>
          <rect class="cls-25" x="733.74" y="228.86" width="12.3" height="3.29" rx=".56" ry=".56"/>
          <rect class="cls-27" x="733.74" y="234.37" width="5.07" height="3.29" rx=".56" ry=".56"/>
          <rect class="cls-15" x="740.96" y="234.37" width="5.07" height="3.29" rx=".56" ry=".56"/>
          <path class="cls-1" d="M703.31,266.47s4.66-10,10.61-2.7c6.01,7.39,10.61-2.67,10.61-2.67"/>
        </g>
      </g>
    </g>
  </g>
  <g id="_圖層_2-9" data-name="圖層 2">
    <g id="_圖層_1-2-9" data-name="圖層 1-2">
      <ellipse class="cls-25" cx="224.82" cy="97.66" rx="12.6" ry="12.28"/>
      <line class="cls-6" x1="224.82" y1="81.45" x2="224.82" y2="77.58"/>
      <line class="cls-6" x1="213.06" y1="86.2" x2="210.25" y2="83.46"/>
      <line class="cls-6" x1="208.19" y1="97.66" x2="204.22" y2="97.66"/>
      <line class="cls-6" x1="213.06" y1="109.12" x2="210.25" y2="111.86"/>
      <line class="cls-6" x1="224.82" y1="113.87" x2="224.82" y2="117.75"/>
      <line class="cls-6" x1="236.57" y1="109.12" x2="239.38" y2="111.86"/>
      <line class="cls-6" x1="241.44" y1="97.66" x2="245.41" y2="97.66"/>
      <line class="cls-6" x1="236.57" y1="86.2" x2="239.38" y2="83.46"/>
      <rect class="cls-17" x="220.55" y="166.59" width="8.54" height="11.09"/>
      <path class="cls-11" d="M237.72,177.8v3.98c0,.32-.26,.57-.59,.57h-24.62c-.32,0-.59-.26-.59-.57v-3.98c0-.32,.26-.57,.59-.57h24.62c.32,0,.59,.26,.59,.57Z"/>
      <polygon class="cls-9" points="187.77 123.66 212.47 123.66 211.82 136.69 185.81 136.69 187.77 123.66"/>
      <polygon class="cls-9" points="212.47 123.66 237.17 123.66 237.82 136.69 211.82 136.69 212.47 123.66"/>
      <polygon class="cls-9" points="237.17 123.66 261.86 123.66 263.82 136.69 237.82 136.69 237.17 123.66"/>
      <polygon class="cls-9" points="185.81 136.69 211.82 136.69 211.09 151.17 183.63 151.17 185.81 136.69"/>
      <polygon class="cls-9" points="211.82 136.69 237.82 136.69 238.55 151.17 211.09 151.17 211.82 136.69"/>
      <polygon class="cls-9" points="237.82 136.69 263.82 136.69 266 151.17 238.55 151.17 237.82 136.69"/>
      <polygon class="cls-9" points="183.63 151.17 211.09 151.17 210.27 167.37 181.19 167.37 183.63 151.17"/>
      <polygon class="cls-9" points="211.09 151.17 238.55 151.17 239.36 167.37 210.27 167.37 211.09 151.17"/>
      <polygon class="cls-9" points="238.55 151.17 266 151.17 268.44 167.37 239.36 167.37 238.55 151.17"/>
    </g>
  </g>
  <g id="_圖層_2-10" data-name="圖層 2">
    <g id="_圖層_1-2-10" data-name="圖層 1-2">
      <ellipse class="cls-25" cx="471.37" cy="97.66" rx="12.6" ry="12.28"/>
      <line class="cls-6" x1="471.37" y1="81.45" x2="471.37" y2="77.58"/>
      <line class="cls-6" x1="459.62" y1="86.2" x2="456.81" y2="83.46"/>
      <line class="cls-6" x1="454.75" y1="97.66" x2="450.78" y2="97.66"/>
      <line class="cls-6" x1="459.62" y1="109.12" x2="456.81" y2="111.86"/>
      <line class="cls-6" x1="471.37" y1="113.87" x2="471.37" y2="117.75"/>
      <line class="cls-6" x1="483.13" y1="109.12" x2="485.94" y2="111.86"/>
      <line class="cls-6" x1="488" y1="97.66" x2="491.97" y2="97.66"/>
      <line class="cls-6" x1="483.13" y1="86.2" x2="485.94" y2="83.46"/>
      <rect class="cls-17" x="467.1" y="166.59" width="8.54" height="11.09"/>
      <path class="cls-11" d="M484.27,177.8v3.98c0,.32-.26,.57-.59,.57h-24.62c-.32,0-.59-.26-.59-.57v-3.98c0-.32,.26-.57,.59-.57h24.62c.32,0,.59,.26,.59,.57Z"/>
      <polygon class="cls-9" points="434.33 123.66 459.02 123.66 458.37 136.69 432.37 136.69 434.33 123.66"/>
      <polygon class="cls-9" points="459.02 123.66 483.72 123.66 484.37 136.69 458.37 136.69 459.02 123.66"/>
      <polygon class="cls-9" points="483.72 123.66 508.42 123.66 510.38 136.69 484.37 136.69 483.72 123.66"/>
      <polygon class="cls-9" points="432.37 136.69 458.37 136.69 457.64 151.17 430.19 151.17 432.37 136.69"/>
      <polygon class="cls-9" points="458.37 136.69 484.37 136.69 485.1 151.17 457.64 151.17 458.37 136.69"/>
      <polygon class="cls-9" points="484.37 136.69 510.38 136.69 512.56 151.17 485.1 151.17 484.37 136.69"/>
      <polygon class="cls-9" points="430.19 151.17 457.64 151.17 456.83 167.37 427.75 167.37 430.19 151.17"/>
      <polygon class="cls-9" points="457.64 151.17 485.1 151.17 485.92 167.37 456.83 167.37 457.64 151.17"/>
      <polygon class="cls-9" points="485.1 151.17 512.56 151.17 514.99 167.37 485.92 167.37 485.1 151.17"/>
    </g>
  </g>
  <g id="_圖層_2-11" data-name="圖層 2">
    <g id="_圖層_1-2-11" data-name="圖層 1-2">
      <ellipse class="cls-25" cx="727.11" cy="97.66" rx="12.6" ry="12.28"/>
      <line class="cls-6" x1="727.11" y1="81.45" x2="727.11" y2="77.58"/>
      <line class="cls-6" x1="715.36" y1="86.2" x2="712.55" y2="83.46"/>
      <line class="cls-6" x1="710.49" y1="97.66" x2="706.52" y2="97.66"/>
      <line class="cls-6" x1="715.36" y1="109.12" x2="712.55" y2="111.86"/>
      <line class="cls-6" x1="727.11" y1="113.87" x2="727.11" y2="117.75"/>
      <line class="cls-6" x1="738.87" y1="109.12" x2="741.68" y2="111.86"/>
      <line class="cls-6" x1="743.74" y1="97.66" x2="747.71" y2="97.66"/>
      <line class="cls-6" x1="738.87" y1="86.2" x2="741.68" y2="83.46"/>
      <rect class="cls-17" x="722.84" y="166.59" width="8.54" height="11.09"/>
      <path class="cls-11" d="M740.01,177.8v3.98c0,.32-.26,.57-.59,.57h-24.62c-.32,0-.59-.26-.59-.57v-3.98c0-.32,.26-.57,.59-.57h24.62c.32,0,.59,.26,.59,.57Z"/>
      <polygon class="cls-9" points="690.07 123.66 714.76 123.66 714.11 136.69 688.11 136.69 690.07 123.66"/>
      <polygon class="cls-9" points="714.76 123.66 739.46 123.66 740.11 136.69 714.11 136.69 714.76 123.66"/>
      <polygon class="cls-9" points="739.46 123.66 764.16 123.66 766.12 136.69 740.11 136.69 739.46 123.66"/>
      <polygon class="cls-9" points="688.11 136.69 714.11 136.69 713.38 151.17 685.93 151.17 688.11 136.69"/>
      <polygon class="cls-9" points="714.11 136.69 740.11 136.69 740.84 151.17 713.38 151.17 714.11 136.69"/>
      <polygon class="cls-9" points="740.11 136.69 766.12 136.69 768.3 151.17 740.84 151.17 740.11 136.69"/>
      <polygon class="cls-9" points="685.93 151.17 713.38 151.17 712.57 167.37 683.49 167.37 685.93 151.17"/>
      <polygon class="cls-9" points="713.38 151.17 740.84 151.17 741.66 167.37 712.57 167.37 713.38 151.17"/>
      <polygon class="cls-9" points="740.84 151.17 768.3 151.17 770.73 167.37 741.66 167.37 740.84 151.17"/>
    </g>
  </g>
  <line class="cls-10" x1="224.82" y1="298.67" x2="273.31" y2="298.67"/>
  <g id="_圖層_2-12" data-name="圖層 2">
    <g id="_圖層_1-2-12" data-name="圖層 1-2">
      <rect class="cls-12" x="254.63" y="311.01" width="25.4" height="15.95" rx=".98" ry=".98"/>
      <rect class="cls-17" x="257.29" y="313.21" width="19.93" height="9.39" rx=".91" ry=".91"/>
      <rect class="cls-17" x="246.55" y="295.82" width="4.09" height="3.34" rx=".44" ry=".44"/>
      <rect class="cls-17" x="283.86" y="295.82" width="4.09" height="3.34" rx=".44" ry=".44"/>
      <rect class="cls-7" x="250.65" y="279.99" width="33.22" height="33.22" rx="1.95" ry="1.95"/>
      <rect class="cls-13" x="255.63" y="288.14" width="23.25" height="5.28" rx=".84" ry=".84"/>
      <path class="cls-26" d="M275.56,288.14h2.48c.46,0,.84,.37,.84,.84v3.61c0,.46-.37,.84-.84,.84h-2.48v-5.28h0Z"/>
      <rect class="cls-17" x="258.95" y="288.14" width="3.32" height="5.28"/>
      <rect class="cls-17" x="265.6" y="288.14" width="3.32" height="5.28"/>
      <rect class="cls-17" x="272.24" y="288.14" width="3.32" height="5.28"/>
      <circle class="cls-13" cx="258.46" cy="302.67" r="1.41"/>
      <circle class="cls-26" cx="264.32" cy="302.67" r="1.41"/>
      <circle class="cls-26" cx="270.19" cy="302.67" r="1.41"/>
      <circle class="cls-13" cx="276.05" cy="302.67" r="1.41"/>
      <rect class="cls-12" x="260.32" y="315.8" width="1.48" height="4.72" rx=".69" ry=".69"/>
      <rect class="cls-12" x="264.5" y="315.8" width="1.48" height="4.72" rx=".69" ry=".69"/>
      <rect class="cls-12" x="268.68" y="315.8" width="1.48" height="4.72" rx=".69" ry=".69"/>
      <rect class="cls-12" x="272.87" y="315.8" width="1.48" height="4.72" rx=".69" ry=".69"/>
    </g>
  </g>
  <line class="cls-10" x1="224.07" y1="348.48" x2="272.56" y2="348.48"/>
  <g id="_圖層_2-13" data-name="圖層 2">
    <g id="_圖層_1-2-13" data-name="圖層 1-2">
      <rect class="cls-11" x="271.51" y="367.29" width="11.34" height="10.81" rx="5.37" ry="5.37"/>
      <circle class="cls-25" cx="277.18" cy="345.49" r="14.59"/>
      <path class="cls-25" d="M284.24,364.41h-14.11c-.2-3.21-1.47-5.96-3.79-9.16h21.69c-2.42,3.14-3.73,5.75-3.79,9.16Z"/>
      <path class="cls-11" d="M270.32,364.41h13.74c.63,0,1.15,.51,1.15,1.15h0c0,.63-.51,1.15-1.15,1.15h-13.74c-.63,0-1.15-.51-1.15-1.15h0c0-.63,.51-1.15,1.15-1.15Z"/>
      <rect class="cls-13" x="269.66" y="366.7" width="15.04" height="2.29" rx="1.11" ry="1.11"/>
      <rect class="cls-13" x="270.56" y="371.29" width="13.25" height="2.29" rx="1.04" ry="1.04"/>
      <rect class="cls-11" x="270.05" y="369" width="14.27" height="2.29" rx="1.08" ry="1.08"/>
      <path class="cls-2" d="M275.13,364.41v-15.8c0-4.1-2.99-5.43-4.27-3.54-1,1.48,.18,3.45,2.91,3.45h3.42"/>
      <path class="cls-2" d="M279.24,364.41v-15.8c0-4.1,2.99-5.43,4.27-3.54,1,1.48-.18,3.45-2.91,3.45h-3.41"/>
      <line class="cls-6" x1="258.3" y1="345.41" x2="254.17" y2="345.41"/>
      <line class="cls-6" x1="260.57" y1="337.07" x2="256.99" y2="335.01"/>
      <line class="cls-6" x1="260.5" y1="353.77" x2="256.92" y2="355.83"/>
      <line class="cls-6" x1="295.77" y1="345.41" x2="299.89" y2="345.41"/>
      <line class="cls-6" x1="293.5" y1="337.07" x2="297.07" y2="335.01"/>
      <line class="cls-6" x1="293.57" y1="353.77" x2="297.14" y2="355.83"/>
    </g>
  </g>
  <line class="cls-10" x1="472.6" y1="312.9" x2="725" y2="312.9"/>
  <line class="cls-10" x1="125.17" y1="66.77" x2="126.48" y2="253.86"/>
  <g>
    <polygon class="cls-19" points="129.37 133.37 125.18 137.84 121 133.37 121 148.54 115.13 148.54 125.18 162.74 135.23 148.54 129.37 148.54 129.37 133.37"/>
    <polygon class="cls-18" points="125.18 137.84 121 133.37 121 148.54 115.13 148.54 125.18 162.74 125.18 137.84"/>
  </g>
  <g>
    <path class="cls-23" d="M93.52,4.03h-.56v-1.88h-3.85v2.18h-.55V2.15h-3.59v1.88h-.58V1.63h4.17V.82h-3.77V.3h8.37V.82h-4.05v.81h4.41v2.4Zm.33,4.32c-.05,.45-.16,.77-.34,.96-.18,.19-.49,.3-.94,.32-.45,.03-.96,.04-1.52,.04-.49,0-.95-.01-1.38-.03s-.73-.1-.88-.25-.22-.37-.22-.68v-.81h-3.51v-3.15h7.61v3.15h-3.52v.85c0,.09,.03,.16,.1,.21s.3,.08,.7,.11c.4,.03,.85,.04,1.35,.04,.86,0,1.36-.02,1.51-.06,.15-.04,.26-.15,.33-.33,.07-.18,.11-.4,.13-.67l.59,.3Zm-5.75-4.37c-.88,.23-1.71,.37-2.48,.41l-.18-.5c.82-.04,1.64-.15,2.48-.34l.18,.43Zm0-1.12l-.18,.47c-.61-.15-1.41-.27-2.4-.34l.24-.47c.92,.08,1.7,.19,2.34,.34Zm.47,3.2v-.79h-2.94v.79h2.94Zm0,1.32v-.82h-2.94v.82h2.94Zm3.52-1.32v-.79h-2.94v.79h2.94Zm0,1.32v-.82h-2.94v.82h2.94Zm.33-3.38l-.25,.46c-.77-.2-1.63-.35-2.59-.43l.24-.44c1.13,.1,2,.23,2.61,.41Zm-.08-.99c-.91,.16-1.75,.27-2.51,.32l-.17-.45c.76-.06,1.58-.17,2.48-.34l.2,.47Z"/>
    <path class="cls-23" d="M99.11,2.08l-.42,.38c-.35-.48-.82-.97-1.41-1.49-.34,.58-.76,1.16-1.26,1.75h2.58v.53h-1.17v1.24h1.31v.55h-1.31v3.44c.36-.06,.82-.17,1.4-.35l.05,.54c-1.17,.34-2.38,.62-3.61,.85l-.12-.54,1.75-.34v-3.6h-1.55v-.55h1.55v-1.24h-.94v-.46l-.52,.53-.35-.45c.89-.88,1.59-1.83,2.08-2.86l.5,.23c-.03,.08-.07,.17-.14,.27,.59,.47,1.11,1,1.58,1.57Zm-2.69,5.91l-.53,.09c-.09-.64-.25-1.38-.48-2.22l.52-.13c.27,.93,.43,1.69,.49,2.27Zm2.44-2.16c-.13,.72-.3,1.37-.5,1.96l-.49-.21c.22-.65,.38-1.29,.48-1.92l.52,.18Zm5.88-.96h-3.13c-.22,.52-.54,1.04-.96,1.55v2.51c.55-.17,1.11-.39,1.68-.65l.09,.57c-.96,.39-1.73,.68-2.31,.86l-.22-.53c.12-.08,.19-.2,.19-.37v-1.77c-.39,.36-.67,.61-.86,.74l-.37-.43c1.02-.74,1.74-1.57,2.16-2.48h-1.8v-.54h2.36v-1.19h-2v-.53h2V1.46h-2.22V.92h2.22V.06h.55V.92h2.49v.53h-2.49v1.15h2.2v.53h-2.2v1.19h2.62v.54Zm.11,4.37l-.38,.48c-1.53-1.01-2.38-2.35-2.57-4.01l.55-.15c.03,.44,.15,.9,.34,1.38,.63-.46,1.1-.9,1.42-1.32l.38,.35c-.34,.52-.86,1-1.57,1.46,.37,.65,.98,1.25,1.83,1.81Z"/>
    <path class="cls-23" d="M111.11,9.12h-4.67v-.8h1.89V1.78l-1.94,.59v-.86l2.84-.89v7.71h1.88v.8Z"/>
  </g>
  <g>
    <path class="cls-23" d="M262.57,268.07h-.56v-1.88h-3.85v2.17h-.55v-2.17h-3.59v1.88h-.58v-2.4h4.17v-.81h-3.77v-.52h8.37v.52h-4.05v.81h4.41v2.4Zm.33,4.32c-.05,.45-.16,.77-.34,.96-.18,.19-.49,.3-.94,.33-.45,.03-.96,.04-1.52,.04-.49,0-.95,0-1.38-.03s-.73-.1-.88-.25c-.15-.14-.22-.37-.22-.68v-.81h-3.51v-3.15h7.61v3.15h-3.52v.85c0,.09,.03,.16,.1,.21,.06,.05,.3,.08,.7,.11,.4,.03,.85,.04,1.35,.04,.86,0,1.36-.02,1.51-.06s.26-.15,.33-.33c.07-.18,.11-.4,.13-.67l.59,.3Zm-5.75-4.37c-.88,.23-1.71,.37-2.48,.41l-.18-.51c.82-.04,1.64-.15,2.48-.34l.18,.43Zm0-1.12l-.18,.47c-.61-.15-1.41-.26-2.4-.34l.24-.47c.92,.08,1.7,.19,2.34,.34Zm.47,3.2v-.79h-2.94v.79h2.94Zm0,1.32v-.82h-2.94v.82h2.94Zm3.52-1.32v-.79h-2.94v.79h2.94Zm0,1.32v-.82h-2.94v.82h2.94Zm.33-3.38l-.25,.46c-.77-.2-1.63-.35-2.59-.43l.24-.44c1.13,.1,2,.23,2.61,.41Zm-.08-.99c-.91,.16-1.75,.27-2.51,.32l-.17-.45c.76-.06,1.58-.17,2.48-.34l.2,.47Z"/>
    <path class="cls-23" d="M268.15,266.12l-.42,.38c-.35-.48-.82-.97-1.41-1.49-.34,.58-.76,1.16-1.26,1.75h2.58v.53h-1.17v1.24h1.31v.55h-1.31v3.44c.36-.06,.82-.17,1.4-.35l.05,.54c-1.17,.34-2.38,.62-3.61,.85l-.12-.54,1.75-.34v-3.6h-1.55v-.55h1.55v-1.24h-.94v-.46l-.52,.53-.35-.45c.89-.88,1.59-1.83,2.08-2.86l.5,.23c-.03,.08-.07,.17-.14,.27,.59,.47,1.11,1,1.58,1.57Zm-2.69,5.91l-.53,.09c-.09-.64-.25-1.38-.48-2.22l.52-.13c.27,.94,.43,1.69,.49,2.27Zm2.44-2.17c-.13,.72-.3,1.37-.5,1.96l-.49-.21c.22-.65,.38-1.29,.48-1.92l.52,.18Zm5.88-.96h-3.13c-.22,.52-.54,1.04-.96,1.55v2.51c.55-.17,1.11-.39,1.68-.65l.09,.58c-.96,.39-1.73,.68-2.31,.86l-.22-.53c.12-.08,.19-.2,.19-.37v-1.77c-.39,.36-.67,.61-.86,.74l-.37-.43c1.02-.74,1.74-1.57,2.16-2.48h-1.8v-.54h2.36v-1.19h-2v-.53h2v-1.15h-2.22v-.53h2.22v-.86h.55v.86h2.49v.53h-2.49v1.15h2.2v.53h-2.2v1.19h2.62v.54Zm.11,4.37l-.38,.48c-1.53-1.01-2.38-2.35-2.57-4.01l.55-.14c.03,.44,.15,.9,.34,1.38,.63-.46,1.1-.9,1.42-1.32l.38,.35c-.34,.52-.86,1-1.57,1.46,.37,.65,.98,1.26,1.83,1.81Z"/>
    <path class="cls-23" d="M279.99,273.16h-4.98v-.81l2.42-2.44c.8-.81,1.29-1.4,1.48-1.76s.28-.75,.28-1.16c0-.49-.14-.87-.42-1.13-.28-.27-.68-.4-1.19-.4-.74,0-1.45,.32-2.14,.96v-.96c.64-.51,1.39-.77,2.26-.77,.72,0,1.29,.2,1.72,.6s.65,.94,.65,1.62c0,.52-.14,1.04-.43,1.54-.29,.51-.82,1.16-1.61,1.95l-1.94,1.92v.02h3.91v.82Z"/>
  </g>
  <g>
    <path class="cls-23" d="M656.65,332.13h-.56v-1.88h-3.85v2.17h-.55v-2.17h-3.59v1.88h-.58v-2.4h4.17v-.81h-3.77v-.52h8.37v.52h-4.05v.81h4.41v2.4Zm.33,4.32c-.05,.45-.16,.77-.34,.96-.18,.19-.49,.3-.94,.33-.45,.03-.96,.04-1.52,.04-.49,0-.95,0-1.38-.03s-.73-.1-.88-.25c-.15-.14-.22-.37-.22-.68v-.81h-3.51v-3.15h7.61v3.15h-3.52v.85c0,.09,.03,.16,.1,.21,.06,.05,.3,.08,.7,.11,.4,.03,.85,.04,1.35,.04,.86,0,1.36-.02,1.51-.06s.26-.15,.33-.33c.07-.18,.11-.4,.13-.67l.59,.3Zm-5.75-4.37c-.88,.23-1.71,.37-2.48,.41l-.18-.51c.82-.04,1.64-.15,2.48-.34l.18,.43Zm0-1.12l-.18,.47c-.61-.15-1.41-.26-2.4-.34l.24-.47c.92,.08,1.7,.19,2.34,.34Zm.47,3.2v-.79h-2.94v.79h2.94Zm0,1.32v-.82h-2.94v.82h2.94Zm3.52-1.32v-.79h-2.94v.79h2.94Zm0,1.32v-.82h-2.94v.82h2.94Zm.33-3.38l-.25,.46c-.77-.2-1.63-.35-2.59-.43l.24-.44c1.13,.1,2,.23,2.61,.41Zm-.08-.99c-.91,.16-1.75,.27-2.51,.32l-.17-.45c.76-.06,1.58-.17,2.48-.34l.2,.47Z"/>
    <path class="cls-23" d="M662.24,330.18l-.42,.38c-.35-.48-.82-.97-1.41-1.49-.34,.58-.76,1.16-1.26,1.75h2.58v.53h-1.17v1.24h1.31v.55h-1.31v3.44c.36-.06,.82-.17,1.4-.35l.05,.54c-1.17,.34-2.38,.62-3.61,.85l-.12-.54,1.75-.34v-3.6h-1.55v-.55h1.55v-1.24h-.94v-.46l-.52,.53-.35-.45c.89-.88,1.59-1.83,2.08-2.86l.5,.23c-.03,.08-.07,.17-.14,.27,.59,.47,1.11,1,1.58,1.57Zm-2.69,5.91l-.53,.09c-.09-.64-.25-1.38-.48-2.22l.52-.13c.27,.94,.43,1.69,.49,2.27Zm2.44-2.17c-.13,.72-.3,1.37-.5,1.96l-.49-.21c.22-.65,.38-1.29,.48-1.92l.52,.18Zm5.88-.96h-3.13c-.22,.52-.54,1.04-.96,1.55v2.51c.55-.17,1.11-.39,1.68-.65l.09,.58c-.96,.39-1.73,.68-2.31,.86l-.22-.53c.12-.08,.19-.2,.19-.37v-1.77c-.39,.36-.67,.61-.86,.74l-.37-.43c1.02-.74,1.74-1.57,2.16-2.48h-1.8v-.54h2.36v-1.19h-2v-.53h2v-1.15h-2.22v-.53h2.22v-.86h.55v.86h2.49v.53h-2.49v1.15h2.2v.53h-2.2v1.19h2.62v.54Zm.11,4.37l-.38,.48c-1.53-1.01-2.38-2.35-2.57-4.01l.55-.14c.03,.44,.15,.9,.34,1.38,.63-.46,1.1-.9,1.42-1.32l.38,.35c-.34,.52-.86,1-1.57,1.46,.37,.65,.98,1.26,1.83,1.81Z"/>
    <path class="cls-23" d="M669.29,335.93c.57,.45,1.21,.68,1.92,.68,.57,0,1.04-.14,1.4-.44,.36-.29,.54-.69,.54-1.2,0-1.11-.78-1.67-2.35-1.67h-.69v-.77h.66c1.39,0,2.08-.52,2.08-1.56,0-.96-.53-1.45-1.59-1.45-.59,0-1.14,.2-1.65,.61v-.9c.53-.32,1.16-.48,1.88-.48,.66,0,1.2,.18,1.64,.54s.65,.84,.65,1.44c0,1.09-.56,1.79-1.67,2.12v.02c.59,.05,1.07,.26,1.43,.62,.36,.37,.54,.82,.54,1.36,0,.76-.27,1.36-.82,1.82s-1.24,.68-2.09,.68c-.78,0-1.4-.15-1.87-.45v-.99Z"/>
  </g>
</svg>