<svg xmlns="http://www.w3.org/2000/svg" viewBox="0 0 131.58 161.08"><defs><style>.cls-1,.cls-6{fill:#fc3;}.cls-2{fill:none;stroke:#fbb03b;stroke-width:3px;}.cls-2,.cls-5{stroke-linecap:round;}.cls-2,.cls-5,.cls-6{stroke-linejoin:round;}.cls-3{fill:#4d4d4d;}.cls-4{fill:#ccc;}.cls-5{fill:#3361ad;stroke:#ccc;}.cls-5,.cls-6{stroke-width:2px;}.cls-6{stroke:#fc3;}</style></defs><g id="圖層_2" data-name="圖層 2"><g id="圖層_1-2" data-name="圖層 1"><circle class="cls-1" cx="65.79" cy="32.09" r="18.71"/><line class="cls-2" x1="65.79" y1="7.4" x2="65.79" y2="1.5"/><line class="cls-2" x1="48.33" y1="14.63" x2="44.16" y2="10.46"/><line class="cls-2" x1="41.1" y1="32.09" x2="35.2" y2="32.09"/><line class="cls-2" x1="48.33" y1="49.54" x2="44.16" y2="53.72"/><line class="cls-2" x1="65.79" y1="56.78" x2="65.79" y2="62.68"/><line class="cls-2" x1="83.25" y1="49.54" x2="87.42" y2="53.72"/><line class="cls-2" x1="90.48" y1="32.09" x2="96.38" y2="32.09"/><line class="cls-2" x1="83.25" y1="14.63" x2="87.42" y2="10.46"/><rect class="cls-3" x="59.45" y="137.08" width="12.68" height="16.89"/><rect class="cls-4" x="61.89" y="138.02" width="7.8" height="38.3" rx="0.87" transform="translate(222.97 91.39) rotate(90)"/><polygon class="cls-5" points="10.77 71.69 47.45 71.69 46.48 91.53 7.86 91.53 10.77 71.69"/><polygon class="cls-5" points="47.45 71.69 84.13 71.69 85.1 91.53 46.48 91.53 47.45 71.69"/><polygon class="cls-5" points="84.13 71.69 120.81 71.69 123.72 91.53 85.1 91.53 84.13 71.69"/><polygon class="cls-5" points="7.86 91.53 46.48 91.53 45.4 113.59 4.62 113.59 7.86 91.53"/><polygon class="cls-5" points="46.48 91.53 85.1 91.53 86.18 113.59 45.4 113.59 46.48 91.53"/><polygon class="cls-5" points="85.1 91.53 123.72 91.53 126.96 113.59 86.18 113.59 85.1 91.53"/><polygon class="cls-5" points="4.62 113.59 45.4 113.59 44.19 138.26 1 138.26 4.62 113.59"/><polygon class="cls-5" points="45.4 113.59 86.18 113.59 87.39 138.26 44.19 138.26 45.4 113.59"/><polygon class="cls-5" points="86.18 113.59 126.96 113.59 130.58 138.26 87.39 138.26 86.18 113.59"/><polygon class="cls-6" points="37.65 99.58 23.42 99.6 29.17 83.89 15.25 104.8 29.17 104.79 21.73 124.29 37.65 99.58"/><polygon class="cls-6" points="76.99 99.58 62.76 99.6 68.51 83.89 54.59 104.8 68.51 104.79 61.07 124.29 76.99 99.58"/><polygon class="cls-6" points="116.33 99.58 102.1 99.6 107.85 83.89 93.93 104.8 107.85 104.79 100.41 124.29 116.33 99.58"/></g></g></svg>