<svg xmlns="http://www.w3.org/2000/svg" viewBox="0 0 65.87 127.52"><defs><style>.cls-1{fill:#f2f2f2;}.cls-2{fill:#6c6;}.cls-3{fill:#ccc;}.cls-4{fill:#fc3;stroke:#fc3;stroke-linejoin:round;stroke-width:1.92px;}</style></defs><g id="圖層_2" data-name="圖層 2"><g id="圖層_1-2" data-name="圖層 1"><rect class="cls-1" y="8.71" width="65.87" height="118.8" rx="5"/><path class="cls-2" d="M0,39.15H65.87a0,0,0,0,1,0,0v83.37a5,5,0,0,1-5,5H5a5,5,0,0,1-5-5V39.15A0,0,0,0,1,0,39.15Z"/><path class="cls-3" d="M22.7,0H43.17a1,1,0,0,1,1,1V8.71a0,0,0,0,1,0,0H21.7a0,0,0,0,1,0,0V1A1,1,0,0,1,22.7,0Z"/><polygon class="cls-4" points="45.39 65.82 29.57 65.84 35.96 48.37 20.48 71.61 35.96 71.6 27.69 93.28 45.39 65.82"/></g></g></svg>