<svg xmlns="http://www.w3.org/2000/svg" viewBox="0 0 65.87 127.52"><defs><style>.cls-1{fill:#f2f2f2;}.cls-2{fill:#ed1c24;}.cls-3{fill:#ccc;}</style></defs><g id="圖層_2" data-name="圖層 2"><g id="圖層_1-2" data-name="圖層 1"><rect class="cls-1" y="8.71" width="65.87" height="118.8" rx="5"/><path class="cls-2" d="M0,98.79H65.87a0,0,0,0,1,0,0v23.46a5.26,5.26,0,0,1-5.26,5.26H5.26A5.26,5.26,0,0,1,0,122.25V98.79a0,0,0,0,1,0,0Z"/><path class="cls-3" d="M22.7,0H43.17a1,1,0,0,1,1,1V8.71a0,0,0,0,1,0,0H21.7a0,0,0,0,1,0,0V1A1,1,0,0,1,22.7,0Z"/></g></g></svg>