<svg xmlns="http://www.w3.org/2000/svg" viewBox="0 0 102.79 103.02"><defs><style>.cls-1{fill:#ccc;}.cls-2{fill:#fc3;}.cls-3{fill:#999;}.cls-4,.cls-5{fill:none;stroke:#fbb03b;}.cls-4{stroke-miterlimit:10;stroke-width:2.06px;}.cls-5{stroke-linecap:round;stroke-linejoin:round;stroke-width:3px;}</style></defs><g id="圖層_2" data-name="圖層 2"><g id="圖層_1-2" data-name="圖層 1"><rect class="cls-1" x="39.35" y="79.42" width="24.74" height="23.6" rx="11.72"/><circle class="cls-2" cx="51.73" cy="31.84" r="31.84"/><path class="cls-2" d="M67.12,73.14H36.33c-.44-7-3.2-13-8.27-20H75.39C70.1,60,67.25,65.68,67.12,73.14Z"/><rect class="cls-1" x="34.24" y="73.14" width="34.98" height="5" rx="2.5"/><rect class="cls-3" x="35.31" y="78.14" width="32.83" height="5" rx="2.42"/><rect class="cls-3" x="37.27" y="88.14" width="28.92" height="5" rx="2.27"/><rect class="cls-1" x="36.16" y="83.14" width="31.14" height="5" rx="2.36"/><path class="cls-4" d="M47.24,73.14s0-30.52,0-34.49c0-8.95-6.52-11.84-9.31-7.73-2.18,3.22.4,7.53,6.34,7.53h7.46"/><path class="cls-4" d="M56.21,73.14s0-30.52,0-34.49c0-8.95,6.52-11.84,9.31-7.73,2.18,3.22-.4,7.53-6.34,7.53H51.73"/><line class="cls-5" x1="10.51" y1="31.67" x2="1.5" y2="31.67"/><line class="cls-5" x1="15.47" y1="13.47" x2="7.66" y2="8.97"/><line class="cls-5" x1="15.31" y1="49.91" x2="7.51" y2="54.42"/><line class="cls-5" x1="92.28" y1="31.67" x2="101.29" y2="31.67"/><line class="cls-5" x1="87.33" y1="13.47" x2="95.13" y2="8.97"/><line class="cls-5" x1="87.48" y1="49.91" x2="95.28" y2="54.42"/></g></g></svg>