<svg xmlns="http://www.w3.org/2000/svg" xmlns:xlink="http://www.w3.org/1999/xlink" viewBox="0 0 30 27"><defs><style>.cls-1{fill:#0050b4;}.cls-2{fill:url(#未命名漸層_67);}</style><linearGradient id="未命名漸層_67" x1="6.46" y1="1.72" x2="15.96" y2="18.18" gradientUnits="userSpaceOnUse"><stop offset="0" stop-color="#00dcc8"/><stop offset="0.15" stop-color="#03d3c9"/><stop offset="0.39" stop-color="#0dbbcb"/><stop offset="0.7" stop-color="#1c93cf"/><stop offset="0.8" stop-color="#2185d0"/></linearGradient></defs><g id="圖層_2" data-name="圖層 2"><g id="圖層_1-2" data-name="圖層 1"><polygon class="cls-1" points="11.86 13.69 7.21 19.85 15.53 19.85 20.18 13.69 11.86 13.69"/><polygon class="cls-1" points="25.35 19.85 30 13.69 21.62 13.69 16.97 19.85 25.35 19.85"/><polygon class="cls-1" points="6.47 20.83 1.81 27 10.13 27 14.79 20.83 6.47 20.83"/><polygon class="cls-1" points="19.95 27 24.61 20.83 16.23 20.83 11.57 27 19.95 27"/><path class="cls-2" d="M4.66,18.54l-2.2,2.2L3.9,22.18l4.69-6.29a5.18,5.18,0,0,1-.91-3,5.24,5.24,0,0,1,10.47-.38h7.71v-1.5H22.75a9.93,9.93,0,0,0-1.54-3.73l2.2-2.2L20.74,2.46l-2.2,2.2a9.87,9.87,0,0,0-3.73-1.54V0H11.05V3.12A9.77,9.77,0,0,0,7.32,4.66l-2.2-2.2L2.46,5.12l2.2,2.2a9.77,9.77,0,0,0-1.54,3.73H0v3.76H3.12A9.71,9.71,0,0,0,4.66,18.54Z"/></g></g></svg>