<svg xmlns="http://www.w3.org/2000/svg" viewBox="0 0 126.55 138.48"><defs><style>.cls-1{fill:#6c6;}.cls-2{fill:#8c6239;}.cls-3{fill:#8cc63f;stroke:#8cc63f;stroke-width:5px;}.cls-3,.cls-5{stroke-linecap:round;stroke-linejoin:round;}.cls-4{fill:#eaece3;}.cls-5{fill:none;stroke:#e83a37;stroke-width:8px;}.cls-6{fill:#4d4d4d;}.cls-7{fill:#bee2ff;}</style></defs><g id="圖層_2" data-name="圖層 2"><g id="圖層_1-2" data-name="圖層 1"><rect class="cls-1" x="31.01" width="54.89" height="54.89" rx="27.45"/><rect class="cls-1" x="25.9" y="29.17" width="38.28" height="38.28" rx="19.14"/><rect class="cls-1" x="67.9" y="19.71" width="36.01" height="35.18" rx="17.59"/><rect class="cls-2" x="20.55" y="100.44" width="6.64" height="33.75"/><rect class="cls-2" x="59.96" y="29.17" width="6.64" height="43.96" rx="3.32"/><rect class="cls-2" x="54.4" y="37.42" width="6.64" height="19.14" rx="3.32" transform="translate(-16.33 54.58) rotate(-45)"/><polygon class="cls-3" points="2.96 118.04 44.79 118.04 23.87 31.71 2.96 118.04"/><rect class="cls-4" x="103.91" y="51.04" width="10.72" height="29.28" rx="1.11"/><polygon class="cls-4" points="119.23 130.48 36.51 130.48 36.51 84.78 77.87 46.3 119.23 84.78 119.23 130.48"/><polyline class="cls-5" points="32.68 90.3 77.87 46.3 122.3 89.54"/><rect class="cls-1" y="130.48" width="126.55" height="8" rx="3.94"/><path class="cls-6" d="M50.65,98.52h19a1,1,0,0,1,1,1v31a0,0,0,0,1,0,0h-21a0,0,0,0,1,0,0v-31A1,1,0,0,1,50.65,98.52Z"/><rect class="cls-7" x="90.17" y="98.52" width="18.34" height="18.34" rx="1"/></g></g></svg>