<svg xmlns="http://www.w3.org/2000/svg" viewBox="0 0 77.09 77.26"><defs><style>.cls-1{fill:#ccc;}.cls-2{fill:#fc3;}.cls-3{fill:#999;}.cls-4,.cls-5{fill:none;stroke:#fbb03b;}.cls-4{stroke-miterlimit:10;stroke-width:1.55px;}.cls-5{stroke-linecap:round;stroke-linejoin:round;stroke-width:2.25px;}</style></defs><g id="圖層_2" data-name="圖層 2"><g id="圖層_1-2" data-name="圖層 1"><rect class="cls-1" x="29.51" y="59.56" width="18.56" height="17.7" rx="8.79"/><circle class="cls-2" cx="38.79" cy="23.88" r="23.88"/><path class="cls-2" d="M50.34,54.86H27.25c-.34-5.28-2.4-9.73-6.21-15H56.55C52.57,45,50.44,49.26,50.34,54.86Z"/><rect class="cls-1" x="25.68" y="54.86" width="26.23" height="3.75" rx="1.87"/><rect class="cls-3" x="26.48" y="58.61" width="24.62" height="3.75" rx="1.82"/><rect class="cls-3" x="27.95" y="66.11" width="21.69" height="3.75" rx="1.7"/><rect class="cls-1" x="27.12" y="62.36" width="23.36" height="3.75" rx="1.77"/><path class="cls-4" d="M35.43,54.86s0-22.89,0-25.87c0-6.71-4.89-8.88-7-5.8-1.64,2.41.3,5.65,4.75,5.65h5.59"/><path class="cls-4" d="M42.16,54.86s0-22.89,0-25.87c0-6.71,4.89-8.88,7-5.8,1.64,2.41-.3,5.65-4.75,5.65h-5.6"/><line class="cls-5" x1="7.88" y1="23.75" x2="1.12" y2="23.75"/><line class="cls-5" x1="11.6" y1="10.11" x2="5.75" y2="6.73"/><line class="cls-5" x1="11.49" y1="37.43" x2="5.63" y2="40.81"/><line class="cls-5" x1="69.21" y1="23.75" x2="75.97" y2="23.75"/><line class="cls-5" x1="65.49" y1="10.11" x2="71.35" y2="6.73"/><line class="cls-5" x1="65.61" y1="37.43" x2="71.46" y2="40.81"/></g></g></svg>