<svg xmlns="http://www.w3.org/2000/svg" viewBox="0 0 47.76 77.26"><defs><style>.cls-1{fill:#ccc;}.cls-2{fill:#f2f2f2;}.cls-3{fill:#999;}.cls-4{fill:none;stroke:#ccc;stroke-miterlimit:10;stroke-width:1.55px;}</style></defs><g id="圖層_2" data-name="圖層 2"><g id="圖層_1-2" data-name="圖層 1"><rect class="cls-1" x="14.6" y="59.56" width="18.56" height="17.7" rx="8.79"/><circle class="cls-2" cx="23.88" cy="23.88" r="23.88"/><path class="cls-2" d="M35.43,54.86H12.33c-.33-5.28-2.4-9.73-6.2-15h35.5C37.66,45,35.52,49.26,35.43,54.86Z"/><rect class="cls-1" x="10.76" y="54.86" width="26.23" height="3.75" rx="1.87"/><rect class="cls-3" x="11.57" y="58.61" width="24.62" height="3.75" rx="1.82"/><rect class="cls-3" x="13.04" y="66.11" width="21.69" height="3.75" rx="1.7"/><rect class="cls-1" x="12.2" y="62.36" width="23.36" height="3.75" rx="1.77"/><path class="cls-4" d="M20.51,54.86s0-22.89,0-25.87c0-6.71-4.89-8.88-7-5.8-1.63,2.41.31,5.65,4.76,5.65h5.59"/><path class="cls-4" d="M27.25,54.86s0-22.89,0-25.87c0-6.71,4.88-8.88,7-5.8,1.63,2.41-.31,5.65-4.76,5.65H23.88"/></g></g></svg>