<?xml version="1.0" encoding="utf-8"?>
<!-- Generator: Adobe Illustrator 27.0.0, SVG Export Plug-In . SVG Version: 6.00 Build 0)  -->
<svg version="1.1" id="圖層_1" xmlns="http://www.w3.org/2000/svg" xmlns:xlink="http://www.w3.org/1999/xlink" x="0px" y="0px"
	 viewBox="0 0 1093.9 910.5" style="enable-background:new 0 0 1093.9 910.5;" xml:space="preserve">
<style type="text/css">
	.st0{opacity:0.5;}
	.st1{fill:#2185D0;}
</style>
<g id="圖層_2_00000092429450298773115640000017033676117615972783_">
	<g id="圖層_1-2">
		<g class="st0">
			<path class="st1" d="M971.7,838.2H769.6c-0.6,0-1-0.4-1-1V702.9c0-0.6,0.4-1,1-1h202.1c0.6,0,1,0.4,1,1v134.3
				C972.7,837.7,972.3,838.2,971.7,838.2z M770.6,836.2h200.1V703.9H770.6V836.2z"/>
			<path class="st1" d="M956.7,824.5H784.6c-0.6,0-1-0.4-1-1V716.5c0-0.6,0.4-1,1-1h172.2c0.6,0,1,0.4,1,1v106.9
				C957.7,824,957.3,824.5,956.7,824.5z M785.6,822.5h170.2V717.5H785.6L785.6,822.5z"/>
			<path class="st1" d="M882.8,865.4h-24.2c-0.6,0-1-0.4-1-1v-27.2c0-0.6,0.4-1,1-1h24.2c0.6,0,1,0.4,1,1v27.2
				C883.8,864.9,883.3,865.4,882.8,865.4z M859.6,863.4h22.2v-25.2h-22.2V863.4z"/>
			<path class="st1" d="M913.6,878.8h-85.9c-0.6,0-1-0.4-1-1v-13.4c0-0.6,0.4-1,1-1h85.9c0.6,0,1,0.4,1,1v13.4
				C914.6,878.3,914.2,878.8,913.6,878.8z M828.7,876.8h83.9v-11.4h-83.9V876.8z"/>
			<path class="st1" d="M24.9,655.5c-1.2,0-2.4-0.4-3.4-1.1c-1.3-0.9-2.2-2.3-2.4-3.9L0.1,543.3c-0.6-3.3,1.6-6.4,4.8-7
				c0,0,0,0,0.1,0l55-9.7c3.3-0.6,6.4,1.6,7,4.8c0,0,0,0,0,0.1l18.9,107.2c0.6,3.3-1.6,6.4-4.8,7l-55,9.7
				C25.6,655.4,25.3,655.5,24.9,655.5z M61,528.6c-0.2,0-0.5,0-0.7,0.1l-55,9.7c-2.2,0.4-3.6,2.5-3.2,4.6c0,0,0,0,0,0L21,650.1
				c0.4,2.2,2.5,3.6,4.6,3.3c0,0,0,0,0,0l55-9.7c2.2-0.4,3.6-2.5,3.2-4.6L65,531.9C64.7,530,63,528.6,61,528.6z"/>
			<path class="st1" d="M24.9,655.5c-2.9,0-5.4-2.1-5.9-5l-14.7-83l1-0.2l65.9-11.6l14.6,83.1c0.6,3.3-1.6,6.4-4.8,7l-55,9.7
				C25.6,655.4,25.3,655.5,24.9,655.5z M6.7,569L21,650.1c0.4,2.2,2.5,3.6,4.6,3.3c0,0,0,0,0,0l55-9.7c2.2-0.4,3.6-2.5,3.2-4.6
				l-14.3-81.1L6.7,569z"/>
			<path class="st1" d="M20.8,535.6l-1.5-8.6c-0.2-1.1,0.5-2.1,1.6-2.3c0,0,0,0,0,0l20.1-3.5c1.1-0.2,2.1,0.5,2.3,1.6l1.5,8.6
				L20.8,535.6z M41.2,522.2l0.2,1l-20.1,3.5l1.2,6.6l20.2-3.5L41.2,522.2z"/>
			<path class="st1" d="M42.2,617.7c-0.1,0-0.2,0-0.3,0c-0.5-0.1-0.8-0.6-0.7-1.2l4.1-21.4l-13.8,2.5c-0.4,0.1-0.8-0.1-1-0.4
				c-0.2-0.3-0.3-0.7-0.1-1l11.2-25.6c0.2-0.5,0.7-0.7,1.2-0.6c0.5,0.1,0.8,0.6,0.7,1.1l-3,16.9l14.2-2.5c0.4-0.1,0.8,0.1,1,0.4
				c0.2,0.3,0.3,0.7,0.1,1l-12.7,30.1C42.9,617.5,42.6,617.7,42.2,617.7z M46.5,592.9c0.6,0,1,0.4,1,1c0,0.1,0,0.1,0,0.2L45,607.5
				l8.2-19.6l-13.8,2.4c-0.5,0.1-1.1-0.3-1.2-0.8c0-0.1,0-0.2,0-0.3l1.8-10L33,595.3l13.4-2.4L46.5,592.9z"/>
			<path class="st1" d="M207.8,164.1c-33.5,0-60.7-27.2-60.7-60.7c0-33.5,27.2-60.7,60.7-60.7c33.5,0,60.7,27.2,60.7,60.7v0
				C268.4,136.9,241.3,164,207.8,164.1z M207.8,44.7c-32.4,0-58.7,26.3-58.7,58.7s26.3,58.7,58.7,58.7s58.7-26.3,58.7-58.7
				c0,0,0,0,0,0C266.4,71,240.2,44.7,207.8,44.7z"/>
			<path class="st1" d="M207.8,30.4c-3.2,0-5.8-2.6-5.8-5.8V5.8c0-3.2,2.6-5.8,5.8-5.8c3.2,0,5.8,2.6,5.8,5.8v18.8
				C213.6,27.8,211,30.4,207.8,30.4z M207.8,2c-2.1,0-3.8,1.7-3.8,3.8v18.8c0,2.1,1.7,3.8,3.8,3.8c2.1,0,3.8-1.7,3.8-3.8l0,0V5.8
				C211.6,3.7,209.9,2,207.8,2C207.8,2,207.8,2,207.8,2z"/>
			<path class="st1" d="M152.1,53.5c-1.5,0-3-0.6-4.1-1.7l-13.3-13.3c-2.3-2.3-2.3-5.9,0-8.2c2.3-2.3,5.9-2.3,8.2,0l13.3,13.3
				c2.3,2.3,2.3,5.9,0,8.2C155.1,52.9,153.6,53.5,152.1,53.5z M138.8,30.6c-1,0-2,0.4-2.7,1.1c-1.5,1.5-1.5,3.9,0,5.3c0,0,0,0,0,0
				l13.3,13.3c1.5,1.4,3.9,1.4,5.4,0c1.5-1.5,1.5-3.9,0-5.4c0,0,0,0,0,0l-13.3-13.3C140.7,31,139.8,30.6,138.8,30.6z"/>
			<path class="st1" d="M129,109.2h-18.8c-3.2,0-5.8-2.6-5.8-5.8s2.6-5.8,5.8-5.8l0,0H129c3.2,0,5.8,2.6,5.8,5.8
				S132.2,109.2,129,109.2z M110.2,99.6c-2.1,0-3.8,1.7-3.8,3.8s1.7,3.8,3.8,3.8l0,0H129c2.1,0,3.8-1.7,3.8-3.8s-1.7-3.8-3.8-3.8
				H110.2z"/>
			<path class="st1" d="M138.8,178.2c-3.2,0-5.8-2.6-5.8-5.8c0-1.5,0.6-3,1.7-4.1L148,155c2.3-2.3,5.9-2.3,8.2,0s2.3,5.9,0,8.2
				l-13.3,13.3C141.8,177.6,140.3,178.2,138.8,178.2z M152.1,155.3c-1,0-2,0.4-2.7,1.1l-13.3,13.3c-1.5,1.5-1.5,3.9,0,5.3
				c0,0,0,0,0,0c1.5,1.4,3.9,1.4,5.4,0l13.3-13.3c1.5-1.5,1.5-3.9,0-5.3C154.1,155.7,153.1,155.3,152.1,155.3L152.1,155.3z"/>
			<path class="st1" d="M207.8,206.8c-3.2,0-5.8-2.6-5.8-5.8v-18.8c0-3.2,2.6-5.8,5.8-5.8c3.2,0,5.8,2.6,5.8,5.8V201
				C213.6,204.2,211,206.8,207.8,206.8z M207.8,178.4c-2.1,0-3.8,1.7-3.8,3.8V201c0,2.1,1.7,3.8,3.8,3.8c2.1,0,3.8-1.7,3.8-3.8
				v-18.8C211.6,180.1,209.9,178.4,207.8,178.4z"/>
			<path class="st1" d="M276.8,178.2c-1.5,0-3-0.6-4.1-1.7l-13.3-13.3c-2.3-2.3-2.3-5.9,0-8.2s5.9-2.3,8.2,0l13.3,13.3
				c2.3,2.3,2.3,5.9,0,8.2C279.8,177.6,278.3,178.2,276.8,178.2z M263.5,155.3c-2.1,0-3.8,1.7-3.8,3.8c0,1,0.4,2,1.1,2.7l13.3,13.3
				c1.5,1.4,3.9,1.4,5.4,0c1.5-1.5,1.5-3.9,0-5.3c0,0,0,0,0,0l-13.3-13.3C265.5,155.7,264.5,155.3,263.5,155.3z"/>
			<path class="st1" d="M305.4,109.2h-18.8c-3.2,0-5.8-2.6-5.8-5.8s2.6-5.8,5.8-5.8h18.8c3.2,0,5.8,2.6,5.8,5.8
				S308.6,109.2,305.4,109.2L305.4,109.2z M286.6,99.6c-2.1,0-3.8,1.7-3.8,3.8s1.7,3.8,3.8,3.8h18.8c2.1,0,3.8-1.7,3.8-3.8
				s-1.7-3.8-3.8-3.8H286.6z"/>
			<path class="st1" d="M263.5,53.5c-3.2,0-5.8-2.6-5.8-5.8c0-1.5,0.6-3,1.7-4.1l13.3-13.3c2.3-2.3,5.9-2.3,8.2,0
				c1.1,1.1,1.7,2.6,1.7,4.1c0,1.5-0.6,3-1.7,4.1l-13.3,13.3C266.5,52.9,265,53.5,263.5,53.5z M276.8,30.6c-1,0-2,0.4-2.7,1.1
				L260.8,45c-0.7,0.7-1.1,1.7-1.1,2.7c0,1,0.4,2,1.1,2.7c1.5,1.4,3.9,1.4,5.4,0L279.5,37c1.5-1.5,1.5-3.9,0-5.4
				C278.8,31,277.8,30.6,276.8,30.6L276.8,30.6z"/>
			<path class="st1" d="M359.2,865.4c-6.9,0-13.9-0.1-21-0.4c-86.4-3.4-149.6-28.7-182.7-73c-23.9-32-30.6-72.3-19.4-116.6
				c11.7-46.1,45.7-82.6,98.4-105.5c54.5-23.7,127.5-32,211.1-24.1c51.1,4.8,150.2,12.9,248,12.9h6.6
				c117.3-0.4,197.1-12.4,237.1-35.5c35.4-20.5,46.7-46.7,50-65.1c4-22.7-2.1-46.4-16.3-63.4c-42.4-50.5-146.5-66.3-318.3-48.2
				c-28.8,3-58,6.7-86.2,10.2c-70.8,8.8-144,18-217,18.3c-58.5,0.3-142.2-2.8-194.1-32.6c-17.3-9.9-29.2-27-33.4-48.1
				c-4.7-23.7,0.8-50,14-67.1c0.3-0.5,0.9-0.6,1.4-0.3c0.5,0.3,0.6,0.9,0.3,1.4c0,0,0,0.1-0.1,0.1c-12.9,16.6-18.2,42.3-13.6,65.5
				c4.1,20.5,15.6,37.1,32.4,46.8c51.5,29.5,134.9,32.5,193.1,32.3c72.9-0.3,146-9.5,216.7-18.3c28.2-3.5,57.5-7.2,86.2-10.2
				c71-7.5,128.9-9.2,177-5.1c69.8,5.9,117.9,24,143,54c14.6,17.4,20.9,41.7,16.8,65c-3.3,18.8-14.8,45.7-50.9,66.5
				C898,548,817.8,560.1,700.2,560.5h-6.6c-97.8,0-197.1-8-248.2-12.9c-83.3-7.9-156,0.3-210.1,23.9
				c-52.1,22.7-85.7,58.7-97.2,104.2c-11.1,43.7-4.5,83.4,19,114.9c32.7,43.8,95.4,68.8,181.2,72.2c88.2,3.5,156.6-15.8,216.9-32.9
				c49.6-14,96.5-27.3,147.5-26.4c0.6,0,1,0.4,1,1s-0.4,1-1,1c-50.7-0.9-97.4,12.3-146.9,26.3C500.1,847.7,437.7,865.4,359.2,865.4z
				"/>
			<path class="st1" d="M1013.2,262.6L1013.2,262.6l-38.6-3.4c-0.3,0-0.6-0.2-0.7-0.4c-0.2-0.2-0.2-0.5-0.2-0.8l4.6-19.5
				c0.1-0.5,0.6-0.8,1.1-0.8l36.5,3.2c0.3,0,0.5,0.2,0.7,0.4c0.2,0.2,0.2,0.5,0.2,0.8l-2.7,19.7
				C1014.1,262.3,1013.7,262.6,1013.2,262.6z M975.9,257.4l36.4,3.2l2.4-17.7l-34.6-3L975.9,257.4z"/>
			<path class="st1" d="M1051.6,266L1051.6,266l-38.6-3.4c-0.3,0-0.5-0.2-0.7-0.4c-0.2-0.2-0.2-0.5-0.2-0.8l2.7-19.7
				c0.1-0.5,0.5-0.9,1.1-0.9l36.5,3.2c0.5,0,0.9,0.5,0.9,1l-0.8,19.9c0,0.3-0.1,0.5-0.3,0.7C1052.1,265.9,1051.9,266,1051.6,266z
				 M1014.3,260.7l36.4,3.2l0.7-17.9l-34.6-3L1014.3,260.7z"/>
			<path class="st1" d="M1090.1,269.4L1090.1,269.4l-38.6-3.4c-0.5,0-0.9-0.5-0.9-1l0.8-19.9c0-0.6,0.4-1,1-1c0,0,0.1,0,0.1,0
				l36.5,3.2c0.5,0,0.9,0.4,0.9,0.9l1.2,20c0,0.3-0.1,0.6-0.3,0.8C1090.6,269.3,1090.4,269.4,1090.1,269.4z M1052.7,264.1l36.4,3.2
				l-1-18l-34.6-3L1052.7,264.1z"/>
			<path class="st1" d="M1010.2,284.5L1010.2,284.5l-40.7-3.5c-0.6,0-1-0.5-0.9-1.1c0,0,0-0.1,0-0.1l5.2-21.7
				c0.1-0.5,0.6-0.8,1.1-0.8l38.5,3.4c0.3,0,0.5,0.2,0.7,0.4c0.2,0.2,0.2,0.5,0.2,0.8l-3,21.9
				C1011.1,284.2,1010.6,284.5,1010.2,284.5z M970.8,279.1l38.5,3.4l2.7-19.9l-36.6-3.2L970.8,279.1z"/>
			<path class="st1" d="M1050.8,288.1L1050.8,288.1l-40.7-3.5c-0.5-0.1-1-0.5-0.9-1.1c0,0,0,0,0,0l3-21.9c0.1-0.5,0.5-0.9,1.1-0.9
				l38.5,3.4c0.5,0,0.9,0.5,0.9,1l-0.8,22.1c0,0.3-0.1,0.5-0.3,0.7C1051.3,288,1051,288.1,1050.8,288.1z M1011.3,282.6l38.5,3.4
				l0.8-20.1l-36.6-3.2L1011.3,282.6z"/>
			<path class="st1" d="M1091.4,291.6L1091.4,291.6l-40.7-3.6c-0.5,0-0.9-0.5-0.9-1l0.8-22.1c0-0.3,0.1-0.5,0.3-0.7
				c0.2-0.2,0.5-0.3,0.8-0.2l38.5,3.4c0.5,0,0.9,0.4,0.9,0.9l1.3,22.3c0,0.3-0.1,0.6-0.3,0.8
				C1091.9,291.6,1091.7,291.6,1091.4,291.6z M1051.8,286.2l38.5,3.4l-1.2-20.2l-36.6-3.2L1051.8,286.2z"/>
			<path class="st1" d="M1006.8,309L1006.8,309l-43.1-3.8c-0.3,0-0.6-0.2-0.7-0.4c-0.2-0.2-0.2-0.5-0.2-0.8l5.8-24.3
				c0.1-0.5,0.6-0.8,1.1-0.8l40.6,3.6c0.6,0,1,0.5,0.9,1.1c0,0,0,0,0,0.1l-3.3,24.5C1007.8,308.6,1007.3,309,1006.8,309z M965,303.3
				l40.9,3.6l3.1-22.5l-38.7-3.4L965,303.3z"/>
			<path class="st1" d="M1049.8,312.8L1049.8,312.8l-43.1-3.8c-0.3,0-0.5-0.2-0.7-0.4c-0.2-0.2-0.2-0.5-0.2-0.8l3.4-24.5
				c0.1-0.5,0.5-0.9,1.1-0.9l40.6,3.5c0.5,0,0.9,0.5,0.9,1l-1,24.7C1050.8,312.3,1050.4,312.8,1049.8,312.8L1049.8,312.8z
				 M1007.9,307.1l40.9,3.6l0.9-22.7l-38.7-3.4L1007.9,307.1z"/>
			<path class="st1" d="M1092.9,316.5L1092.9,316.5l-43.1-3.8c-0.5,0-0.9-0.5-0.9-1l1-24.7c0-0.3,0.1-0.5,0.3-0.7
				c0.2-0.2,0.5-0.3,0.8-0.2l40.6,3.5c0.5,0,0.9,0.4,0.9,0.9l1.5,24.9c0,0.3-0.1,0.6-0.3,0.8
				C1093.4,316.5,1093.1,316.6,1092.9,316.5z M1050.9,310.9l40.9,3.6l-1.3-22.9l-38.7-3.4L1050.9,310.9z"/>
			<path class="st1" d="M711.8,99.6c-6.1,0-11-4.9-11-11s4.9-11,11-11s11,4.9,11,11l0,0C722.8,94.7,717.9,99.6,711.8,99.6z
				 M711.8,79.6c-5,0-9,4-9,9s4,9,9,9s9-4,9-9l0,0C720.8,83.6,716.8,79.6,711.8,79.6z"/>
			<path class="st1" d="M1016.8,628.7c-6.1,0-11-4.9-11-11s4.9-11,11-11s11,4.9,11,11l0,0C1027.8,623.8,1022.9,628.7,1016.8,628.7z
				 M1016.8,608.7c-5,0-9,4-9,9s4,9,9,9s9-4,9-9S1021.8,608.7,1016.8,608.7z"/>
			<path class="st1" d="M65.8,435c-6.1,0-11-4.9-11-11s4.9-11,11-11s11,4.9,11,11S71.9,435,65.8,435L65.8,435z M65.8,415
				c-5,0-9,4-9,9s4,9,9,9s9-4,9-9S70.8,415,65.8,415z"/>
			<path class="st1" d="M420.2,825.5c-6.1,0-11-4.9-11-11s4.9-11,11-11s11,4.9,11,11S426.3,825.5,420.2,825.5L420.2,825.5z
				 M420.2,805.5c-5,0-9,4-9,9s4,9,9,9s9-4,9-9S425.2,805.5,420.2,805.5L420.2,805.5z"/>
			<path class="st1" d="M945,62h-9c-0.6,0-1-0.4-1-1V49h-12c-0.6,0-1-0.4-1-1v-9c0-0.6,0.4-1,1-1h12V26c0-0.6,0.4-1,1-1h9
				c0.6,0,1,0.4,1,1v12h12c0.6,0,1,0.4,1,1v9c0,0.6-0.4,1-1,1h-12v12C946,61.6,945.6,62,945,62z M937,60h7V48c0-0.6,0.4-1,1-1h12v-7
				h-12c-0.6,0-1-0.4-1-1V27h-7v12c0,0.6-0.4,1-1,1h-12v7h12c0.6,0,1,0.4,1,1V60z"/>
			<path class="st1" d="M162.4,910.5h-9c-0.6,0-1-0.4-1-1v-12h-12c-0.6,0-1-0.4-1-1v-9c0-0.6,0.4-1,1-1h12v-12c0-0.6,0.4-1,1-1h9
				c0.6,0,1,0.4,1,1v12h12c0.6,0,1,0.4,1,1v9c0,0.6-0.4,1-1,1h-12v12C163.4,910,162.9,910.5,162.4,910.5z M154.4,908.5h7v-12
				c0-0.6,0.4-1,1-1h12v-7h-12c-0.6,0-1-0.4-1-1v-12h-7v12c0,0.6-0.4,1-1,1h-12v7h12c0.6,0,1,0.4,1,1V908.5z"/>
		</g>
	</g>
</g>
</svg>
