<?xml version="1.0" encoding="UTF-8"?>
<svg id="_圖層_1" data-name="圖層 1" xmlns="http://www.w3.org/2000/svg" xmlns:xlink="http://www.w3.org/1999/xlink" viewBox="0 0 152.43 41.23">
  <defs>
    <style>
      .cls-1 {
        fill: url(#_未命名漸層_2);
      }

      .cls-2 {
        fill: #0050b4;
      }
    </style>
    <linearGradient id="_未命名漸層_2" data-name="未命名漸層 2" x1="8.84" y1="42.53" x2="21.82" y2="20.04" gradientTransform="translate(0 45.7) scale(1 -1)" gradientUnits="userSpaceOnUse">
      <stop offset="0" stop-color="#00dcc8"/>
      <stop offset=".15" stop-color="#03d3c9"/>
      <stop offset=".39" stop-color="#0dbbcb"/>
      <stop offset=".7" stop-color="#1c93cf"/>
      <stop offset=".8" stop-color="#2185d0"/>
    </linearGradient>
  </defs>
  <g id="_圖層_1-2" data-name="圖層 1-2">
    <path d="M64.34,19.53c-4-2-6.68-6.34-8.17-10.94-.93,3.91-3.21,8.55-8.34,10.92l-1-1.83c4.71-2,6.81-6.55,7.52-10.31h-7.15v-1.91h7.39c.18-1.74,.25-3.5,.23-5.25h2c0,1.2,0,2.63-.13,4.08v.21c0,.31,0,.65-.08,1h8.44v1.83h-7.29c1.31,4.31,4,8.63,7.63,10.17l-1.05,2.03Zm-6.89-.52c-1.14-1.53-2.44-2.94-3.86-4.22l1.65-1.14c1.42,1.21,2.73,2.55,3.91,4l-1.7,1.36Z"/>
    <path d="M70.78,19.4h-1.67V1.05h4.85l1.26,.69c-.22,.59-.49,1.29-.74,2.02l-.06,.21-.07,.19-.1,.32-.08,.21c-.3,.9-.59,1.76-.89,2.47,1.06,1.21,1.63,2.76,1.62,4.37,.13,.9-.16,1.81-.78,2.48-.34,.22-.72,.37-1.12,.42-.52,.04-1.03,.04-1.55,0v-1.6c.26,.02,.53,.02,.79,0,.24,.01,.48-.05,.68-.17,.27-.18,.37-.79,.37-1.36-.05-1.48-.64-2.9-1.67-3.97,.49-1.32,1.05-3.27,1.43-4.62h-2.27V19.4Zm11.17,0v-1.55c.4,0,1,.08,1.22,.08,.23,.02,.47-.06,.63-.23,.27-.33,.48-1.87,.65-4.53h-1c-.74,2.37-2.07,4.52-3.86,6.25l-1-1.21c1.5-1.35,2.61-3.08,3.23-5h-1.4c-1.11,2.3-2.77,4.29-4.83,5.81l-.88-1.26c1.7-1.19,3.11-2.74,4.13-4.55h-1.5c-.66,.84-1.45,1.58-2.34,2.18-.25-.23-.71-.81-1-1.09,1.45-1.02,2.62-2.4,3.38-4h-2.48v-1.5h12.1v1.53h-8c-.21,.42-.44,.91-.68,1.33h7.92v.71c-.21,3.84-.53,5.82-1,6.36-.29,.36-.72,.58-1.18,.61-.68,.07-1.37,.09-2.06,.04l-.05,.02Zm3.36-11.69h-8.79V.99h8.79V7.71Zm-1.8-4v-1.38h-5.27v1.3l5.27,.08Zm0,2.66v-1.41h-5.27v1.37l5.27,.04Z"/>
    <path d="M98,6.87c-.11-.4-.26-.79-.44-1.16h-1.34c-.11,0-.22,0-.33,0h-.34c-.08,0-.15,0-.23,0h-.44c-.11,.01-.23,.01-.34,0h-.21c-1.61,.11-3.17,.19-4.36,.26l-.15-1.79h1.55c.71-1.34,1.31-2.74,1.79-4.18l2,.44c-.15,.38-.31,.76-.5,1.14l-.09,.18c-.37,.82-.79,1.62-1.13,2.31l3.4-.16c-.44-.48-.84-1.16-1.23-1.72l1.57-.59c1.06,1.4,1.92,2.94,2.56,4.58l-1.74,.69Zm-5.19,12.46h-1.81V7.48h7.33v9.85c0,.86-.21,1.45-.78,1.75-.92,.27-1.89,.35-2.85,.25l-.12-1.7h1.72c.27,0,.27-.1,.27-.42v-2.1h-3.76v4.22Zm3.76-8.75v-1.53h-3.76v1.56l3.76-.03Zm0,3.13v-1.68h-3.76v1.71l3.76-.03Zm8.43-4.51h-1.46c-3,0-3.4-.63-3.4-2.5V.26h1.86V3.43l1.76-.68,.19-.08c.78-.29,1.55-.62,2.29-1l1.24,1.34c-.72,.34-1.58,.68-2.46,1l-.21,.09-.42,.12-.21,.09-2.18,.65v1.72c0,.65,.1,.84,1.7,.84h1.28c1.49,0,1.7-.42,1.74-2l1.74,.26c-.26,2.64-.87,3.42-3.46,3.42Zm.11,10h-1.53c-3,0-3.44-.72-3.44-2.55v-6.86h1.86v3.13c1.55-.56,3.04-1.26,4.45-2.1l1.19,1.38c-1.01,.56-2.07,1.04-3.17,1.41l-.18,.08-.21,.09-2.08,.69v2.18c0,.68,.1,.93,1.78,.93h1.32c1.62,0,1.83-.57,1.89-2.44l1.7,.25c-.28,2.94-.93,3.83-3.59,3.83v-.02Z"/>
    <path d="M113.69,19.33l-.06-1.58c.67,.07,1.61,.07,2.12,.07h.25c.25,.04,.51,0,.73-.13,.45-1.06,.65-2.21,.57-3.36h-3.15l-.15,.57-1.55-.25c.17-.61,.36-1.47,.55-2.33l.06-.23c-.01-.07-.01-.14,0-.21v-.23c.13-.66,.25-1.33,.34-1.87h4v-2h-3.53v-.12c-.59,.27-1.24,.52-2,.82l-.63-1.56c1.28-.4,2.5-.97,3.62-1.7-.69-.58-1.43-1.1-2.21-1.55l1.14-1c.86,.47,1.67,1.03,2.42,1.66,.57-.53,1.05-1.13,1.45-1.79h-4.31V.97h5.65l1.16,.56c-.86,1.92-2.22,3.57-3.93,4.8h2.77v4.38c1.12-.58,1.8-1.74,1.76-3v-1.45h4.24c-1.96-1.44-3.5-3.38-4.47-5.61l1.47-.44,.13,.28,.08,.19c.27,.62,.61,1.21,1,1.76,.84-.64,1.63-1.34,2.36-2.11l1.43,1c-.86,.78-1.78,1.49-2.75,2.14,.41,.41,.86,.78,1.32,1.13,.9-.7,1.75-1.46,2.56-2.27l1.39,.94c-.86,.74-1.76,1.44-2.69,2.08,.96,.51,1.96,.92,3,1.22l-.63,1.61c-1.04-.28-2.05-.68-3-1.19v2.44c0,.27,0,.46,.09,.55,.08,.07,.19,.1,.29,.08h.5c.12,.01,.24,.01,.36,0,.12-.07,.22-.16,.3-.27,.04-.26,.06-.52,.06-.78l1.34,.23c0,.53-.09,1.05-.27,1.55-.14,.25-.39,.43-.67,.49-.4,.13-.82,.19-1.24,.17h-.48c-.52,.04-1.04-.1-1.47-.4-.3-.26-.42-.7-.42-1.7v-1.62h-2.23v.08c.06,1.69-.8,3.27-2.25,4.14-.33-.41-.7-.78-1.11-1.11v.65h-1.53v-.32h-2.65c-.12,.53-.27,1.2-.38,1.75h4.62s0,.48-.06,.73c-.23,2.9-.38,4.54-.86,5.06-.4,.39-.93,.61-1.49,.61-.53,.01-1.65,.01-2.96,.01Zm5.88,.15l-.44-1.45c1.23-.26,2.42-.71,3.52-1.33-.81-.79-1.45-1.74-1.89-2.79l1-.23h-1.68v-1.35h6.87l1.05,.37c-.53,1.52-1.42,2.89-2.58,4,1.17,.55,2.4,.95,3.67,1.18l-.5,1.62c-1.64-.29-3.21-.84-4.67-1.64-1.37,.72-2.84,1.25-4.35,1.59v.03Zm4.43-3.65c.7-.63,1.29-1.36,1.76-2.18h-3.48c.38,.86,.98,1.61,1.72,2.18Z"/>
    <path d="M143,9.33h-1.84V4.77h-6v2.71h-1.7V3.48h7.67v-1h-6.39V.99h14.7v1.45h-6.44v1h7.81V7.44h-1.76v-2.67h-6l-.05,4.56Zm4.45,10h-2c-3.63,0-4.43-.65-4.43-2.42v-.44h-3.88v1h-1.81v-7.47h13.67v6.42h-6.1v.44c0,.72,.29,1,2.66,1h1.85c2.14,0,2.46-.55,2.56-2.21l1.64,.28c-.25,2.53-.94,3.4-4.14,3.4h-.02Zm-7.22-10.39h-4.43v-1.13h4.43v1.13Zm0-2.08h-4v-1.12h4v1.12Zm.84,5.81v-1.34h-3.88v1.32l3.88,.02Zm0,2.46v-1.3h-3.88v1.3h3.88Zm6.05-2.46v-1.34h-4.22v1.32l4.22,.02Zm0,2.46v-1.3h-4.22v1.3h4.22Zm.9-8.27h-4v-1.12h4v1.12Zm.53,2.08h-4.55v-1.13h4.56v1.13Z"/>
    <path d="M48.73,34.31l-.64-1.19c1.35-.45,2.47-1.42,3.1-2.69h-3.12v-1.23h1.15c-.38-.27-.78-.51-1.2-.73,.9-.93,1.55-2.06,1.91-3.3l1.4,.3c-.08,.24-.17,.46-.26,.71l-.06,.16c-.03,.07-.06,.15-.08,.22h4.28v1.26h-2.2v1.35h2.63v1.23h-2.87l-.07,.19c.3,.16,.83,.45,1.3,.77l.2,.1c.59,.38,1.16,.75,1.39,.92l-1.1,1.02c-.46-.4-1.49-1.25-2.27-1.78-.89,1.21-2.11,2.14-3.5,2.7Zm2.77-5.11c0-.16,0-.31,0-.47v-.91h-1.21c-.29,.5-.63,.96-1.02,1.38h2.24Zm9.32,11.41h-10.33v-6.75h10.33v6.75Zm-1.59-4.08v-1.44h-7.22v1.44h7.22Zm0,2.82v-1.63h-7.22v1.65l7.22-.02Zm3.05-6.75h-6v-6.05h6v6.05Zm-1.56-1.37v-3.3h-3.03v3.3h3.03Z"/>
    <path d="M68.07,39.22l-.11,.16c-.35,.48-.71,.95-1.06,1.35l-1.28-.87c.83-.91,1.59-1.88,2.27-2.91l1.37,.5c-.35,.54-.77,1.16-1.2,1.77Zm6.09-.77c-.72-.74-1.56-1.35-2.48-1.82l.46-.42h-4.71v-1.02h10.17v-.94h-11.54v-.95h11.49v-.94h-10.07v-.95h11.64v1.89h1.65v.95h-1.65v1.96h-5.58c.6,.36,1.16,.8,1.65,1.3l-1.04,.93Zm-3.7-7.33h-1.45v-.68c-.12-.01-.23-.01-.35,0h-.57l-1.89,.08-.07-1.04,2.4-.02h.47v-.83h-2.25v-.97h2.25v-.68h-2.63v-.97h2.63v-.83h1.45v.83h2.35v.97h-2.35v.68h2.14v.97h-2.14v.73l2.43-.14v.99l-2.39,.17-.03,.73Zm4.13,9.74h-1.37c-2.7,0-3.1-.52-3.1-1.89v-2.07h1.53v2.06c0,.42,.05,.58,1.65,.58h1.25c1.37,0,1.4-.31,1.45-1.34l1.4,.21c-.21,1.96-.57,2.49-2.81,2.49v-.03Zm2.85-9.74h-1.48v-.83h-2.62v-.91h2.62v-.74h-2.11v-.97h2.11v-.68h-2.48v-.97h2.48v-.83h1.48v.83h2.86v.97h-2.86v.68h2.58v.97h-2.58v.74h3.21v.97h-3.17l-.04,.76Zm2.39,9.55c-.75-1.2-1.71-2.27-2.82-3.14l1.23-.73c1.16,.83,2.16,1.87,2.96,3.05l-1.37,.82Z"/>
    <path d="M85.6,33.15h-1.47v-3.25h6.2v-1.26h.09l-.54-.28c.27-.19,.53-.41,.78-.64h-2.43c.26,.39,.48,.81,.67,1.25l-1.39,.4c-.22-.58-.5-1.13-.83-1.65h-.55c-.45,.64-.97,1.22-1.54,1.75l-1.09-1.04c1.03-.92,1.86-2.04,2.43-3.3l1.44,.4c-.12,.28-.3,.61-.45,.9h4v1.07c.66-.69,1.18-1.48,1.56-2.35l1.37,.38c-.09,.31-.2,.62-.33,.92h5.29v1.29h-3.37c.31,.39,.58,.81,.83,1.25l-1.47,.43c-.3-.59-.66-1.14-1.07-1.65h-1.08c-.25,.33-.53,.63-.83,.92h.05v1.24h6.45v3.25h-1.54v-2.03h-11.17v2.03Zm11.27,7.54h-10.15v-8.63h8.98v3.57h-7.49v1.09h8.69l-.03,3.97Zm-2.76-6.21v-1.28h-5.93v1.28h5.93Zm1.18,5.03v-1.65h-7.11v1.65h7.11Z"/>
    <path d="M104.99,38.14l-.17,.07c-1.21,.41-2.39,.83-3.3,1.14l-.39-1.65c.59-.16,1.46-.41,2.24-.68v-4.44h-1.87v-1.46h1.87v-3.39h-2.07v-1.43h5.45v1.43h-1.87v3.39h1.59v1.45h-1.59v4c.55-.17,1.2-.39,1.75-.58l.28,1.46c-.61,.22-1.26,.46-1.91,.69Zm11.75,2.38h-10.73v-1.4h4.95v-2.21h-3.67v-1.4h3.67v-1.86h-3.52v-7.65h8.56v7.65h-3.57v1.85h3.72v1.41h-3.82v2.22h4.37l.03,1.4Zm-5.78-11.37v-1.84h-2.2v1.84h2.2Zm0,3.15v-1.92h-2.2v1.92h2.2Zm3.44-3.15v-1.84h-2.2v1.84h2.2Zm0,3.15v-1.92h-2.2v1.92h2.2Z"/>
    <path d="M120.19,40.88l-1.02-1.33c1.38-.83,2.61-1.88,3.64-3.12l1.65,.57c-1.25,1.47-2.68,2.78-4.27,3.88Zm7.32,.21h-1.65v-5.58h-1.02c-.13,0-.25,0-.38,0h-1.21c-1.42,0-2.76,.05-3.82,.08l-.19-1.58h3.71c.42-.3,.74-.73,1.2-1.06-1.12-.99-2.33-1.88-3.61-2.66l1.1-1.01c.16,.11,.32,.22,.5,.31l.16,.11c.13,.07,.25,.14,.36,.22,.31-.33,.63-.71,.94-1.09l.12-.14c.24-.33,.5-.64,.73-.93h-.35c-.12,0-.23,0-.35,0h-.17c-.12,0-.23,0-.35,0h-1.13l-.17,.05h-1.75c-.07-.48-.19-.94-.38-1.39,.5,0,1.02,0,1.54-.05h1.88c.06,0,.13,0,.19,0h.49l1.03-.05h.83c.35,0,.68-.06,1.02-.07h.36c1.86-.17,3.56-.38,4.81-.62l1.11,1.3c-1.18,.24-2.62,.44-4.13,.61h-.37c-.5,.05-.98,.08-1.47,.14h-.21l-.47,.05,.14,.05c-.36,.45-.76,.92-1.16,1.4l-.12,.12c-.49,.55-.99,1.11-1.45,1.54,.55,.38,1.06,.81,1.53,1.28,.11-.1,.21-.21,.33-.31l.12-.12,.73-.68,.14-.12c.93-.93,1.82-1.87,2.48-2.7l1.51,.83c-.71,.74-1.54,1.58-2.43,2.39l-.12,.12-.33,.31-.14,.12-.12,.12-.14,.12s-.09,.07-.14,.12l-.12,.12c-.69,.6-1.37,1.2-2.03,1.7h.41c.35,0,.71,0,1.09-.04h2.97c.14,0,.29,0,.43,0h.59c-.54-.49-1.11-1.04-1.59-1.45l1.27-.83c1.51,1.21,2.9,2.56,4.13,4.05l-1.42,.94c-.24-.36-.64-.87-1.01-1.3h-1.78c-.06,0-.12,0-.17,0h-2.05c-.14,0-.28,0-.42,0l-.04,5.55Zm5.36-.36c-.64-.66-1.31-1.3-2.01-1.89l-.14-.12c-.66-.55-1.34-1.09-1.91-1.51l1.3-.87c1.47,1.01,2.85,2.15,4.13,3.39l-1.37,1Z"/>
    <path d="M137.72,39.72l-1.19-.61c.54-1.3,.88-2.67,1.02-4.07l1.34,.22c-.19,1.53-.59,3.03-1.16,4.46Zm3.1,1.39h-1.4v-7.17h-.62c-.73,0-1.45,.07-2.01,.12l-.14-1.29h1.2c.3-.4,.71-.93,1.02-1.39-.63-.86-1.35-1.66-2.13-2.39l.74-1.02c.16,.12,.31,.26,.45,.38,.57-.97,1.05-1.99,1.44-3.04l1.39,.54c-.21,.42-.45,.83-.71,1.3l-.09,.17c-.4,.68-.83,1.35-1.16,1.87,.29,.31,.65,.65,.87,.93,.59-.95,1.23-2.06,1.65-2.9l1.3,.59c-.41,.68-.92,1.45-1.45,2.24l-.11,.16-.13,.07s-.03,.06-.05,.09l-.11,.14c-.52,.74-1.04,1.47-1.51,2.08,.66,0,1.48-.06,2.17-.11-.07-.16-.14-.31-.22-.47l-.07-.16c-.12-.26-.26-.52-.38-.74l1.04-.43c.64,1.1,1.12,2.28,1.4,3.52l-1.15,.5c-.02-.31-.06-.62-.13-.92l-1.11,.07,.02,7.24Zm1.2-2.69c-.11-.41-.24-.99-.4-1.59l-.06-.17-.05-.19-.35-1.21,1.06-.36c.11,.33,.25,.71,.36,1.09l.06,.17c.22,.69,.43,1.39,.57,1.86l-1.2,.41Zm.59,2.81l-.62-1.3c2.39-.96,2.82-3.3,2.91-6.24h1.49c-.14,3.5-.76,6.26-3.82,7.54h.03Zm8.32-7.43c-.19-.44-.42-.87-.68-1.28l-7.23,.57-.12-1.44,1.4-.1c.43-.91,.79-1.85,1.07-2.82h-2.54v-1.41h3.58v-2.08h1.51v2.08h4.02v1.4h-4.95c-.14,.31-.28,.68-.42,1.04l-.07,.17c-.18,.51-.38,1.01-.61,1.49,.45,0,.94-.05,1.43-.09h.36l1.65-.1c-.3-.5-.63-.97-.99-1.42l1.21-.63c1.06,1.18,1.97,2.48,2.73,3.88l-1.36,.72Zm-.49,7.18h-.6c-1.59,0-1.94-.58-1.94-1.97v-5.34h1.45v5.33c0,.44,.09,.59,.64,.59h.41c.55,0,.66-.47,.68-2l1.34,.19c-.12,2.41-.55,3.18-1.98,3.18h0Z"/>
    <polygon class="cls-2" points="16.2 19.54 9.85 27.95 21.22 27.95 27.57 19.54 16.2 19.54"/>
    <polygon class="cls-2" points="34.63 27.95 40.99 19.54 29.54 19.54 23.18 27.95 34.63 27.95"/>
    <polygon class="cls-2" points="8.84 29.29 2.47 37.72 13.84 37.72 20.21 29.29 8.84 29.29"/>
    <polygon class="cls-2" points="27.26 37.72 33.62 29.29 22.17 29.29 15.81 37.72 27.26 37.72"/>
    <path class="cls-1" d="M6.37,26.16l-3.01,3.01,1.97,1.97,6.41-8.59c-.83-1.2-1.26-2.64-1.24-4.1-.05-3.95,3.12-7.2,7.07-7.24,3.82-.05,7,2.91,7.23,6.72h10.53v-2.05h-4.25c-.35-1.82-1.06-3.56-2.1-5.1l3.01-3.01-3.65-3.58-3.01,3.01c-1.54-1.04-3.27-1.76-5.1-2.1V.83h-5.14V5.1c-1.83,.34-3.56,1.06-5.1,2.1l-3.01-3.01-3.63,3.63,3.01,3.01c-1.05,1.53-1.76,3.27-2.1,5.1H0v5.14H4.26c.34,1.83,1.05,3.56,2.1,5.1Z"/>
  </g>
</svg>