<?xml version="1.0" encoding="utf-8"?>
<!-- Generator: Adobe Illustrator 27.0.0, SVG Export Plug-In . SVG Version: 6.00 Build 0)  -->
<svg version="1.1" id="圖層_1" xmlns="http://www.w3.org/2000/svg" xmlns:xlink="http://www.w3.org/1999/xlink" x="0px" y="0px"
	 viewBox="0 0 239 27" style="enable-background:new 0 0 239 27;" xml:space="preserve">
<style type="text/css">
	.st0{fill:#0050B4;}
	.st1{fill:url(#SVGID_1_);}
</style>
<g id="圖層_2_00000080914308371244538000000014073628055710565785_">
	<g id="圖層_1-2">
		<polygon class="st0" points="11.9,13.7 7.2,19.8 15.5,19.8 20.2,13.7 		"/>
		<polygon class="st0" points="25.4,19.8 30,13.7 21.6,13.7 17,19.8 		"/>
		<polygon class="st0" points="6.5,20.8 1.8,27 10.1,27 14.8,20.8 		"/>
		<polygon class="st0" points="20,27 24.6,20.8 16.2,20.8 11.6,27 		"/>
		
			<linearGradient id="SVGID_1_" gradientUnits="userSpaceOnUse" x1="6.5234" y1="24.2115" x2="16.0234" y2="7.7515" gradientTransform="matrix(1 0 0 -1 0 25.89)">
			<stop  offset="0" style="stop-color:#00DCC8"/>
			<stop  offset="0.15" style="stop-color:#03D3C9"/>
			<stop  offset="0.39" style="stop-color:#0DBBCB"/>
			<stop  offset="0.7" style="stop-color:#1C93CF"/>
			<stop  offset="0.8" style="stop-color:#2185D0"/>
		</linearGradient>
		<path class="st1" d="M4.7,18.5l-2.2,2.2l1.4,1.4l4.7-6.3C8,15,7.7,14,7.7,12.9c0-2.9,2.3-5.3,5.2-5.3c2.8,0,5.1,2.1,5.3,4.9h7.7
			V11h-3.1c-0.3-1.3-0.8-2.6-1.5-3.7l2.2-2.2l-2.7-2.6l-2.2,2.2c-1.1-0.8-2.4-1.3-3.7-1.5V0h-3.8v3.1C9.7,3.4,8.4,3.9,7.3,4.7
			L5.1,2.5L2.5,5.1l2.2,2.2C3.9,8.4,3.4,9.7,3.1,11H0v3.8h3.1C3.4,16.1,3.9,17.4,4.7,18.5z"/>
	</g>
	<g>
		<path d="M50,9.3h-6.2v1.1h5v2.5H50v1.4h-1.2v2.5h-5v1.1h4.9v4.9h-1.6v-0.7h-7.3v0.6h-1.6v-4.8h4v-1.1h-4.3v-1.4h4.3v-1.1h-5.1
			c-0.1,3.6-0.7,6.3-1.9,8.2l-1.4-1.1c1.1-1.9,1.6-4.4,1.6-7.6v-6h6.5c-0.1-0.2-0.2-0.5-0.4-0.8l1.7-0.4c0.1,0.3,0.3,0.7,0.6,1.2H50
			V9.3z M42.2,12.9v-1.1h-4.3v-1.4h4.3V9.3h-5.1v3.6H42.2z M47.1,20.7v-1.4h-7.3v1.4H47.1z M47.2,12.9v-1.1h-3.4v1.1H47.2z
			 M47.2,15.4v-1.1h-3.4v1.1H47.2z"/>
		<path d="M58.4,19.7c-1.7,1.3-3.4,2.2-5.1,2.7l-1-1.4c2-0.7,3.7-1.5,5-2.5L58.4,19.7z M60.1,8.3c-1,0.6-1.9,1-2.8,1.3
			c0,0.1-0.1,0.2-0.1,0.4c1.3,0.7,2.2,1.3,2.9,1.8l-1,1.2c-0.7-0.5-1.5-1.1-2.6-1.8c-0.7,0.8-1.7,1.4-3.1,1.8l-0.8-1.4
			c0.9-0.2,1.6-0.5,2.1-0.9s0.8-0.8,1-1.4C55.9,8.8,56,8,55.9,6.8h1.5V8c0.6-0.2,1.2-0.5,1.8-0.9L60.1,8.3z M68.1,18.1h-6.9v4.6
			h-1.7v-4.6h-6.9v-1.4h6.9v-1.4h1.6v1.4H68v1.4H68.1z M67.9,16h-1.6v-1.3H54.4V16h-1.6v-2.7h15.1V16z M55.4,9.5l-1.3,0.6
			c-0.2-0.8-0.6-1.6-1.2-2.5L54.2,7C54.6,7.9,55.1,8.7,55.4,9.5z M68,11.8l-0.8,1.3c-0.9-0.6-2-1.2-3.2-1.7
			c-0.6,0.7-1.5,1.2-2.7,1.7l-0.8-1.3c1.3-0.4,2.2-0.9,2.6-1.5c0.4-0.7,0.6-1.8,0.5-3.4H65c0,0.3,0,0.8-0.1,1.4
			c0.6-0.2,1.2-0.5,1.9-1l0.9,1.1c-0.9,0.6-1.9,1.1-3,1.4c-0.1,0.2-0.1,0.4-0.1,0.4C66,10.7,67.1,11.3,68,11.8z M62.8,9.6l-1.3,0.6
			c-0.3-0.9-0.6-1.8-1-2.5l1.3-0.6C62.3,8.1,62.6,8.9,62.8,9.6z M68.3,21.2l-1,1.3c-1.5-1-3.2-1.9-5.1-2.5l1-1.3
			C65.4,19.5,67.1,20.4,68.3,21.2z"/>
		<path d="M76.4,9.7l-1.1,1c-0.6-0.8-1.1-1.4-1.6-1.8c-0.4,0.7-0.9,1.4-1.5,2h3.2v1.5h-1.2v1.4h1.9v1.5h-1.9v4.8
			c0.8-0.2,1.4-0.4,1.7-0.6L76,21c-1.9,0.6-3.7,1.1-5.3,1.4L70.5,21c0.6-0.1,1.3-0.3,2.2-0.5v-5.1h-1.9v-1.5h1.9v-1.4h-1v-0.9
			c-0.2,0.2-0.4,0.4-0.6,0.6l-0.7-1.5c1.1-0.9,2-2.3,2.8-4.2l1.5,0.4c-0.1,0.2-0.2,0.4-0.3,0.7C75,8.2,75.7,8.9,76.4,9.7z M72.2,20
			L71,20.2c0-1.4-0.1-2.7-0.4-3.8l1.2-0.3C72.1,17.3,72.2,18.5,72.2,20z M76.1,16.3c0,1-0.1,2.1-0.3,3.1l-1.1-0.3
			c0.2-1,0.3-2.1,0.3-3.1L76.1,16.3z M86.7,19.4c-0.2,2.2-0.8,3.3-1.8,3.3c-0.7,0-1.2-0.5-1.5-1.4c-0.5,0.6-1,1.2-1.4,1.6L80.8,22
			c0.4-0.3,0.7-0.7,1-1c-1.7,0.5-3.5,1-5.3,1.3L76.2,21c0.9-0.1,1.6-0.3,2.3-0.5v-1.3h-1.8V18h1.8v-0.7c-0.7,0.1-1.3,0.1-1.7,0.1
			l-0.4-1.3c1.9,0,3.6-0.2,5-0.5l0.6,1.1c-0.7,0.2-1.3,0.3-2,0.4V18h1.7v1.2H80V20c0.4-0.1,1-0.2,1.8-0.5v1.2
			c0.3-0.3,0.6-0.7,0.9-1.3c-0.3-2.1-0.5-4.8-0.6-8h-5.8v-1.3h2.2v-1h-1.9V7.9h1.9V6.8H80v1.1h1.6v1.2H80v1.1h2.1
			c0-1.3,0-2.4,0.1-3.4h1.4c0,0.5,0,1,0,1.7s0,1.2,0,1.7h2.8v1.3h-2.8c0,1.9,0.1,3.6,0.3,5.2c0.3-1.1,0.6-2.6,0.7-4.3l1.3,0.2
			c0,0.6-0.1,1.2-0.2,1.8s-0.2,1.2-0.3,1.8c-0.1,0.6-0.3,1.1-0.5,1.7l-0.6,1.7c0,0.2,0.1,0.5,0.2,0.9s0.3,0.6,0.4,0.6
			c0,0,0.1-0.2,0.2-0.5s0.2-0.9,0.3-1.8L86.7,19.4z M81.6,15.3h-4.7v-3h4.7V15.3z M80.2,14.2v-0.8h-1.9v0.8H80.2z M86.3,9.3L85,9.8
			c-0.3-0.8-0.6-1.5-1.1-2.1l1.3-0.4C85.7,8,86.1,8.7,86.3,9.3z"/>
		<path d="M104.7,22.1H88.8v-1.6h7.1V9.1h-6.3V7.4H104v1.7h-6.3v11.3h7.1L104.7,22.1L104.7,22.1z"/>
		<path d="M122.9,9.5h-13.3v5c0,3.6-0.4,6.4-1.3,8.2l-1.3-1.1c0.7-1.5,1-3.5,1-5.9V8.1h6.5c-0.1-0.2-0.3-0.6-0.6-1l1.7-0.5
			c0.2,0.3,0.5,0.7,0.8,1.5h6.5C122.9,8.1,122.9,9.5,122.9,9.5z M112.4,12.6l-1.2,0.7c-0.3-0.8-0.8-1.6-1.3-2.4l1.2-0.7
			C111.7,11.1,112.1,11.9,112.4,12.6z M117,21.2c0,0.5-0.1,0.9-0.3,1.1s-0.5,0.3-0.7,0.4c-0.3,0-0.9,0.1-1.9,0.1l-0.6-1.5
			c0.4,0,0.7,0,0.9,0c0.5,0,0.9,0,1-0.1c0.2-0.1,0.3-0.2,0.3-0.3V15h-4.3v7.8h-1.3v-9.2h2.8V10h1.5v3.5h2.6V21.2z M115,20.4h-2.9
			v-4.7h2.9V20.4z M113.9,19.1V17h-0.6v2.1H113.9z M117.5,10.9c-0.5,1.1-1,1.9-1.5,2.4l-1.3-0.7c0.5-0.7,1-1.4,1.4-2.4L117.5,10.9z
			 M123.1,21.5l-0.9,1.2c-0.7-0.6-1.4-1.3-2-2.1c-0.6,0.8-1.3,1.5-1.9,2.1l-0.9-1.2c0.7-0.6,1.4-1.3,2-2.2c-0.5-1-0.8-1.8-1-2.6
			l1.3-0.7c0.1,0.1,0.2,0.4,0.3,0.8s0.3,0.7,0.4,0.9c0.4-1,0.7-2.4,0.8-4.2H120c-0.5,1.2-0.9,2.1-1.4,2.8l-1-1.1
			c0.7-1.2,1.3-3,1.8-5.3l1.4,0.3c0,0.2-0.2,0.8-0.4,1.8h2.8v1.5h-0.5c-0.2,2.4-0.6,4.3-1.4,5.8C121.5,20.1,122.2,20.8,123.1,21.5z"
			/>
		<path d="M131.3,21.2c0,1-0.6,1.5-1.8,1.5c-0.3,0-0.5,0-0.8,0l-0.6-1.6c0.2,0,0.7,0,1.4,0c0.2,0,0.3-0.1,0.3-0.2v-4.4
			c-0.6,0.7-1.1,1.3-1.5,1.8l-0.5-0.9c-0.2,2.6-0.6,4.4-1.2,5.5l-1.3-1c0.6-1.4,1-3.4,1-6V7.1h5.1L131.3,21.2L131.3,21.2z
			 M129.7,12.4V8.7h-2v2.1l0.9-0.7C129.1,10.9,129.5,11.7,129.7,12.4z M129.7,13.9v-1l-1.1,0.8c-0.2-0.7-0.5-1.5-0.9-2.4v5.1
			C128.5,15.6,129.1,14.7,129.7,13.9z M141.3,21.4l-0.8,1.4c-1.5-0.4-2.9-1.1-4.2-2c-1,0.8-2.3,1.5-3.9,2l-0.9-1.4
			c1.3-0.4,2.5-0.9,3.5-1.7c-0.9-0.9-1.6-2.2-2.2-3.9H132v-1.5h8.1v1.5c-0.8,1.6-1.6,2.9-2.5,3.8C138.6,20.4,139.9,20.9,141.3,21.4z
			 M141.1,13.3h-2.6c-0.4,0-0.6-0.1-0.9-0.4c-0.2-0.3-0.3-0.5-0.3-0.9V8.8h-2.5v0.8c0,1.8-0.6,3.2-1.8,4.3l-1.3-1
			c1-0.7,1.5-1.8,1.5-3.3V7.2h5.7v4.3c0,0.2,0.1,0.3,0.3,0.3h1.9L141.1,13.3L141.1,13.3z M138.3,15.8h-3.7c0.5,1.2,1.1,2.1,1.8,2.8
			C137.2,17.7,137.8,16.8,138.3,15.8z"/>
		<path d="M148.8,7c-0.2,0.6-0.5,1.3-0.9,2.2l-0.6,1.4v12.1h-1.7v-9.3c-0.5,0.7-0.9,1.3-1.4,1.7l-0.9-1.7c1.6-1.8,2.9-4.1,3.8-6.7
			L148.8,7z M159.5,12.2l-1.1,1.5l-0.4-0.3c0,0.7-0.1,2.1-0.2,4.3s-0.3,3.5-0.4,3.8c-0.1,0.4-0.3,0.7-0.7,0.9
			c-0.3,0.2-0.8,0.3-1.5,0.3c-0.4,0-1,0-1.8,0l-0.4-1.6c0.6,0,1.1,0.1,1.4,0.1c0.7,0,1.2-0.1,1.3-0.2s0.3-1.1,0.4-2.8
			c0.1-1.7,0.1-2.9,0.1-3.5h-2.7c-0.2,3.7-1.8,6.5-4.8,8.1l-1.1-1.3c2.6-1.3,4-3.6,4.2-6.8h-2.9v-1.4c-0.1,0.1-0.3,0.2-0.5,0.4
			l-1-1.4c1.5-1.2,2.6-3.1,3.5-5.5l1.7,0.4c-1,2.6-2.2,4.6-3.5,5.9h8.5c-1.3-1.2-2.2-2.8-2.8-4.6h-1.5V7h2.7
			C156.8,9.4,157.9,11.1,159.5,12.2z"/>
		<path d="M177.6,10.1h-8.9c-0.2,0.5-0.6,1-1,1.6h8.5v9.8c0,0.4-0.1,0.7-0.3,0.9c-0.2,0.2-0.5,0.3-1,0.3c-0.4,0-0.9,0-1.3,0
			c-0.7,0-1.2,0-1.7,0l-0.7-1.6c0.8,0,1.8,0.1,3,0.1c0.3,0,0.4-0.1,0.4-0.4V19h-8.1c-0.3,1.3-0.9,2.5-1.9,3.7l-1.5-0.9
			c1.3-1.4,2-2.8,2-4v-2.9c-0.8,0.8-1.6,1.5-2.4,2l-1.2-1.2c2.2-1.5,3.9-3.3,5.3-5.6h-5.1V8.5h5.9c0.4-0.7,0.7-1.3,0.8-1.8l1.7,0.3
			c-0.2,0.5-0.4,1-0.6,1.5h8.1V10.1z M174.7,14.6v-1.4h-7.9v1.4H174.7z M174.7,17.5v-1.4h-7.9v1.4H174.7z"/>
		<path d="M184.5,12.3c1,1.5,1.5,2.8,1.5,4.2c0,1.7-0.8,2.6-2.5,2.6c-0.2,0-0.4,0-0.6,0l-0.5-1.6c0.2,0,0.5,0.1,0.8,0.1
			c0.4,0,0.7-0.1,0.9-0.2s0.2-0.4,0.2-0.7c0-1.3-0.5-2.7-1.6-4.1c0.3-0.8,0.8-2.1,1.3-3.8h-2v14h-1.6V7.1h5.3v1.6
			C185.3,10,184.9,11.2,184.5,12.3z M194.9,14.7h-6.5v5.9c0.8-0.3,1.7-0.6,2.7-1.1l0.1,1.7c-1.6,0.7-3,1.2-4.1,1.5l-0.6-1.4
			c0.2-0.1,0.3-0.4,0.3-0.7V7.1h8.1V14.7z M193.3,10.2V8.6h-4.9v1.6C188.4,10.2,193.3,10.2,193.3,10.2z M193.3,13.3v-1.6h-4.9v1.6
			H193.3z M195.9,21.5l-0.9,1.3c-2.6-1.6-4.3-3.9-5.1-6.9l1.5-0.5c0.2,0.8,0.5,1.5,0.8,2.1c0.8-0.6,1.6-1.3,2.3-2.2l1.2,1.1
			c-0.9,1.1-1.8,1.9-2.6,2.6C193.8,19.9,194.8,20.8,195.9,21.5z"/>
		<path d="M204.9,7.2c-1.2,3.2-3.1,5.9-5.8,8.1l-1-1.4c2.4-1.8,4.2-4.2,5.3-7.3L204.9,7.2z M213,21.8l-1.5,1c-0.3-0.8-0.7-1.5-1-2
			c-2.8,0.7-6.2,1.3-10.3,1.8l-0.5-1.4c1.6-1.1,3.4-4.2,5.5-9.3l1.7,0.5c-1.5,3.5-3,6.2-4.6,8.3c2.7-0.3,5.2-0.7,7.4-1.3
			c-0.4-0.6-1-1.6-1.9-2.8l1.3-0.9C210.7,17.7,212,19.7,213,21.8z M214.2,14l-1,1.4c-2.3-1.6-3.9-3.9-5-7h-1.5V6.9h2.6
			C210.3,10,211.9,12.4,214.2,14z"/>
		<path d="M231.7,20.6c0,1.4-0.7,2.1-2.1,2.1c-1.2,0-2.1,0-2.7,0l-0.5-1.6c1.4,0,2.3,0,2.8,0s0.8-0.2,0.8-0.5v-12h-13.6V7.1h15.3
			V20.6z M228.6,11.7h-11.8v-1.5h11.8V11.7z M227.4,19.5h-9.5v-6.1h9.5V19.5z M225.7,18v-3.1h-6.3V18H225.7z"/>
	</g>
</g>
</svg>
