<?xml version="1.0" encoding="utf-8"?>
<!-- Generator: Adobe Illustrator 27.0.0, SVG Export Plug-In . SVG Version: 6.00 Build 0)  -->
<svg version="1.1" id="圖層_1" xmlns="http://www.w3.org/2000/svg" xmlns:xlink="http://www.w3.org/1999/xlink" x="0px" y="0px"
	 viewBox="0 0 100 30" style="enable-background:new 0 0 100 30;" xml:space="preserve">
<style type="text/css">
	.st0{fill:#084EA1;}
	.st1{fill:url(#SVGID_1_);}
	.st2{fill:#040000;}
</style>
<g id="圖層_2_00000080914308371244538000000014073628055710565785_">
	<g id="圖層_1-2">
		<polygon class="st0" points="12.3,15.5 7.7,21.7 16,21.7 20.6,15.5 		"/>
		<polygon class="st0" points="25.8,21.7 30.5,15.5 22.1,15.5 17.4,21.7 		"/>
		<polygon class="st0" points="6.9,22.7 2.3,28.8 10.6,28.8 15.2,22.7 		"/>
		<polygon class="st0" points="20.4,28.8 25.1,22.7 16.7,22.7 12,28.8 		"/>
		
			<linearGradient id="SVGID_1_" gradientUnits="userSpaceOnUse" x1="6.9296" y1="26.5686" x2="16.4296" y2="10.1086" gradientTransform="matrix(1 0 0 -1 0 30.11)">
			<stop  offset="0" style="stop-color:#4FBCB2"/>
			<stop  offset="0.15" style="stop-color:#41BAB5"/>
			<stop  offset="0.39" style="stop-color:#1EB1BF"/>
			<stop  offset="0.7" style="stop-color:#258BC1"/>
			<stop  offset="0.8" style="stop-color:#267EC2"/>
		</linearGradient>
		<path class="st1" d="M5.1,20.4l-2.2,2.2L4.4,24L9,17.7c-0.6-0.9-0.9-1.9-0.9-3c0-2.9,2.3-5.3,5.2-5.3c2.8,0,5.1,2.1,5.3,4.9h7.7
			v-1.5h-3.1c-0.3-1.3-0.8-2.6-1.5-3.7l2.2-2.2l-2.7-2.6L19,6.5c-1.1-0.8-2.4-1.3-3.7-1.5V1.8h-3.8v3.1c-1.3,0.2-2.6,0.8-3.7,1.5
			L5.6,4.3L2.9,6.9l2.2,2.2c-0.8,1.1-1.3,2.4-1.5,3.7H0.5v3.8h3.1C3.8,18,4.3,19.2,5.1,20.4z"/>
	</g>
	<g>
		<path class="st2" d="M47.3,5.2h-5.9v1.1h4.8v2.4h1.2v1.3h-1.2v2.4h-4.8v1h4.7V18h-1.6v-0.7h-6.9v0.6H36v-4.6h3.8v-1h-4.1V11h4.1
			V9.9H35c-0.1,3.4-0.7,6-1.8,7.8l-1.3-1.1c1-1.8,1.5-4.2,1.5-7.2V3.8h6.1c-0.1-0.2-0.2-0.5-0.4-0.8l1.6-0.4
			c0.1,0.3,0.3,0.7,0.5,1.2h6V5.2z M39.8,8.6v-1h-4.1V6.3h4.1V5.2H35v3.4H39.8z M44.5,16v-1.4h-6.9V16H44.5z M44.6,8.6v-1h-3.2v1
			H44.6z M44.6,11V9.9h-3.2V11H44.6z"/>
		<path class="st2" d="M55.3,15.1c-1.6,1.2-3.2,2.1-4.9,2.6l-0.9-1.3c1.9-0.7,3.5-1.5,4.8-2.4L55.3,15.1z M56.8,4.3
			c-0.9,0.5-1.8,0.9-2.7,1.2c0,0.1-0.1,0.2-0.1,0.3c1.2,0.7,2.1,1.2,2.8,1.7l-0.9,1.1c-0.6-0.5-1.5-1.1-2.5-1.7
			c-0.7,0.8-1.6,1.3-2.9,1.7l-0.8-1.3c0.9-0.2,1.5-0.5,2-0.8c0.5-0.3,0.8-0.8,0.9-1.3c0.2-0.5,0.2-1.4,0.2-2.5l1.5,0L54.4,4
			c0.6-0.2,1.1-0.5,1.7-0.8L56.8,4.3z M64.5,13.6h-6.5v4.4h-1.6v-4.4h-6.6v-1.3h6.6v-1.3h1.6v1.3h6.6V13.6z M64.3,11.6h-1.5v-1.2
			H51.5v1.2h-1.5V9h14.3V11.6z M52.4,5.4l-1.3,0.6c-0.2-0.7-0.6-1.5-1.1-2.4L51.2,3C51.7,3.8,52.1,4.6,52.4,5.4z M64.4,7.6l-0.8,1.2
			c-0.9-0.6-1.9-1.1-3.1-1.6C60,7.8,59.2,8.3,58,8.7l-0.8-1.3c1.3-0.3,2.1-0.8,2.4-1.5c0.4-0.6,0.5-1.7,0.5-3.2h1.5
			c0,0.3,0,0.7-0.1,1.3c0.6-0.2,1.2-0.5,1.8-1l0.8,1.1c-0.8,0.6-1.8,1-2.8,1.4c-0.1,0.2-0.1,0.3-0.1,0.4C62.5,6.5,63.5,7,64.4,7.6z
			 M59.5,5.4L58.2,6c-0.3-0.9-0.6-1.7-1-2.4l1.2-0.5C58.9,4,59.3,4.8,59.5,5.4z M64.7,16.5l-0.9,1.2c-1.4-1-3-1.8-4.8-2.4l0.9-1.2
			C61.9,14.9,63.5,15.7,64.7,16.5z"/>
		<path class="st2" d="M73.1,5.5l-1,1.1c-0.6-0.7-1.2-1.3-1.7-1.8C70,5.4,69.5,6,68.9,6.8h3.2v1.4h-1.3v1.3h2v1.4h-2v4.7
			c0.4-0.1,1.1-0.2,1.9-0.4l0.1,1.4c-1.8,0.5-3.7,0.8-5.6,1.1l-0.3-1.4c0.9-0.1,1.7-0.3,2.4-0.4v-5h-2.1V9.5h2.1V8.2h-1.2V7.6
			c-0.2,0.2-0.4,0.3-0.6,0.5l-0.7-1.3c1.1-0.9,2.1-2.2,3.1-4.1l1.5,0.4c0,0.2-0.1,0.3-0.2,0.5C71.8,4.2,72.5,4.8,73.1,5.5z M69,15.2
			l-1.2,0.3c-0.1-1.1-0.3-2.4-0.6-3.7l1.2-0.3C68.6,12.6,68.8,13.9,69,15.2z M72.8,11.7c-0.1,1.2-0.3,2.3-0.6,3.1l-1.1-0.3
			c0.3-0.9,0.4-2,0.5-3.1L72.8,11.7z M81.7,16.4c0,0.4-0.1,0.8-0.4,1.1c-0.2,0.3-0.9,0.4-1.9,0.4c-0.2,0-0.5,0-0.7,0l-0.3-1.5
			c0.3,0,0.6,0,0.9,0c0.5,0,0.7,0,0.9-0.1c0.1-0.1,0.2-0.2,0.2-0.4V8.7h-2.2v5.3h0.6V9.5h1v5.9h-4.3V9.5h1v4.5h0.6V8.7h-2.2v9.2
			h-1.5V3.2h8.4V16.4z M80.3,7.3V4.6h-5.5v2.7h1.1c-0.2-0.7-0.4-1.3-0.6-2l1.3-0.4c0.3,0.8,0.6,1.6,0.7,2.4h0.5
			c0.3-0.9,0.5-1.7,0.7-2.3l1.3,0.4c-0.2,0.7-0.4,1.4-0.6,2H80.3z"/>
		<path class="st2" d="M89.8,5.6l-1.1,1c-0.6-0.8-1.1-1.3-1.5-1.7c-0.4,0.7-0.8,1.3-1.4,1.9h3v1.4h-1.2v1.3h1.8v1.4h-1.8v4.5
			c0.7-0.2,1.3-0.4,1.7-0.5l0.1,1.4c-1.8,0.6-3.5,1-5,1.3l-0.3-1.4c0.6-0.1,1.3-0.3,2.1-0.5v-4.9h-1.8V9.5h1.8V8.2h-0.9V7.3
			c-0.1,0.2-0.3,0.4-0.6,0.5l-0.7-1.4c1-0.8,1.9-2.1,2.6-4l1.4,0.4c-0.1,0.2-0.2,0.4-0.3,0.7C88.4,4.1,89.1,4.8,89.8,5.6z
			 M85.8,15.3l-1.1,0.2c0-1.4-0.1-2.5-0.4-3.6l1.1-0.3C85.6,12.7,85.7,14,85.8,15.3z M89.4,11.8c0,1-0.1,2-0.3,2.9L88,14.5
			c0.2-1,0.3-2,0.3-2.9L89.4,11.8z M99.6,14.8c-0.2,2.1-0.8,3.2-1.7,3.2c-0.6,0-1.1-0.4-1.4-1.3c-0.5,0.6-0.9,1.1-1.4,1.5L94,17.2
			c0.4-0.3,0.7-0.7,1-1c-1.6,0.5-3.3,0.9-5,1.3l-0.3-1.3c0.8-0.1,1.6-0.3,2.2-0.4v-1.3h-1.8v-1.1h1.8v-0.7c-0.7,0.1-1.2,0.1-1.6,0.1
			l-0.4-1.2c1.8,0,3.4-0.1,4.7-0.5l0.6,1.1c-0.6,0.2-1.3,0.3-1.9,0.3v0.9H95v1.1h-1.7v0.8c0.4-0.1,0.9-0.2,1.7-0.4l0,1.1
			c0.3-0.3,0.6-0.7,0.9-1.2c-0.3-2-0.5-4.6-0.6-7.6h-5.6V6h2.1V5h-1.8V3.8h1.8V2.7h1.5v1.1h1.5V5h-1.5v1h2c0-1.2,0-2.3,0.1-3.2h1.4
			c0,0.4,0,1,0,1.6c0,0.6,0,1.2,0,1.6h2.7v1.3h-2.7c0,1.8,0.1,3.4,0.3,5c0.3-1.1,0.6-2.4,0.7-4.1l1.3,0.2c0,0.6-0.1,1.2-0.2,1.7
			c-0.1,0.6-0.2,1.1-0.3,1.7c-0.1,0.6-0.3,1.1-0.5,1.6L97.3,15c0,0.2,0.1,0.5,0.2,0.9c0.1,0.4,0.3,0.6,0.4,0.6c0,0,0.1-0.2,0.2-0.5
			c0.1-0.3,0.2-0.9,0.3-1.7L99.6,14.8z M94.7,10.8h-4.5V8h4.5V10.8z M93.3,9.8V9h-1.9v0.8H93.3z M99.2,5.2l-1.2,0.4
			c-0.3-0.8-0.6-1.4-1-2l1.3-0.4C98.6,3.9,99,4.5,99.2,5.2z"/>
		<path class="st2" d="M40.4,28.1l-0.5,0.7c-1.8-1.1-3.1-2.7-3.8-4.6c-0.2,0.7-0.6,1.5-1.2,2.2c0.7,0.7,1.3,1.2,1.6,1.6l-0.7,0.6
			c-0.4-0.5-0.9-1-1.4-1.6c-0.6,0.6-1.3,1.2-2.1,1.7L31.7,28c2.2-1.4,3.5-3,3.7-4.9h-3.5v-0.9h3.6c0.1-0.6,0.1-1.3,0.1-2.1h0.9
			c0,0.5,0,1.2-0.1,2.1h3.8v0.9h-3.7c0.2,1,0.7,1.9,1.4,2.8C38.7,26.8,39.5,27.5,40.4,28.1z"/>
		<path class="st2" d="M44.5,21.2c0,0-0.1,0.2-0.3,0.6c-0.2,0.4-0.3,0.7-0.5,1.1c0.5,0.6,0.8,1.2,0.8,1.9c0,0.3-0.1,0.6-0.2,0.7
			c-0.1,0.2-0.3,0.3-0.4,0.4c-0.2,0.1-0.5,0.1-0.8,0.1l-0.2-0.8c0.1,0,0.2,0,0.3,0c0.2,0,0.3,0,0.4-0.1c0.1-0.1,0.1-0.2,0.1-0.4
			c0-0.6-0.3-1.2-0.9-1.7c0.4-0.6,0.6-1.2,0.8-1.7h-0.9v7.6h-0.8v-8.4h2.7V21.2z M50.1,24.6h-3.3c-0.1,0.2-0.2,0.3-0.3,0.4H50
			c-0.1,2-0.2,3.1-0.4,3.4c-0.2,0.2-0.6,0.4-1.2,0.4c-0.2,0-0.4,0-0.7,0l-0.3-0.8c0.3,0,0.5,0,0.7,0c0.4,0,0.6,0,0.7-0.1
			c0.1-0.1,0.1-0.4,0.2-0.9c0-0.5,0.1-0.9,0.1-1.3h-0.3c-0.5,1.2-1.5,2.2-2.9,3l-0.6-0.6c1.3-0.6,2.2-1.4,2.7-2.4h-0.5
			c-0.6,1-1.6,1.8-2.8,2.3L44,27.4c1.1-0.4,1.9-1,2.4-1.7h-0.6c-0.5,0.4-1,0.8-1.6,1.1l-0.5-0.7c1-0.5,1.7-1,2.1-1.6h-1.1v-0.8h5.4
			V24.6z M49.7,23.4h-4.6v-3h4.6V23.4z M48.8,21.5v-0.5h-2.9v0.5H48.8z M48.8,22.7v-0.5h-2.9v0.5H48.8z"/>
		<path class="st2" d="M55.5,28c0,0.2,0,0.3-0.1,0.5c-0.1,0.1-0.2,0.2-0.3,0.2c-0.1,0-0.3,0.1-0.7,0.1c-0.1,0-0.3,0-0.6,0l-0.2-0.8
			c0.2,0,0.3,0,0.5,0c0.3,0,0.4,0,0.5,0s0.1-0.1,0.1-0.1v-1.1c-1.1,0.5-1.7,0.7-1.8,0.7L52.6,27c-0.1,0.7-0.3,1.3-0.6,1.7l-0.7-0.6
			c0.3-0.5,0.5-1.4,0.5-2.6v-2.1h3.7V28z M56.1,22.6l-0.7,0.5c-0.1-0.2-0.2-0.4-0.3-0.5c-1,0.2-2.2,0.3-3.4,0.4l-0.2-0.7
			c0.7-0.6,1.2-1.4,1.6-2.2l0.8,0.3c-0.4,0.7-0.8,1.3-1.2,1.7c0.5,0,1.1-0.1,1.9-0.2c-0.2-0.3-0.4-0.5-0.7-0.7l0.7-0.5
			C55.2,21.3,55.7,21.9,56.1,22.6z M54.6,25.9v-1.6h-1.9v0.5c0.6,0.1,1.2,0.2,1.7,0.4l-0.3,0.7c-0.3-0.1-0.7-0.2-1.4-0.3
			c0,0.4,0,0.7,0,1.1C53.1,26.6,53.7,26.3,54.6,25.9z M59.9,27c0,0.7-0.1,1.1-0.2,1.2c-0.1,0.2-0.2,0.3-0.4,0.3
			c-0.1,0.1-0.6,0.1-1.5,0.1c-0.6,0-1,0-1.2-0.1c-0.2-0.1-0.3-0.2-0.4-0.3c-0.1-0.1-0.1-0.3-0.1-0.5v-3.4h0.9v1.3h2.5v0.8h-2.5v1.3
			c0,0.1,0.1,0.2,0.2,0.2h1.4c0.1,0,0.2-0.1,0.3-0.2c0.1-0.1,0.1-0.4,0.1-0.9L59.9,27z M59.8,24h-2.7c-0.3,0-0.5-0.1-0.6-0.2
			c-0.2-0.2-0.2-0.4-0.2-0.6v-2.9h0.9v1.1h2.5v0.8h-2.5v1c0,0,0,0.1,0.1,0.1c0,0,0.1,0.1,0.1,0.1h2.5V24z"/>
		<path class="st2" d="M69.5,23.7h-0.8v-1.6h-2.9V24h-0.8v-1.9h-2.8v1.6h-0.8v-2.3h3.6v-0.4h-3.2v-0.7h7.4v0.7h-3.4v0.4h3.8V23.7z
			 M69.7,27.6c-0.1,0.3-0.1,0.6-0.3,0.7c-0.1,0.2-0.3,0.3-0.4,0.3c-0.1,0-0.7,0.1-1.8,0.1c-0.9,0-1.4,0-1.7,0
			c-0.2,0-0.4-0.1-0.5-0.3c-0.1-0.1-0.2-0.3-0.2-0.6v-0.5h-3.1v-3h7.1v3h-3.1v0.3c0,0.1,0.1,0.2,0.2,0.3c0.1,0,0.7,0.1,1.7,0.1
			c0.4,0,0.7,0,0.8,0c0.1,0,0.2,0,0.2-0.1c0.1-0.1,0.1-0.2,0.1-0.3L69.7,27.6z M64.7,23.8c-0.6,0.1-1.3,0.2-2.1,0.2l-0.2-0.6
			c0.6,0,1.4-0.1,2.1-0.2L64.7,23.8z M64.6,22.5l-0.2,0.6c-0.7-0.1-1.3-0.1-2-0.1l0.2-0.5C63.2,22.4,63.9,22.4,64.6,22.5z
			 M64.9,25.5v-0.5h-2.3v0.5H64.9z M64.9,26.6v-0.6h-2.3v0.6H64.9z M68,25.5v-0.5h-2.3v0.5H68z M68,26.6v-0.6h-2.3v0.6H68z
			 M68.4,22.8C67.8,22.9,67,23,66.2,23L66,22.5c0.6,0,1.3-0.1,2.1-0.2L68.4,22.8z M68.4,23.5L68.2,24c-0.8-0.1-1.5-0.2-2.2-0.2
			l0.2-0.6C66.8,23.3,67.5,23.4,68.4,23.5z"/>
		<path class="st2" d="M79,21.9c0,1.7,0,3.2-0.1,4.2c-0.1,1.1-0.2,1.7-0.3,2c-0.1,0.3-0.3,0.4-0.5,0.5c-0.2,0.1-0.7,0.2-1.4,0.2
			c-0.2,0-0.4,0-0.7,0l-0.3-0.9c0.3,0,0.9,0,1.6,0c0.1,0,0.2,0,0.3-0.1c0.1-0.1,0.2-0.2,0.2-0.3c0-0.1,0.1-0.5,0.1-1.1
			c0.1-0.6,0.1-1.3,0.1-1.9l0.1-1.8h-2.8c-0.1,1.5-0.4,2.8-1,3.7s-1.5,1.7-2.7,2.4L71,28c0.9-0.4,1.7-1,2.3-1.8
			c0.6-0.8,1-1.9,1.1-3.5h-3.1v-0.8h3.2c0-0.5,0.1-1.1,0-1.7h0.9c0,0.5,0,1-0.1,1.7H79z"/>
		<path class="st2" d="M84,26.8c-0.8,0.6-1.7,1.2-2.7,1.5l-0.5-0.7c0.9-0.3,1.8-0.8,2.6-1.4L84,26.8z M89.2,25.8l-0.7,0.5
			c-0.2-0.3-0.4-0.6-0.5-0.7c-0.9,0.1-1.7,0.2-2.4,0.2v2c0,0.3-0.1,0.5-0.2,0.6c-0.2,0.2-0.7,0.2-1.6,0.2l-0.3-0.9c0.4,0,0.7,0,1,0
			c0.2,0,0.3-0.1,0.3-0.3V26c-1.3,0.1-2.3,0.1-3,0.1l-0.2-0.8c0.8-0.2,1.8-0.6,2.9-1.2c-1.1,0.1-2,0.1-2.4,0.1l-0.1-0.6
			c1.3-0.4,2.5-1.1,3.6-2l0.8,0.5c-0.6,0.6-1.4,1.1-2.4,1.5l0.8,0l1.2-0.1c0.1,0,0.3-0.1,0.7-0.4l0.7-0.5l0.8,0.5
			c-1.5,1.1-3,1.9-4.3,2.3c1.1,0,2.4-0.2,3.8-0.3c-0.2-0.2-0.4-0.4-0.6-0.6l0.8-0.4C88.2,24.6,88.8,25.2,89.2,25.8z M86.2,20.6
			c-1,0.8-2.4,1.4-4.1,1.9l-0.5-0.7c1.6-0.3,2.9-0.9,3.9-1.6L86.2,20.6z M89.4,27.7l-0.6,0.7c-0.7-0.6-1.5-1.1-2.6-1.6l0.6-0.6
			C87.9,26.7,88.7,27.2,89.4,27.7z"/>
		<path class="st2" d="M91.8,26.4c-0.1,1-0.3,1.8-0.6,2.4l-0.7-0.3c0.3-0.6,0.5-1.3,0.6-2.2L91.8,26.4z M94.1,25.8l-0.8,0.3
			c0,0,0-0.2-0.1-0.5c-0.9,0.3-1.7,0.4-2.6,0.6l-0.1-0.7c0.6-0.5,1.2-1.1,1.8-2c-0.5,0.1-1,0.1-1.5,0.2l-0.1-0.6
			c0.7-0.8,1.3-1.8,1.7-2.9l0.8,0.3c-0.4,1-0.9,1.8-1.4,2.4c0.3,0,0.6-0.1,0.9-0.1c0.2-0.3,0.4-0.6,0.5-0.9l0.8,0.4
			c-0.7,1.2-1.4,2.2-2.1,2.9c0.4-0.1,0.8-0.2,1.1-0.3c-0.1-0.2-0.1-0.3-0.2-0.4l0.7-0.3C93.8,24.7,94,25.3,94.1,25.8z M93,28.4
			l-0.7,0.2c0-0.6-0.1-1.3-0.2-2.1l0.7-0.2C92.9,27.1,93,27.8,93,28.4z M94.2,27.6l-0.7,0.3c-0.1-0.6-0.2-1-0.4-1.4l0.6-0.2
			C94,26.6,94.1,27,94.2,27.6z M99.2,26.4c-0.1,1-0.1,1.6-0.2,1.7c-0.1,0.1-0.2,0.2-0.3,0.4c-0.1,0.1-0.5,0.2-1,0.2
			c-0.4,0-0.7-0.1-0.9-0.2c-0.1-0.1-0.2-0.4-0.2-0.8v-3.3c-0.3,0.1-0.6,0.1-0.7,0.1c0,0.7,0,1.3-0.1,1.8c-0.1,0.5-0.2,0.9-0.5,1.4
			c-0.3,0.5-0.6,0.8-1,1.2l-0.6-0.6c0.3-0.2,0.5-0.5,0.8-0.8c0.2-0.3,0.4-0.7,0.5-1.1s0.1-1,0.1-1.8l-0.9,0.1L94,24
			c0.6-0.7,1-1.4,1.4-2.1h-1.4v-0.8h1.8c0.1-0.2,0.2-0.5,0.3-0.9l0.9,0.1c-0.1,0.3-0.2,0.6-0.3,0.8h2.4v0.8h-2.8
			c-0.3,0.6-0.7,1.3-1.1,1.9c0.8-0.1,1.6-0.1,2.3-0.3c-0.1-0.2-0.3-0.4-0.5-0.6l0.7-0.5c0.7,0.8,1.2,1.5,1.4,2l-0.7,0.5
			c-0.2-0.3-0.3-0.6-0.5-0.8l-0.5,0.1v3.4c0,0.2,0.1,0.2,0.4,0.2c0.2,0,0.4-0.1,0.4-0.3c0.1-0.2,0.1-0.7,0.1-1.5L99.2,26.4z"/>
	</g>
</g>
</svg>
