<svg xmlns="http://www.w3.org/2000/svg" viewBox="0 0 98.93 114.23"><defs><style>.cls-1,.cls-3{fill:#eaece3;}.cls-2{fill:#4d4d4d;}.cls-3{stroke:#4d4d4d;stroke-linecap:round;stroke-linejoin:round;stroke-width:4px;}.cls-4{fill:#999;}.cls-5{fill:#e83a37;}</style></defs><g id="圖層_2" data-name="圖層 2"><g id="圖層_1-2" data-name="圖層 1"><rect class="cls-1" x="19.3" y="76.12" width="60.69" height="38.1" rx="2.35"/><rect class="cls-2" x="25.66" y="81.38" width="47.61" height="22.43" rx="2.18"/><rect class="cls-2" y="39.82" width="9.78" height="7.97" rx="1.06"/><rect class="cls-2" x="89.15" y="39.82" width="9.78" height="7.97" rx="1.06"/><rect class="cls-3" x="9.78" y="2" width="79.38" height="79.38" rx="4.65"/><rect class="cls-4" x="21.69" y="21.49" width="55.54" height="12.62" rx="2"/><path class="cls-5" d="M69.3,21.49h5.93a2,2,0,0,1,2,2v8.62a2,2,0,0,1-2,2H69.3a0,0,0,0,1,0,0V21.49A0,0,0,0,1,69.3,21.49Z"/><rect class="cls-2" x="29.63" y="21.49" width="7.93" height="12.62"/><rect class="cls-2" x="45.5" y="21.49" width="7.93" height="12.62"/><rect class="cls-2" x="61.37" y="21.49" width="7.93" height="12.62"/><circle class="cls-4" cx="28.45" cy="56.19" r="3.38"/><circle class="cls-5" cx="42.46" cy="56.19" r="3.38"/><circle class="cls-5" cx="56.47" cy="56.19" r="3.38"/><circle class="cls-4" cx="70.48" cy="56.19" r="3.38"/><rect class="cls-1" x="32.89" y="87.56" width="3.53" height="11.27" rx="1.65"/><rect class="cls-1" x="42.88" y="87.56" width="3.53" height="11.27" rx="1.65"/><rect class="cls-1" x="52.88" y="87.56" width="3.53" height="11.27" rx="1.65"/><rect class="cls-1" x="62.87" y="87.56" width="3.53" height="11.27" rx="1.65"/></g></g></svg>