<?xml version="1.0" encoding="utf-8"?>
<!-- Generator: Adobe Illustrator 27.0.0, SVG Export Plug-In . SVG Version: 6.00 Build 0)  -->
<svg version="1.1" id="_圖層_1" xmlns="http://www.w3.org/2000/svg" xmlns:xlink="http://www.w3.org/1999/xlink" x="0px" y="0px"
	 viewBox="0 0 73 434.5" style="enable-background:new 0 0 73 434.5;" xml:space="preserve">
<style type="text/css">
	.st0{fill:#686868;stroke:#040000;stroke-width:4;stroke-miterlimit:10;}
	.st1{fill:#F4C43A;}
	.st2{fill:none;stroke:#F0AA3F;stroke-width:3;stroke-linecap:round;stroke-linejoin:round;}
	.st3{fill:#4D4D4D;}
	.st4{fill:#CBCBCB;}
	.st5{fill:#325CA1;stroke:#CBCBCB;stroke-width:2;stroke-linecap:round;stroke-linejoin:round;}
	.st6{fill:#E8EAE1;}
	.st7{fill:#E8EAE1;stroke:#4D4D4D;stroke-width:4;stroke-linecap:round;stroke-linejoin:round;}
	.st8{fill:#989898;}
	.st9{fill:#DA3B37;}
	.st10{fill:none;stroke:#F4F6FA;stroke-width:2;stroke-linecap:round;stroke-linejoin:round;stroke-miterlimit:10;}
	.st11{fill:#231815;}
	.st12{fill:none;stroke:#F4F6FA;stroke-width:3;stroke-linecap:round;stroke-linejoin:round;stroke-miterlimit:10;}
	.st13{fill:#BCDCF3;}
	.st14{clip-path:url(#SVGID_00000148638175803361994340000014624241019317533582_);}
	.st15{fill:#9ED0F0;}
	.st16{fill:#DC2525;}
	.st17{fill:#4A9DD7;}
	.st18{fill:none;stroke:#F4C43A;stroke-width:4;stroke-linecap:round;stroke-linejoin:round;}
	.st19{fill:none;stroke:#F4F6FA;stroke-width:2;stroke-linejoin:round;stroke-miterlimit:10;}
	.st20{fill:#FFCC33;stroke:#FFCC33;stroke-width:2.89;stroke-linecap:round;stroke-linejoin:round;}
	.st21{fill:#FFCC33;stroke:#FFCC33;stroke-width:3;stroke-linecap:round;stroke-linejoin:round;}
</style>
<line class="st0" x1="38.8" y1="397.9" x2="35.9" y2="65"/>
<g id="_圖層_2">
	<g id="_圖層_1-2">
		<ellipse class="st1" cx="37.4" cy="17.8" rx="10.2" ry="10"/>
		<line class="st2" x1="37.4" y1="4.7" x2="37.4" y2="1.5"/>
		<line class="st2" x1="27.8" y1="8.5" x2="25.5" y2="6.3"/>
		<line class="st2" x1="23.8" y1="17.8" x2="20.6" y2="17.8"/>
		<line class="st2" x1="27.8" y1="27.2" x2="25.5" y2="29.4"/>
		<line class="st2" x1="37.4" y1="31" x2="37.4" y2="34.2"/>
		<line class="st2" x1="46.9" y1="27.2" x2="49.2" y2="29.4"/>
		<line class="st2" x1="50.9" y1="17.8" x2="54.1" y2="17.8"/>
		<line class="st2" x1="46.9" y1="8.5" x2="49.2" y2="6.3"/>
		<rect x="33.9" y="73.9" class="st3" width="7" height="9"/>
		<path class="st4" d="M47.9,83.1v3.2c0,0.3-0.2,0.5-0.5,0.5h-20c-0.3,0-0.5-0.2-0.5-0.5v-3.2c0-0.3,0.2-0.5,0.5-0.5h20
			C47.6,82.6,47.9,82.8,47.9,83.1z"/>
		<polygon class="st5" points="7.2,39 27.3,39 26.8,49.6 5.6,49.6 		"/>
		<polygon class="st5" points="27.3,39 47.4,39 47.9,49.6 26.8,49.6 		"/>
		<polygon class="st5" points="47.4,39 67.5,39 69.1,49.6 47.9,49.6 		"/>
		<polygon class="st5" points="5.6,49.6 26.8,49.6 26.2,61.4 3.8,61.4 		"/>
		<polygon class="st5" points="26.8,49.6 47.9,49.6 48.5,61.4 26.2,61.4 		"/>
		<polygon class="st5" points="47.9,49.6 69.1,49.6 70.9,61.4 48.5,61.4 		"/>
		<polygon class="st5" points="3.8,61.4 26.2,61.4 25.5,74.6 1.9,74.6 		"/>
		<polygon class="st5" points="26.2,61.4 48.5,61.4 49.2,74.6 25.5,74.6 		"/>
		<polygon class="st5" points="48.5,61.4 70.9,61.4 72.9,74.6 49.2,74.6 		"/>
	</g>
</g>
<g>
	<g id="_圖層_2-2">
		<g id="_圖層_1-2-2">
			<path class="st6" d="M25.7,196.8h23.4c0.5,0,1,0.4,1,1v14c0,0.5-0.4,1-1,1H25.7c-0.5,0-1-0.4-1-1v-14
				C24.7,197.3,25.2,196.8,25.7,196.8z"/>
			<path class="st3" d="M28.3,199h18.1c0.5,0,0.9,0.4,0.9,0.9v7.6c0,0.5-0.4,0.9-0.9,0.9H28.3c-0.5,0-0.9-0.4-0.9-0.9v-7.6
				C27.4,199.4,27.8,199,28.3,199z"/>
			<path class="st3" d="M17.1,181.6h3.2c0.2,0,0.4,0.2,0.4,0.4v2.5c0,0.2-0.2,0.4-0.4,0.4h-3.2c-0.2,0-0.4-0.2-0.4-0.4v-2.5
				C16.7,181.8,16.9,181.6,17.1,181.6z"/>
			<path class="st3" d="M54.4,181.6h3.2c0.2,0,0.4,0.2,0.4,0.4v2.5c0,0.2-0.2,0.4-0.4,0.4h-3.2c-0.2,0-0.4-0.2-0.4-0.4v-2.5
				C54,181.8,54.2,181.6,54.4,181.6z"/>
			<path class="st7" d="M22.7,165.8H52c1.1,0,2,0.9,2,1.9v29.3c0,1.1-0.9,1.9-2,1.9H22.7c-1.1,0-2-0.9-2-1.9v-29.3
				C20.8,166.7,21.6,165.8,22.7,165.8z"/>
			<path class="st8" d="M26.6,174h21.6c0.5,0,0.8,0.4,0.8,0.8v3.6c0,0.5-0.4,0.8-0.8,0.8H26.6c-0.5,0-0.8-0.4-0.8-0.8v-3.6
				C25.7,174.3,26.1,174,26.6,174z"/>
			<path class="st9" d="M45.7,174h2.5c0.5,0,0.8,0.4,0.8,0.8v3.6c0,0.5-0.4,0.8-0.8,0.8h-2.5V174L45.7,174L45.7,174z"/>
			<rect x="29.1" y="174" class="st3" width="3.3" height="5.3"/>
			<rect x="35.7" y="174" class="st3" width="3.3" height="5.3"/>
			<rect x="42.3" y="174" class="st3" width="3.3" height="5.3"/>
			<circle class="st8" cx="28.6" cy="188.5" r="1.4"/>
			<circle class="st9" cx="34.4" cy="188.5" r="1.4"/>
			<circle class="st9" cx="40.3" cy="188.5" r="1.4"/>
			<circle class="st8" cx="46.2" cy="188.5" r="1.4"/>
			<path class="st6" d="M31.1,201.6L31.1,201.6c0.5,0,0.8,0.3,0.8,0.7v3.3c0,0.4-0.3,0.7-0.7,0.7h-0.1c-0.4,0-0.7-0.3-0.7-0.7v-3.3
				C30.4,201.9,30.7,201.6,31.1,201.6z"/>
			<path class="st6" d="M35.3,201.6h0.1c0.4,0,0.7,0.3,0.7,0.7v3.3c0,0.4-0.3,0.7-0.7,0.7h-0.1c-0.4,0-0.7-0.3-0.7-0.7v-3.3
				C34.6,201.9,34.9,201.6,35.3,201.6z"/>
			<path class="st6" d="M39.5,201.6h0.1c0.4,0,0.7,0.3,0.7,0.7v3.3c0,0.4-0.3,0.7-0.7,0.7h-0.1c-0.4,0-0.7-0.3-0.7-0.7v-3.3
				C38.8,201.9,39.1,201.6,39.5,201.6z"/>
			<path class="st6" d="M43.7,201.6h0.1c0.4,0,0.7,0.3,0.7,0.7v3.3c0,0.4-0.3,0.7-0.7,0.7h-0.1c-0.4,0-0.7-0.3-0.7-0.7v-3.3
				C43,201.9,43.3,201.6,43.7,201.6z"/>
		</g>
	</g>
	<g>
		<path class="st10" d="M33.1,150.3h-0.6v-1.9h-3.9v2.2h-0.5v-2.2h-3.6v1.9H24v-2.4h4.2V147h-3.8v-0.5h8.4v0.5h-4v0.8h4.4V150.3z
			 M33.5,154.6c0,0.5-0.2,0.8-0.3,1s-0.5,0.3-0.9,0.3c-0.5,0-1,0-1.5,0c-0.5,0-1,0-1.4,0c-0.4,0-0.7-0.1-0.9-0.2s-0.2-0.4-0.2-0.7
			v-0.8h-3.5V151h7.6v3.1h-3.5v0.9c0,0.1,0,0.2,0.1,0.2c0.1,0,0.3,0.1,0.7,0.1c0.4,0,0.9,0,1.4,0c0.9,0,1.4,0,1.5-0.1
			c0.2,0,0.3-0.1,0.3-0.3c0.1-0.2,0.1-0.4,0.1-0.7L33.5,154.6L33.5,154.6z M27.7,150.2c-0.9,0.2-1.7,0.4-2.5,0.4l-0.2-0.5
			c0.8,0,1.6-0.1,2.5-0.3L27.7,150.2z M27.7,149.1l-0.2,0.5c-0.6-0.1-1.4-0.3-2.4-0.3l0.2-0.5C26.3,148.8,27.1,148.9,27.7,149.1z
			 M28.2,152.3v-0.8h-2.9v0.8H28.2z M28.2,153.6v-0.8h-2.9v0.8H28.2z M31.7,152.3v-0.8h-2.9v0.8H31.7z M31.7,153.6v-0.8h-2.9v0.8
			H31.7z M32,150.2l-0.2,0.5c-0.8-0.2-1.6-0.4-2.6-0.4l0.2-0.4C30.6,149.9,31.4,150,32,150.2L32,150.2z M32,149.2
			c-0.9,0.2-1.8,0.3-2.5,0.3l-0.2-0.4c0.8-0.1,1.6-0.2,2.5-0.3L32,149.2L32,149.2z"/>
		<path class="st10" d="M38.7,148.3l-0.4,0.4c-0.3-0.5-0.8-1-1.4-1.5c-0.3,0.6-0.8,1.2-1.3,1.8h2.6v0.5H37v1.2h1.3v0.5H37v3.4
			c0.4-0.1,0.8-0.2,1.4-0.4l0,0.5c-1.2,0.3-2.4,0.6-3.6,0.9l-0.1-0.5l1.8-0.3v-3.6H35v-0.5h1.5v-1.2h-0.9V149l-0.5,0.5l-0.3-0.5
			c0.9-0.9,1.6-1.8,2.1-2.9l0.5,0.2c0,0.1-0.1,0.2-0.1,0.3C37.7,147.2,38.3,147.7,38.7,148.3L38.7,148.3z M36,154.2l-0.5,0.1
			c-0.1-0.6-0.2-1.4-0.5-2.2l0.5-0.1C35.8,152.9,36,153.6,36,154.2L36,154.2z M38.5,152.1c-0.1,0.7-0.3,1.4-0.5,2l-0.5-0.2
			c0.2-0.6,0.4-1.3,0.5-1.9L38.5,152.1L38.5,152.1z M44.4,151.1h-3.1c-0.2,0.5-0.5,1-1,1.6v2.5c0.5-0.2,1.1-0.4,1.7-0.6l0.1,0.6
			c-1,0.4-1.7,0.7-2.3,0.9l-0.2-0.5c0.1-0.1,0.2-0.2,0.2-0.4v-1.8c-0.4,0.4-0.7,0.6-0.9,0.7l-0.4-0.4c1-0.7,1.7-1.6,2.2-2.5h-1.8
			v-0.5h2.4v-1.2h-2v-0.5h2v-1.1H39v-0.5h2.2v-0.9h0.5v0.9h2.5v0.5h-2.5v1.1h2.2v0.5h-2.2v1.2h2.6L44.4,151.1L44.4,151.1z
			 M44.5,155.5l-0.4,0.5c-1.5-1-2.4-2.4-2.6-4l0.5-0.1c0,0.4,0.2,0.9,0.3,1.4c0.6-0.5,1.1-0.9,1.4-1.3l0.4,0.4
			c-0.3,0.5-0.9,1-1.6,1.5C43,154.3,43.6,154.9,44.5,155.5L44.5,155.5z"/>
		<path class="st10" d="M50.7,155.3h-4.7v-0.8h1.9V148l-1.9,0.6v-0.9l2.8-0.9v7.7h1.9L50.7,155.3L50.7,155.3z"/>
	</g>
	<g>
		<path class="st10" d="M22.2,139.2H11.8v-0.4h1.9v-6.7h2.4c0.1-0.3,0.3-0.7,0.5-1.3H12v-0.4h4.9c0.2-0.6,0.3-1,0.4-1.3l0.5,0.1
			l-0.3,1.2h4.7v0.4h-4.9l-0.5,1.3h3.6v6.7h1.9V139.2L22.2,139.2z M19.8,133.8v-1.2h-5.6v1.2H19.8z M19.8,135.5v-1.2h-5.6v1.2H19.8z
			 M19.8,137.2v-1.2h-5.6v1.2H19.8z M19.8,138.8v-1.2h-5.6v1.2H19.8z"/>
		<path class="st10" d="M26.1,135.5c-0.5,1.3-1.1,2.7-2,4.2l-0.4-0.3c0.9-1.3,1.5-2.7,2-4.2L26.1,135.5z M26.1,133.9l-0.3,0.4
			c-0.8-0.7-1.4-1.2-2-1.6l0.3-0.4C24.6,132.7,25.3,133.2,26.1,133.9L26.1,133.9z M26.3,130.8l-0.3,0.4c-0.6-0.6-1.2-1.2-1.9-1.7
			l0.3-0.4C25,129.6,25.6,130.2,26.3,130.8L26.3,130.8z M28,136.1c0,1.5-0.6,2.6-1.9,3.5l-0.4-0.3c1.2-0.8,1.8-1.8,1.8-3.2v-1.4H28
			L28,136.1L28,136.1z M34.2,134.1l-0.4,0.3c-0.2-0.3-0.4-0.6-0.7-1c-2,0.3-4.1,0.4-6.2,0.6l-0.1-0.4c1.1-0.9,2-1.8,2.6-2.9h-2.7
			v-0.4h3c0.2-0.4,0.4-0.8,0.6-1.3l0.5,0.2c-0.1,0.4-0.3,0.8-0.5,1.1h4v0.4h-4.2c-0.6,1.1-1.4,2-2.4,2.8c1.5-0.1,3.3-0.2,5.3-0.5
			c-0.5-0.5-0.9-0.9-1.3-1.3l0.3-0.3C32.7,132.3,33.5,133.2,34.2,134.1L34.2,134.1z M30.2,139.6h-0.5v-5h0.5V139.6z M34.3,139.6
			h-1.8c-0.4,0-0.7-0.2-0.7-0.7v-4.3h0.5v4.3c0,0.1,0.1,0.2,0.2,0.2h1.8C34.3,139.1,34.3,139.6,34.3,139.6z"/>
		<path class="st10" d="M46,133.4h-0.5v-2.1h-4.2v2.5h-0.5v-2.5h-4.2v2.1h-0.5v-2.6h4.7v-1h-4.3v-0.4h9.1v0.4h-4.3v1H46L46,133.4
			L46,133.4z M46.3,138c0,0.5-0.1,0.9-0.3,1.1s-0.5,0.4-0.9,0.4s-1,0.1-1.8,0.1c-1.2,0-1.9-0.1-2.2-0.1s-0.4-0.4-0.4-0.8v-0.9h-3.8
			v-3.4h8.2v3.4h-3.8v1c0,0.1,0,0.2,0.1,0.3s0.3,0.1,0.7,0.1s0.8,0,1.4,0c1,0,1.7,0,2-0.1s0.4-0.5,0.5-1.2
			C45.9,137.8,46.3,138,46.3,138z M40.1,133.3c-1,0.2-2,0.4-2.8,0.5l-0.1-0.4c0.9-0.1,1.8-0.2,2.8-0.5L40.1,133.3L40.1,133.3z
			 M40.1,132.2l-0.2,0.4c-0.8-0.2-1.7-0.3-2.7-0.4l0.2-0.4C38.4,131.9,39.3,132,40.1,132.2L40.1,132.2z M40.8,135.8v-1.1h-3.4v1.1
			H40.8z M40.8,137.3v-1.1h-3.4v1.1H40.8z M44.6,135.8v-1.1h-3.4v1.1H44.6z M44.6,137.3v-1.1h-3.4v1.1H44.6z M44.9,133.5l-0.2,0.4
			c-1-0.2-1.9-0.4-2.9-0.5L42,133C43.1,133.1,44.1,133.2,44.9,133.5z M44.8,132.2c-1.1,0.2-2,0.4-2.8,0.4l-0.1-0.4
			c0.8-0.1,1.7-0.2,2.8-0.4L44.8,132.2z"/>
		<path class="st10" d="M48.2,139v-9.1h2.3c1.5,0,2.7,0.4,3.4,1.1s1.2,1.9,1.2,3.3c0,0.9-0.2,1.7-0.6,2.5s-0.9,1.3-1.7,1.6
			s-1.6,0.6-2.5,0.6H48.2L48.2,139z M48.8,130.5v7.9h1.4c1.3,0,2.4-0.4,3.1-1.1s1.1-1.7,1.1-3c0-2.6-1.3-3.8-4-3.8H48.8L48.8,130.5z
			"/>
		<path class="st10" d="M62.9,138.7c-0.7,0.3-1.5,0.5-2.3,0.5s-1.6-0.2-2.2-0.6s-1.1-0.9-1.5-1.6s-0.5-1.5-0.5-2.3
			c0-0.9,0.2-1.8,0.6-2.5s0.9-1.3,1.6-1.7s1.5-0.6,2.3-0.6c0.7,0,1.4,0.1,2,0.3v0.7c-0.6-0.3-1.3-0.4-2-0.4c-0.8,0-1.4,0.2-2,0.5
			s-1,0.9-1.3,1.5s-0.5,1.4-0.5,2.2s0.2,1.5,0.5,2.1s0.7,1.1,1.3,1.4s1.2,0.5,1.9,0.5c0.8,0,1.6-0.2,2.2-0.5L62.9,138.7L62.9,138.7z
			"/>
	</g>
	<g>
		<path d="M22.2,139.2H11.8v-0.4h1.9v-6.7h2.4c0.1-0.3,0.3-0.7,0.5-1.3H12v-0.4h4.9c0.2-0.6,0.3-1,0.4-1.3l0.5,0.1l-0.3,1.2h4.7v0.4
			h-4.9l-0.5,1.3h3.6v6.7h1.9V139.2L22.2,139.2z M19.8,133.8v-1.2h-5.6v1.2H19.8z M19.8,135.5v-1.2h-5.6v1.2H19.8z M19.8,137.2v-1.2
			h-5.6v1.2H19.8z M19.8,138.8v-1.2h-5.6v1.2H19.8z"/>
		<path d="M26.1,135.5c-0.5,1.3-1.1,2.7-2,4.2l-0.4-0.3c0.9-1.3,1.5-2.7,2-4.2L26.1,135.5z M26.1,133.9l-0.3,0.4
			c-0.8-0.7-1.4-1.2-2-1.6l0.3-0.4C24.6,132.7,25.3,133.2,26.1,133.9L26.1,133.9z M26.3,130.8l-0.3,0.4c-0.6-0.6-1.2-1.2-1.9-1.7
			l0.3-0.4C25,129.6,25.6,130.2,26.3,130.8L26.3,130.8z M28,136.1c0,1.5-0.6,2.6-1.9,3.5l-0.4-0.3c1.2-0.8,1.8-1.8,1.8-3.2v-1.4H28
			L28,136.1L28,136.1z M34.2,134.1l-0.4,0.3c-0.2-0.3-0.4-0.6-0.7-1c-2,0.3-4.1,0.4-6.2,0.6l-0.1-0.4c1.1-0.9,2-1.8,2.6-2.9h-2.7
			v-0.4h3c0.2-0.4,0.4-0.8,0.6-1.3l0.5,0.2c-0.1,0.4-0.3,0.8-0.5,1.1h4v0.4h-4.2c-0.6,1.1-1.4,2-2.4,2.8c1.5-0.1,3.3-0.2,5.3-0.5
			c-0.5-0.5-0.9-0.9-1.3-1.3l0.3-0.3C32.7,132.3,33.5,133.2,34.2,134.1L34.2,134.1z M30.2,139.6h-0.5v-5h0.5V139.6z M34.3,139.6
			h-1.8c-0.4,0-0.7-0.2-0.7-0.7v-4.3h0.5v4.3c0,0.1,0.1,0.2,0.2,0.2h1.8C34.3,139.1,34.3,139.6,34.3,139.6z"/>
		<path d="M46,133.4h-0.5v-2.1h-4.2v2.5h-0.5v-2.5h-4.2v2.1h-0.5v-2.6h4.7v-1h-4.3v-0.4h9.1v0.4h-4.3v1H46L46,133.4L46,133.4z
			 M46.3,138c0,0.5-0.1,0.9-0.3,1.1s-0.5,0.4-0.9,0.4s-1,0.1-1.8,0.1c-1.2,0-1.9-0.1-2.2-0.1s-0.4-0.4-0.4-0.8v-0.9h-3.8v-3.4h8.2
			v3.4h-3.8v1c0,0.1,0,0.2,0.1,0.3s0.3,0.1,0.7,0.1s0.8,0,1.4,0c1,0,1.7,0,2-0.1s0.4-0.5,0.5-1.2C45.9,137.8,46.3,138,46.3,138z
			 M40.1,133.3c-1,0.2-2,0.4-2.8,0.5l-0.1-0.4c0.9-0.1,1.8-0.2,2.8-0.5L40.1,133.3L40.1,133.3z M40.1,132.2l-0.2,0.4
			c-0.8-0.2-1.7-0.3-2.7-0.4l0.2-0.4C38.4,131.9,39.3,132,40.1,132.2L40.1,132.2z M40.8,135.8v-1.1h-3.4v1.1H40.8z M40.8,137.3v-1.1
			h-3.4v1.1H40.8z M44.6,135.8v-1.1h-3.4v1.1H44.6z M44.6,137.3v-1.1h-3.4v1.1H44.6z M44.9,133.5l-0.2,0.4c-1-0.2-1.9-0.4-2.9-0.5
			L42,133C43.1,133.1,44.1,133.2,44.9,133.5z M44.8,132.2c-1.1,0.2-2,0.4-2.8,0.4l-0.1-0.4c0.8-0.1,1.7-0.2,2.8-0.4L44.8,132.2z"/>
		<path d="M48.2,139v-9.1h2.3c1.5,0,2.7,0.4,3.4,1.1s1.2,1.9,1.2,3.3c0,0.9-0.2,1.7-0.6,2.5s-0.9,1.3-1.7,1.6s-1.6,0.6-2.5,0.6H48.2
			L48.2,139z M48.8,130.5v7.9h1.4c1.3,0,2.4-0.4,3.1-1.1s1.1-1.7,1.1-3c0-2.6-1.3-3.8-4-3.8H48.8L48.8,130.5z"/>
		<path d="M62.9,138.7c-0.7,0.3-1.5,0.5-2.3,0.5s-1.6-0.2-2.2-0.6s-1.1-0.9-1.5-1.6s-0.5-1.5-0.5-2.3c0-0.9,0.2-1.8,0.6-2.5
			s0.9-1.3,1.6-1.7s1.5-0.6,2.3-0.6c0.7,0,1.4,0.1,2,0.3v0.7c-0.6-0.3-1.3-0.4-2-0.4c-0.8,0-1.4,0.2-2,0.5s-1,0.9-1.3,1.5
			s-0.5,1.4-0.5,2.2s0.2,1.5,0.5,2.1s0.7,1.1,1.3,1.4s1.2,0.5,1.9,0.5c0.8,0,1.6-0.2,2.2-0.5L62.9,138.7L62.9,138.7z"/>
	</g>
	<g>
		<path class="st11" d="M33.1,150.3h-0.6v-1.9h-3.9v2.2h-0.5v-2.2h-3.6v1.9H24v-2.4h4.2V147h-3.8v-0.5h8.4v0.5h-4v0.8h4.4V150.3z
			 M33.5,154.6c0,0.5-0.2,0.8-0.3,1s-0.5,0.3-0.9,0.3c-0.5,0-1,0-1.5,0c-0.5,0-1,0-1.4,0c-0.4,0-0.7-0.1-0.9-0.2s-0.2-0.4-0.2-0.7
			v-0.8h-3.5V151h7.6v3.1h-3.5v0.9c0,0.1,0,0.2,0.1,0.2c0.1,0,0.3,0.1,0.7,0.1c0.4,0,0.9,0,1.4,0c0.9,0,1.4,0,1.5-0.1
			c0.2,0,0.3-0.1,0.3-0.3c0.1-0.2,0.1-0.4,0.1-0.7L33.5,154.6L33.5,154.6z M27.7,150.2c-0.9,0.2-1.7,0.4-2.5,0.4l-0.2-0.5
			c0.8,0,1.6-0.1,2.5-0.3L27.7,150.2z M27.7,149.1l-0.2,0.5c-0.6-0.1-1.4-0.3-2.4-0.3l0.2-0.5C26.3,148.8,27.1,148.9,27.7,149.1z
			 M28.2,152.3v-0.8h-2.9v0.8H28.2z M28.2,153.6v-0.8h-2.9v0.8H28.2z M31.7,152.3v-0.8h-2.9v0.8H31.7z M31.7,153.6v-0.8h-2.9v0.8
			H31.7z M32,150.2l-0.2,0.5c-0.8-0.2-1.6-0.4-2.6-0.4l0.2-0.4C30.6,149.9,31.4,150,32,150.2L32,150.2z M32,149.2
			c-0.9,0.2-1.8,0.3-2.5,0.3l-0.2-0.4c0.8-0.1,1.6-0.2,2.5-0.3L32,149.2L32,149.2z"/>
		<path class="st11" d="M38.7,148.3l-0.4,0.4c-0.3-0.5-0.8-1-1.4-1.5c-0.3,0.6-0.8,1.2-1.3,1.8h2.6v0.5H37v1.2h1.3v0.5H37v3.4
			c0.4-0.1,0.8-0.2,1.4-0.4l0,0.5c-1.2,0.3-2.4,0.6-3.6,0.9l-0.1-0.5l1.8-0.3v-3.6H35v-0.5h1.5v-1.2h-0.9V149l-0.5,0.5l-0.3-0.5
			c0.9-0.9,1.6-1.8,2.1-2.9l0.5,0.2c0,0.1-0.1,0.2-0.1,0.3C37.7,147.2,38.3,147.7,38.7,148.3L38.7,148.3z M36,154.2l-0.5,0.1
			c-0.1-0.6-0.2-1.4-0.5-2.2l0.5-0.1C35.8,152.9,36,153.6,36,154.2L36,154.2z M38.5,152.1c-0.1,0.7-0.3,1.4-0.5,2l-0.5-0.2
			c0.2-0.6,0.4-1.3,0.5-1.9L38.5,152.1L38.5,152.1z M44.4,151.1h-3.1c-0.2,0.5-0.5,1-1,1.6v2.5c0.5-0.2,1.1-0.4,1.7-0.6l0.1,0.6
			c-1,0.4-1.7,0.7-2.3,0.9l-0.2-0.5c0.1-0.1,0.2-0.2,0.2-0.4v-1.8c-0.4,0.4-0.7,0.6-0.9,0.7l-0.4-0.4c1-0.7,1.7-1.6,2.2-2.5h-1.8
			v-0.5h2.4v-1.2h-2v-0.5h2v-1.1H39v-0.5h2.2v-0.9h0.5v0.9h2.5v0.5h-2.5v1.1h2.2v0.5h-2.2v1.2h2.6L44.4,151.1L44.4,151.1z
			 M44.5,155.5l-0.4,0.5c-1.5-1-2.4-2.4-2.6-4l0.5-0.1c0,0.4,0.2,0.9,0.3,1.4c0.6-0.5,1.1-0.9,1.4-1.3l0.4,0.4
			c-0.3,0.5-0.9,1-1.6,1.5C43,154.3,43.6,154.9,44.5,155.5L44.5,155.5z"/>
		<path class="st11" d="M50.7,155.3h-4.7v-0.8h1.9V148l-1.9,0.6v-0.9l2.8-0.9v7.7h1.9L50.7,155.3L50.7,155.3z"/>
	</g>
</g>
<g>
	<g>
		<g id="_圖層_2-3">
			<g id="_圖層_1-2-3">
				<path class="st6" d="M25.7,413.9h23.4c0.5,0,1,0.4,1,1v14c0,0.5-0.4,1-1,1H25.7c-0.5,0-1-0.4-1-1v-14
					C24.7,414.3,25.2,413.9,25.7,413.9z"/>
				<path class="st3" d="M28.3,416.1h18.1c0.5,0,0.9,0.4,0.9,0.9v7.6c0,0.5-0.4,0.9-0.9,0.9H28.3c-0.5,0-0.9-0.4-0.9-0.9V417
					C27.4,416.5,27.8,416.1,28.3,416.1z"/>
				<path class="st3" d="M17.1,398.7h3.2c0.2,0,0.4,0.2,0.4,0.4v2.5c0,0.2-0.2,0.4-0.4,0.4h-3.2c-0.2,0-0.4-0.2-0.4-0.4v-2.5
					C16.7,398.9,16.9,398.7,17.1,398.7z"/>
				<path class="st3" d="M54.4,398.7h3.2c0.2,0,0.4,0.2,0.4,0.4v2.5c0,0.2-0.2,0.4-0.4,0.4h-3.2c-0.2,0-0.4-0.2-0.4-0.4v-2.5
					C54,398.9,54.2,398.7,54.4,398.7z"/>
				<path class="st7" d="M22.7,382.9H52c1.1,0,2,0.9,2,2v29.3c0,1.1-0.9,2-2,2H22.7c-1.1,0-2-0.9-2-2v-29.3
					C20.8,383.7,21.6,382.9,22.7,382.9z"/>
				<path class="st8" d="M26.6,391h21.6c0.5,0,0.8,0.4,0.8,0.8v3.6c0,0.5-0.4,0.8-0.8,0.8H26.6c-0.5,0-0.8-0.4-0.8-0.8v-3.6
					C25.7,391.4,26.1,391,26.6,391z"/>
				<path class="st9" d="M45.7,391h2.5c0.5,0,0.8,0.4,0.8,0.8v3.6c0,0.5-0.4,0.8-0.8,0.8h-2.5V391L45.7,391L45.7,391z"/>
				<rect x="29.1" y="391" class="st3" width="3.3" height="5.3"/>
				<rect x="35.7" y="391" class="st3" width="3.3" height="5.3"/>
				<rect x="42.3" y="391" class="st3" width="3.3" height="5.3"/>
				<circle class="st8" cx="28.6" cy="405.6" r="1.4"/>
				<circle class="st9" cx="34.4" cy="405.6" r="1.4"/>
				<circle class="st9" cx="40.3" cy="405.6" r="1.4"/>
				<circle class="st8" cx="46.2" cy="405.6" r="1.4"/>
				<path class="st6" d="M31.1,418.7L31.1,418.7c0.5,0,0.8,0.3,0.8,0.7v3.3c0,0.4-0.3,0.7-0.7,0.7h-0.1c-0.4,0-0.7-0.3-0.7-0.7v-3.3
					C30.4,419,30.7,418.7,31.1,418.7z"/>
				<path class="st6" d="M35.3,418.7h0.1c0.4,0,0.7,0.3,0.7,0.7v3.3c0,0.4-0.3,0.7-0.7,0.7h-0.1c-0.4,0-0.7-0.3-0.7-0.7v-3.3
					C34.6,419,34.9,418.7,35.3,418.7z"/>
				<path class="st6" d="M39.5,418.7h0.1c0.4,0,0.7,0.3,0.7,0.7v3.3c0,0.4-0.3,0.7-0.7,0.7h-0.1c-0.4,0-0.7-0.3-0.7-0.7v-3.3
					C38.8,419,39.1,418.7,39.5,418.7z"/>
				<path class="st6" d="M43.7,418.7h0.1c0.4,0,0.7,0.3,0.7,0.7v3.3c0,0.4-0.3,0.7-0.7,0.7h-0.1c-0.4,0-0.7-0.3-0.7-0.7v-3.3
					C43,419,43.3,418.7,43.7,418.7z"/>
			</g>
		</g>
		<g>
			<path class="st12" d="M33.2,370h-0.6v-1.9h-3.9v2.2h-0.5v-2.2h-3.6v1.9H24v-2.4h4.2v-0.8h-3.8v-0.5h8.4v0.5h-4v0.8h4.4V370z
				 M33.5,374.3c0,0.5-0.2,0.8-0.3,1s-0.5,0.3-0.9,0.3c-0.4,0-1,0-1.5,0c-0.5,0-1,0-1.4,0s-0.7-0.1-0.9-0.2
				c-0.1-0.1-0.2-0.4-0.2-0.7v-0.8h-3.5v-3.1h7.6v3.1h-3.5v0.9c0,0.1,0,0.2,0.1,0.2c0.1,0,0.3,0.1,0.7,0.1c0.4,0,0.9,0,1.4,0
				c0.9,0,1.4,0,1.5-0.1c0.1,0,0.3-0.1,0.3-0.3s0.1-0.4,0.1-0.7L33.5,374.3L33.5,374.3z M27.8,370c-0.9,0.2-1.7,0.4-2.5,0.4
				l-0.2-0.5c0.8,0,1.6-0.1,2.5-0.3L27.8,370L27.8,370z M27.8,368.8l-0.2,0.5c-0.6-0.1-1.4-0.3-2.4-0.3l0.2-0.5
				C26.3,368.6,27.1,368.7,27.8,368.8z M28.2,372v-0.8h-2.9v0.8H28.2z M28.2,373.4v-0.8h-2.9v0.8H28.2z M31.7,372v-0.8h-2.9v0.8
				H31.7z M31.7,373.4v-0.8h-2.9v0.8H31.7z M32.1,370l-0.2,0.5c-0.8-0.2-1.6-0.4-2.6-0.4l0.2-0.4C30.6,369.7,31.5,369.8,32.1,370
				L32.1,370z M32,369c-0.9,0.2-1.8,0.3-2.5,0.3l-0.2-0.5c0.8-0.1,1.6-0.2,2.5-0.3L32,369z"/>
			<path class="st12" d="M38.8,368.1l-0.4,0.4c-0.3-0.5-0.8-1-1.4-1.5c-0.3,0.6-0.8,1.2-1.3,1.8h2.6v0.5h-1.2v1.2h1.3v0.5h-1.3v3.4
				c0.4-0.1,0.8-0.2,1.4-0.4l0,0.5c-1.2,0.3-2.4,0.6-3.6,0.9l-0.1-0.5l1.8-0.3V371H35v-0.5h1.5v-1.2h-0.9v-0.5l-0.5,0.5l-0.3-0.5
				c0.9-0.9,1.6-1.8,2.1-2.9l0.5,0.2c0,0.1-0.1,0.2-0.1,0.3C37.8,367,38.3,367.5,38.8,368.1L38.8,368.1z M36.1,374l-0.5,0.1
				c-0.1-0.6-0.2-1.4-0.5-2.2l0.5-0.1C35.9,372.6,36,373.4,36.1,374L36.1,374z M38.5,371.8c-0.1,0.7-0.3,1.4-0.5,2l-0.5-0.2
				c0.2-0.6,0.4-1.3,0.5-1.9L38.5,371.8L38.5,371.8z M44.4,370.8h-3.1c-0.2,0.5-0.5,1-1,1.5v2.5c0.5-0.2,1.1-0.4,1.7-0.6l0.1,0.6
				c-1,0.4-1.7,0.7-2.3,0.9l-0.2-0.5c0.1-0.1,0.2-0.2,0.2-0.4V373c-0.4,0.4-0.7,0.6-0.9,0.7l-0.4-0.4c1-0.7,1.7-1.6,2.2-2.5h-1.8
				v-0.5h2.4v-1.2h-2v-0.5h2v-1.1H39v-0.5h2.2V366h0.5v0.9h2.5v0.5h-2.5v1.1H44v0.5h-2.2v1.2h2.6L44.4,370.8L44.4,370.8z
				 M44.5,375.2l-0.4,0.5c-1.5-1-2.4-2.4-2.6-4l0.5-0.1c0,0.4,0.2,0.9,0.3,1.4c0.6-0.5,1.1-0.9,1.4-1.3l0.4,0.4
				c-0.3,0.5-0.9,1-1.6,1.5C43,374.1,43.7,374.7,44.5,375.2L44.5,375.2z"/>
			<path class="st12" d="M50.6,375.1h-5v-0.8l2.4-2.4c0.8-0.8,1.3-1.4,1.5-1.8s0.3-0.8,0.3-1.2c0-0.5-0.1-0.9-0.4-1.1
				c-0.3-0.3-0.7-0.4-1.2-0.4c-0.7,0-1.5,0.3-2.1,1v-1c0.6-0.5,1.4-0.8,2.3-0.8c0.7,0,1.3,0.2,1.7,0.6s0.7,0.9,0.7,1.6
				c0,0.5-0.1,1-0.4,1.5c-0.3,0.5-0.8,1.2-1.6,2l-1.9,1.9v0h3.9L50.6,375.1L50.6,375.1z"/>
		</g>
		<g>
			<path class="st11" d="M33.2,370h-0.6v-1.9h-3.9v2.2h-0.5v-2.2h-3.6v1.9H24v-2.4h4.2v-0.8h-3.8v-0.5h8.4v0.5h-4v0.8h4.4V370z
				 M33.5,374.3c0,0.5-0.2,0.8-0.3,1s-0.5,0.3-0.9,0.3c-0.4,0-1,0-1.5,0c-0.5,0-1,0-1.4,0s-0.7-0.1-0.9-0.2
				c-0.1-0.1-0.2-0.4-0.2-0.7v-0.8h-3.5v-3.1h7.6v3.1h-3.5v0.9c0,0.1,0,0.2,0.1,0.2c0.1,0,0.3,0.1,0.7,0.1c0.4,0,0.9,0,1.4,0
				c0.9,0,1.4,0,1.5-0.1c0.1,0,0.3-0.1,0.3-0.3s0.1-0.4,0.1-0.7L33.5,374.3L33.5,374.3z M27.8,370c-0.9,0.2-1.7,0.4-2.5,0.4
				l-0.2-0.5c0.8,0,1.6-0.1,2.5-0.3L27.8,370L27.8,370z M27.8,368.8l-0.2,0.5c-0.6-0.1-1.4-0.3-2.4-0.3l0.2-0.5
				C26.3,368.6,27.1,368.7,27.8,368.8z M28.2,372v-0.8h-2.9v0.8H28.2z M28.2,373.4v-0.8h-2.9v0.8H28.2z M31.7,372v-0.8h-2.9v0.8
				H31.7z M31.7,373.4v-0.8h-2.9v0.8H31.7z M32.1,370l-0.2,0.5c-0.8-0.2-1.6-0.4-2.6-0.4l0.2-0.4C30.6,369.7,31.5,369.8,32.1,370
				L32.1,370z M32,369c-0.9,0.2-1.8,0.3-2.5,0.3l-0.2-0.5c0.8-0.1,1.6-0.2,2.5-0.3L32,369z"/>
			<path class="st11" d="M38.8,368.1l-0.4,0.4c-0.3-0.5-0.8-1-1.4-1.5c-0.3,0.6-0.8,1.2-1.3,1.8h2.6v0.5h-1.2v1.2h1.3v0.5h-1.3v3.4
				c0.4-0.1,0.8-0.2,1.4-0.4l0,0.5c-1.2,0.3-2.4,0.6-3.6,0.9l-0.1-0.5l1.8-0.3V371H35v-0.5h1.5v-1.2h-0.9v-0.5l-0.5,0.5l-0.3-0.5
				c0.9-0.9,1.6-1.8,2.1-2.9l0.5,0.2c0,0.1-0.1,0.2-0.1,0.3C37.8,367,38.3,367.5,38.8,368.1L38.8,368.1z M36.1,374l-0.5,0.1
				c-0.1-0.6-0.2-1.4-0.5-2.2l0.5-0.1C35.9,372.6,36,373.4,36.1,374L36.1,374z M38.5,371.8c-0.1,0.7-0.3,1.4-0.5,2l-0.5-0.2
				c0.2-0.6,0.4-1.3,0.5-1.9L38.5,371.8L38.5,371.8z M44.4,370.8h-3.1c-0.2,0.5-0.5,1-1,1.5v2.5c0.5-0.2,1.1-0.4,1.7-0.6l0.1,0.6
				c-1,0.4-1.7,0.7-2.3,0.9l-0.2-0.5c0.1-0.1,0.2-0.2,0.2-0.4V373c-0.4,0.4-0.7,0.6-0.9,0.7l-0.4-0.4c1-0.7,1.7-1.6,2.2-2.5h-1.8
				v-0.5h2.4v-1.2h-2v-0.5h2v-1.1H39v-0.5h2.2V366h0.5v0.9h2.5v0.5h-2.5v1.1H44v0.5h-2.2v1.2h2.6L44.4,370.8L44.4,370.8z
				 M44.5,375.2l-0.4,0.5c-1.5-1-2.4-2.4-2.6-4l0.5-0.1c0,0.4,0.2,0.9,0.3,1.4c0.6-0.5,1.1-0.9,1.4-1.3l0.4,0.4
				c-0.3,0.5-0.9,1-1.6,1.5C43,374.1,43.7,374.7,44.5,375.2L44.5,375.2z"/>
			<path class="st11" d="M50.6,375.1h-5v-0.8l2.4-2.4c0.8-0.8,1.3-1.4,1.5-1.8s0.3-0.8,0.3-1.2c0-0.5-0.1-0.9-0.4-1.1
				c-0.3-0.3-0.7-0.4-1.2-0.4c-0.7,0-1.5,0.3-2.1,1v-1c0.6-0.5,1.4-0.8,2.3-0.8c0.7,0,1.3,0.2,1.7,0.6s0.7,0.9,0.7,1.6
				c0,0.5-0.1,1-0.4,1.5c-0.3,0.5-0.8,1.2-1.6,2l-1.9,1.9v0h3.9L50.6,375.1L50.6,375.1z"/>
		</g>
		<g>
			<path class="st12" d="M22.6,358.3l-0.2,0.4c-2.2-0.5-3.8-1.3-5-2.3c-1.2,0.9-2.8,1.7-4.9,2.3l-0.3-0.4c2-0.5,3.6-1.2,4.8-2.1
				c-0.8-0.8-1.5-1.7-2.1-2.9l0.4-0.2c0.5,1.1,1.2,2.1,2,2.8c0.9-0.8,1.6-1.7,2.2-2.8l0.5,0.2c-0.7,1.2-1.4,2.1-2.3,2.9
				C18.8,357.1,20.5,357.8,22.6,358.3L22.6,358.3z M22.5,350.2H12.3v-0.5h5.1c-0.2-0.5-0.4-1-0.6-1.3l0.5-0.1
				c0.2,0.4,0.5,0.9,0.7,1.5h4.5L22.5,350.2L22.5,350.2z M16.1,351.1c-0.8,1-1.9,2.1-3.4,3.2l-0.3-0.4c1.4-1,2.6-2.1,3.4-3.1
				L16.1,351.1L16.1,351.1z M22.4,354l-0.4,0.3c-1-1.2-2.1-2.3-3.3-3.2l0.4-0.4C20.3,351.8,21.4,352.9,22.4,354L22.4,354z"/>
			<path class="st12" d="M26.5,354.6c-0.5,1.3-1.1,2.7-2,4.2l-0.4-0.3c0.9-1.3,1.5-2.7,2-4.2L26.5,354.6L26.5,354.6z M26.5,353
				l-0.3,0.4c-0.8-0.7-1.4-1.2-2-1.6l0.3-0.4C25,351.8,25.7,352.4,26.5,353L26.5,353z M26.6,349.9l-0.3,0.4
				c-0.6-0.6-1.2-1.2-1.9-1.7l0.3-0.4C25.4,348.8,26,349.3,26.6,349.9L26.6,349.9z M28.4,355.2c0,1.5-0.6,2.6-1.9,3.5l-0.4-0.3
				c1.2-0.8,1.8-1.8,1.8-3.2v-1.4h0.5L28.4,355.2L28.4,355.2z M34.6,353.3l-0.4,0.3c-0.2-0.3-0.4-0.6-0.7-1c-2,0.3-4.1,0.5-6.2,0.6
				l-0.1-0.4c1.1-0.9,2-1.8,2.6-2.9H27v-0.5h3c0.2-0.4,0.4-0.8,0.6-1.3l0.5,0.2c-0.1,0.4-0.3,0.8-0.5,1.1h4v0.5h-4.2
				c-0.6,1.1-1.4,2-2.4,2.8c1.5-0.1,3.3-0.2,5.3-0.5c-0.5-0.5-0.9-0.9-1.3-1.3l0.3-0.3C33,351.5,33.9,352.3,34.6,353.3L34.6,353.3z
				 M30.5,358.7H30v-5h0.5V358.7z M34.6,358.7h-1.8c-0.4,0-0.7-0.2-0.7-0.7v-4.3h0.5v4.3c0,0.1,0.1,0.2,0.2,0.2h1.8
				C34.6,358.3,34.6,358.7,34.6,358.7z"/>
			<path class="st12" d="M46.3,352.6h-0.5v-2.1h-4.2v2.5h-0.5v-2.5H37v2.1h-0.5V350h4.7v-1h-4.3v-0.4H46v0.4h-4.3v1h4.7L46.3,352.6
				L46.3,352.6z M46.7,357.2c0,0.5-0.1,0.9-0.3,1.1s-0.5,0.4-0.9,0.4s-1,0-1.8,0c-1.2,0-1.9,0-2.2-0.1s-0.4-0.4-0.4-0.8v-0.9h-3.8
				v-3.4h8.2v3.4h-3.8v1c0,0.1,0,0.2,0.1,0.3s0.3,0.1,0.7,0.1s0.8,0,1.4,0c1,0,1.7,0,2-0.1s0.4-0.5,0.5-1.2
				C46.2,357,46.7,357.2,46.7,357.2z M40.5,352.5c-1,0.2-2,0.4-2.8,0.5l-0.1-0.4c0.9-0.1,1.8-0.2,2.8-0.5L40.5,352.5z M40.5,351.4
				l-0.2,0.4c-0.8-0.2-1.7-0.3-2.7-0.4l0.2-0.4C38.8,351,39.6,351.2,40.5,351.4L40.5,351.4z M41.2,354.9v-1.1h-3.4v1.1H41.2z
				 M41.2,356.4v-1.1h-3.4v1.1H41.2z M45,354.9v-1.1h-3.4v1.1H45z M45,356.4v-1.1h-3.4v1.1H45z M45.3,352.6l-0.2,0.4
				c-1-0.2-1.9-0.4-2.9-0.5l0.2-0.4C43.5,352.2,44.4,352.4,45.3,352.6L45.3,352.6z M45.2,351.4c-1.1,0.2-2,0.4-2.8,0.4l-0.1-0.4
				c0.8-0.1,1.7-0.2,2.8-0.4L45.2,351.4z"/>
			<path class="st12" d="M54.4,358.1l-1-2.8h-3.9l-1,2.8h-0.7l3.4-9.1h0.6l3.4,9.1H54.4z M51.4,349.9L51.4,349.9
				c-0.1,0.3-0.2,0.5-0.2,0.7l-1.5,4.2h3.5l-1.5-4.2L51.4,349.9L51.4,349.9z"/>
			<path class="st12" d="M62.5,357.8c-0.7,0.3-1.5,0.5-2.3,0.5s-1.6-0.2-2.2-0.6s-1.1-0.9-1.5-1.6s-0.5-1.5-0.5-2.3
				c0-0.9,0.2-1.8,0.6-2.5s0.9-1.3,1.6-1.7s1.5-0.6,2.3-0.6c0.7,0,1.4,0.1,2,0.3v0.7c-0.6-0.3-1.3-0.4-2-0.4c-0.8,0-1.4,0.2-2,0.5
				s-1,0.9-1.3,1.5s-0.5,1.4-0.5,2.2s0.2,1.5,0.5,2.1s0.7,1.1,1.3,1.4s1.2,0.5,1.9,0.5c0.8,0,1.6-0.2,2.2-0.5L62.5,357.8L62.5,357.8
				z"/>
		</g>
		<g>
			<path d="M22.6,358.3l-0.2,0.4c-2.2-0.5-3.8-1.3-5-2.3c-1.2,0.9-2.8,1.7-4.9,2.3l-0.3-0.4c2-0.5,3.6-1.2,4.8-2.1
				c-0.8-0.8-1.5-1.7-2.1-2.9l0.4-0.2c0.5,1.1,1.2,2.1,2,2.8c0.9-0.8,1.6-1.7,2.2-2.8l0.5,0.2c-0.7,1.2-1.4,2.1-2.3,2.9
				C18.8,357.1,20.5,357.8,22.6,358.3L22.6,358.3z M22.5,350.2H12.3v-0.5h5.1c-0.2-0.5-0.4-1-0.6-1.3l0.5-0.1
				c0.2,0.4,0.5,0.9,0.7,1.5h4.5L22.5,350.2L22.5,350.2z M16.1,351.1c-0.8,1-1.9,2.1-3.4,3.2l-0.3-0.4c1.4-1,2.6-2.1,3.4-3.1
				L16.1,351.1L16.1,351.1z M22.4,354l-0.4,0.3c-1-1.2-2.1-2.3-3.3-3.2l0.4-0.4C20.3,351.8,21.4,352.9,22.4,354L22.4,354z"/>
			<path d="M26.5,354.6c-0.5,1.3-1.1,2.7-2,4.2l-0.4-0.3c0.9-1.3,1.5-2.7,2-4.2L26.5,354.6L26.5,354.6z M26.5,353l-0.3,0.4
				c-0.8-0.7-1.4-1.2-2-1.6l0.3-0.4C25,351.8,25.7,352.4,26.5,353L26.5,353z M26.6,349.9l-0.3,0.4c-0.6-0.6-1.2-1.2-1.9-1.7l0.3-0.4
				C25.4,348.8,26,349.3,26.6,349.9L26.6,349.9z M28.4,355.2c0,1.5-0.6,2.6-1.9,3.5l-0.4-0.3c1.2-0.8,1.8-1.8,1.8-3.2v-1.4h0.5
				L28.4,355.2L28.4,355.2z M34.6,353.3l-0.4,0.3c-0.2-0.3-0.4-0.6-0.7-1c-2,0.3-4.1,0.5-6.2,0.6l-0.1-0.4c1.1-0.9,2-1.8,2.6-2.9H27
				v-0.5h3c0.2-0.4,0.4-0.8,0.6-1.3l0.5,0.2c-0.1,0.4-0.3,0.8-0.5,1.1h4v0.5h-4.2c-0.6,1.1-1.4,2-2.4,2.8c1.5-0.1,3.3-0.2,5.3-0.5
				c-0.5-0.5-0.9-0.9-1.3-1.3l0.3-0.3C33,351.5,33.9,352.3,34.6,353.3L34.6,353.3z M30.5,358.7H30v-5h0.5V358.7z M34.6,358.7h-1.8
				c-0.4,0-0.7-0.2-0.7-0.7v-4.3h0.5v4.3c0,0.1,0.1,0.2,0.2,0.2h1.8C34.6,358.3,34.6,358.7,34.6,358.7z"/>
			<path d="M46.3,352.6h-0.5v-2.1h-4.2v2.5h-0.5v-2.5H37v2.1h-0.5V350h4.7v-1h-4.3v-0.4H46v0.4h-4.3v1h4.7L46.3,352.6L46.3,352.6z
				 M46.7,357.2c0,0.5-0.1,0.9-0.3,1.1s-0.5,0.4-0.9,0.4s-1,0-1.8,0c-1.2,0-1.9,0-2.2-0.1s-0.4-0.4-0.4-0.8v-0.9h-3.8v-3.4h8.2v3.4
				h-3.8v1c0,0.1,0,0.2,0.1,0.3s0.3,0.1,0.7,0.1s0.8,0,1.4,0c1,0,1.7,0,2-0.1s0.4-0.5,0.5-1.2C46.2,357,46.7,357.2,46.7,357.2z
				 M40.5,352.5c-1,0.2-2,0.4-2.8,0.5l-0.1-0.4c0.9-0.1,1.8-0.2,2.8-0.5L40.5,352.5z M40.5,351.4l-0.2,0.4c-0.8-0.2-1.7-0.3-2.7-0.4
				l0.2-0.4C38.8,351,39.6,351.2,40.5,351.4L40.5,351.4z M41.2,354.9v-1.1h-3.4v1.1H41.2z M41.2,356.4v-1.1h-3.4v1.1H41.2z
				 M45,354.9v-1.1h-3.4v1.1H45z M45,356.4v-1.1h-3.4v1.1H45z M45.3,352.6l-0.2,0.4c-1-0.2-1.9-0.4-2.9-0.5l0.2-0.4
				C43.5,352.2,44.4,352.4,45.3,352.6L45.3,352.6z M45.2,351.4c-1.1,0.2-2,0.4-2.8,0.4l-0.1-0.4c0.8-0.1,1.7-0.2,2.8-0.4L45.2,351.4
				z"/>
			<path d="M54.4,358.1l-1-2.8h-3.9l-1,2.8h-0.7l3.4-9.1h0.6l3.4,9.1H54.4z M51.4,349.9L51.4,349.9c-0.1,0.3-0.2,0.5-0.2,0.7
				l-1.5,4.2h3.5l-1.5-4.2L51.4,349.9L51.4,349.9z"/>
			<path d="M62.5,357.8c-0.7,0.3-1.5,0.5-2.3,0.5s-1.6-0.2-2.2-0.6s-1.1-0.9-1.5-1.6s-0.5-1.5-0.5-2.3c0-0.9,0.2-1.8,0.6-2.5
				s0.9-1.3,1.6-1.7s1.5-0.6,2.3-0.6c0.7,0,1.4,0.1,2,0.3v0.7c-0.6-0.3-1.3-0.4-2-0.4c-0.8,0-1.4,0.2-2,0.5s-1,0.9-1.3,1.5
				s-0.5,1.4-0.5,2.2s0.2,1.5,0.5,2.1s0.7,1.1,1.3,1.4s1.2,0.5,1.9,0.5c0.8,0,1.6-0.2,2.2-0.5L62.5,357.8L62.5,357.8z"/>
		</g>
	</g>
</g>
<g>
	<g id="_圖層_2-4">
		<g id="_圖層_1-2-4">
			<path class="st13" d="M20.3,269.1h34.1c1.1,0,2,0.9,2,2v34.1c0,1.1-0.9,2-2,2H20.3c-1.1,0-2-0.9-2-2v-34.1
				C18.3,270.1,19.2,269.1,20.3,269.1z"/>
			<g>
				<defs>
					<path id="SVGID_1_" d="M20.3,269.1h34.1c1.1,0,2,0.9,2,2v34.1c0,1.1-0.9,2-2,2H20.3c-1.1,0-2-0.9-2-2v-34.1
						C18.3,270.1,19.2,269.1,20.3,269.1z"/>
				</defs>
				<clipPath id="SVGID_00000042720219487957604670000008883482286100546197_">
					<use xlink:href="#SVGID_1_"  style="overflow:visible;"/>
				</clipPath>
				<g style="clip-path:url(#SVGID_00000042720219487957604670000008883482286100546197_);">
					<g>
						<polygon class="st15" points="56.5,307.3 18.3,269.1 56.5,269.1 						"/>
						<path class="st1" d="M44.5,273.8h8.1c0.2,0,0.4,0.2,0.4,0.4v1.6c0,0.2-0.2,0.4-0.4,0.4h-8.1c-0.2,0-0.4-0.2-0.4-0.4v-1.6
							C44,274,44.2,273.8,44.5,273.8z"/>
						<path class="st16" d="M44.5,277.8h2.9c0.2,0,0.4,0.2,0.4,0.4v1.6c0,0.2-0.2,0.4-0.4,0.4h-2.9c-0.2,0-0.4-0.2-0.4-0.4v-1.6
							C44,278,44.2,277.8,44.5,277.8z"/>
						<path class="st17" d="M49.7,277.8h2.9c0.2,0,0.4,0.2,0.4,0.4v1.6c0,0.2-0.2,0.4-0.4,0.4h-2.9c-0.2,0-0.4-0.2-0.4-0.4v-1.6
							C49.3,278,49.5,277.8,49.7,277.8z"/>
						<path class="st18" d="M22,301c0,0,3.4-7.2,7.7-2c4.4,5.3,7.7-1.9,7.7-1.9"/>
					</g>
				</g>
			</g>
		</g>
	</g>
	<g>
		<path class="st19" d="M30.4,264.1l-0.2,0.4c-2,0-3.8-0.3-5.2-0.8c-1.3,0.5-3,0.8-5.3,0.8l-0.1-0.4h0.2c1.6,0,3.1-0.2,4.6-0.6
			c-0.8-0.4-1.5-0.8-2.1-1.2l0.4-0.3c0.7,0.5,1.4,1,2.3,1.3c1-0.4,1.9-1.1,2.5-1.9h-5c-0.8,0.6-1.5,1-2.2,1.3l-0.3-0.4
			c1.4-0.6,2.5-1.3,3.3-2.2l0.4,0.2c-0.2,0.2-0.4,0.4-0.7,0.6h7v0.4h-2c-0.6,0.9-1.4,1.7-2.4,2.1C26.9,263.9,28.5,264.1,30.4,264.1
			L30.4,264.1z M20.7,258.6c-0.3,0.9-0.5,1.5-0.7,1.8l-0.4-0.2c0.2-0.4,0.5-1,0.7-1.8L20.7,258.6L20.7,258.6z M23.2,258l-0.5,0.2
			l-0.1-0.5c-0.9,0.2-1.8,0.3-2.7,0.4l-0.1-0.4c0.6-0.4,1.2-1,1.8-1.6c-0.5,0.1-1,0.1-1.6,0.2l-0.1-0.4c0.5-0.4,1.1-1.1,1.7-2.1
			l0.5,0.2c-0.5,0.8-1,1.4-1.5,1.8c0.6,0,1.1-0.1,1.5-0.1l0.5-0.7l0.5,0.2c-0.8,1-1.5,1.9-2.4,2.5c0.6-0.1,1.3-0.2,1.9-0.3
			c-0.1-0.2-0.2-0.5-0.3-0.6l0.5-0.2C22.9,256.9,23.1,257.4,23.2,258L23.2,258z M21.9,260.1l-0.5,0.1c-0.1-0.6-0.2-1.2-0.3-1.5
			l0.5-0.1C21.7,258.9,21.8,259.4,21.9,260.1L21.9,260.1z M23,259.8l-0.5,0.1c-0.1-0.5-0.2-1-0.3-1.4l0.5-0.1
			C22.8,258.8,22.9,259.3,23,259.8L23,259.8z M26.7,255h-3.4v-0.4h1.5c-0.1-0.2-0.2-0.5-0.4-0.9l0.5-0.1c0.2,0.4,0.4,0.7,0.5,1h1.4
			L26.7,255L26.7,255z M26.4,256.2h-2.8v-0.4h2.8V256.2z M26.4,257.4h-2.8V257h2.8V257.4z M26.4,259.9h-2.8v-1.8h2.8V259.9z
			 M25.9,259.5v-1.1h-1.8v1.1H25.9z M27.7,258.6c-0.2,0.8-0.5,1.4-0.7,1.8l-0.5-0.2c0.3-0.6,0.6-1.2,0.7-1.7L27.7,258.6z M30.2,258
			l-0.5,0.2l-0.1-0.4c-0.9,0.2-1.8,0.3-2.8,0.4l-0.1-0.4c0.6-0.4,1.2-1,1.9-1.6c-0.5,0.1-1,0.1-1.6,0.2l-0.1-0.4
			c0.5-0.4,1.1-1.1,1.7-2.1l0.5,0.2c-0.5,0.8-1,1.4-1.5,1.8c0.6,0,1.1-0.1,1.5-0.1c0.2-0.2,0.4-0.5,0.6-0.7l0.5,0.2
			c-0.7,0.9-1.5,1.7-2.5,2.5c0.8-0.1,1.5-0.2,2-0.3c-0.1-0.2-0.2-0.5-0.3-0.6l0.5-0.2C29.8,256.9,30,257.4,30.2,258L30.2,258z
			 M29,260.1l-0.5,0.1c-0.1-0.6-0.2-1.2-0.3-1.5l0.5-0.1C28.7,258.9,28.9,259.4,29,260.1L29,260.1z M30.3,259.9l-0.5,0.1
			c-0.1-0.6-0.3-1-0.5-1.4l0.5-0.1C30,258.9,30.1,259.3,30.3,259.9L30.3,259.9z"/>
		<path class="st19" d="M34.4,260.2c-0.5,1.4-1.2,2.8-2.1,4.3l-0.4-0.3c0.9-1.4,1.6-2.8,2.1-4.3L34.4,260.2L34.4,260.2z M34.3,258.6
			L34,259c-0.8-0.7-1.5-1.3-2.1-1.6l0.3-0.4C32.8,257.4,33.5,257.9,34.3,258.6L34.3,258.6z M34.5,255.4l-0.3,0.4
			c-0.6-0.6-1.2-1.2-2-1.7l0.3-0.4C33.2,254.2,33.9,254.8,34.5,255.4L34.5,255.4z M36.3,260.9c0,1.5-0.6,2.7-1.9,3.6l-0.4-0.3
			c1.2-0.8,1.8-1.9,1.8-3.3v-1.5h0.5V260.9L36.3,260.9z M42.7,258.9l-0.4,0.3c-0.2-0.3-0.5-0.6-0.8-1c-2.1,0.3-4.2,0.5-6.4,0.6
			l-0.1-0.4c1.1-0.9,2-1.9,2.7-3h-2.8V255H38c0.2-0.4,0.4-0.8,0.6-1.3l0.5,0.2c-0.2,0.4-0.3,0.8-0.5,1.1h4.1v0.5h-4.4
			c-0.7,1.1-1.5,2.1-2.5,2.9c1.5-0.1,3.4-0.2,5.5-0.5c-0.5-0.5-0.9-1-1.4-1.3l0.3-0.3C41.2,257,42,257.9,42.7,258.9L42.7,258.9z
			 M38.5,264.5H38v-5.1h0.5V264.5z M42.8,264.5h-1.8c-0.5,0-0.7-0.2-0.7-0.7v-4.4h0.5v4.4c0,0.1,0.1,0.2,0.2,0.2h1.8V264.5
			L42.8,264.5z"/>
		<path class="st19" d="M55.2,261l-0.2,0.4l-0.8-0.3v3.4h-0.5v-0.7H51v0.7h-0.5v-3.6h3c-1.4-0.4-2.5-1.1-3.2-2h-1.1
			c-0.6,0.7-1.6,1.4-3,2H49v3.6h-0.5v-0.7h-2.6v0.7h-0.5v-3.3l-0.8,0.3l-0.2-0.5c2-0.6,3.4-1.3,4.2-2.2h-4.2v-0.4h4.5
			c0.3-0.4,0.5-0.9,0.7-1.4l0.5,0.1c-0.2,0.6-0.4,1-0.7,1.3h5.6v0.4h-4.2C51.6,259.6,53,260.3,55.2,261L55.2,261z M48.9,256.9h-3.5
			V254h3.5V256.9z M48.4,256.5v-2h-2.5v2H48.4z M48.5,263.3v-2.1h-2.6v2.1H48.5z M54.1,256.9h-3.5V254h3.5V256.9z M53.6,263.3v-2.1
			H51v2.1H53.6z M53.6,256.5v-2h-2.5v2H53.6z M53.4,257.9l-0.3,0.4c-0.5-0.2-1-0.4-1.6-0.6l0.2-0.4
			C52.4,257.4,52.9,257.6,53.4,257.9z"/>
	</g>
	<g>
		<path d="M30.4,264.1l-0.2,0.4c-2,0-3.8-0.3-5.2-0.8c-1.3,0.5-3,0.8-5.3,0.8l-0.1-0.4h0.2c1.6,0,3.1-0.2,4.6-0.6
			c-0.8-0.4-1.5-0.8-2.1-1.2l0.4-0.3c0.7,0.5,1.4,1,2.3,1.3c1-0.4,1.9-1.1,2.5-1.9h-5c-0.8,0.6-1.5,1-2.2,1.3l-0.3-0.4
			c1.4-0.6,2.5-1.3,3.3-2.2l0.4,0.2c-0.2,0.2-0.4,0.4-0.7,0.6h7v0.4h-2c-0.6,0.9-1.4,1.7-2.4,2.1C26.9,263.9,28.5,264.1,30.4,264.1
			L30.4,264.1z M20.7,258.6c-0.3,0.9-0.5,1.5-0.7,1.8l-0.4-0.2c0.2-0.4,0.5-1,0.7-1.8L20.7,258.6L20.7,258.6z M23.2,258l-0.5,0.2
			l-0.1-0.5c-0.9,0.2-1.8,0.3-2.7,0.4l-0.1-0.4c0.6-0.4,1.2-1,1.8-1.6c-0.5,0.1-1,0.1-1.6,0.2l-0.1-0.4c0.5-0.4,1.1-1.1,1.7-2.1
			l0.5,0.2c-0.5,0.8-1,1.4-1.5,1.8c0.6,0,1.1-0.1,1.5-0.1l0.5-0.7l0.5,0.2c-0.8,1-1.5,1.9-2.4,2.5c0.6-0.1,1.3-0.2,1.9-0.3
			c-0.1-0.2-0.2-0.5-0.3-0.6l0.5-0.2C22.9,256.9,23.1,257.4,23.2,258L23.2,258z M21.9,260.1l-0.5,0.1c-0.1-0.6-0.2-1.2-0.3-1.5
			l0.5-0.1C21.7,258.9,21.8,259.4,21.9,260.1L21.9,260.1z M23,259.8l-0.5,0.1c-0.1-0.5-0.2-1-0.3-1.4l0.5-0.1
			C22.8,258.8,22.9,259.3,23,259.8L23,259.8z M26.7,255h-3.4v-0.4h1.5c-0.1-0.2-0.2-0.5-0.4-0.9l0.5-0.1c0.2,0.4,0.4,0.7,0.5,1h1.4
			L26.7,255L26.7,255z M26.4,256.2h-2.8v-0.4h2.8V256.2z M26.4,257.4h-2.8V257h2.8V257.4z M26.4,259.9h-2.8v-1.8h2.8V259.9z
			 M25.9,259.5v-1.1h-1.8v1.1H25.9z M27.7,258.6c-0.2,0.8-0.5,1.4-0.7,1.8l-0.5-0.2c0.3-0.6,0.6-1.2,0.7-1.7L27.7,258.6z M30.2,258
			l-0.5,0.2l-0.1-0.4c-0.9,0.2-1.8,0.3-2.8,0.4l-0.1-0.4c0.6-0.4,1.2-1,1.9-1.6c-0.5,0.1-1,0.1-1.6,0.2l-0.1-0.4
			c0.5-0.4,1.1-1.1,1.7-2.1l0.5,0.2c-0.5,0.8-1,1.4-1.5,1.8c0.6,0,1.1-0.1,1.5-0.1c0.2-0.2,0.4-0.5,0.6-0.7l0.5,0.2
			c-0.7,0.9-1.5,1.7-2.5,2.5c0.8-0.1,1.5-0.2,2-0.3c-0.1-0.2-0.2-0.5-0.3-0.6l0.5-0.2C29.8,256.9,30,257.4,30.2,258L30.2,258z
			 M29,260.1l-0.5,0.1c-0.1-0.6-0.2-1.2-0.3-1.5l0.5-0.1C28.7,258.9,28.9,259.4,29,260.1L29,260.1z M30.3,259.9l-0.5,0.1
			c-0.1-0.6-0.3-1-0.5-1.4l0.5-0.1C30,258.9,30.1,259.3,30.3,259.9L30.3,259.9z"/>
		<path d="M34.4,260.2c-0.5,1.4-1.2,2.8-2.1,4.3l-0.4-0.3c0.9-1.4,1.6-2.8,2.1-4.3L34.4,260.2L34.4,260.2z M34.3,258.6L34,259
			c-0.8-0.7-1.5-1.3-2.1-1.6l0.3-0.4C32.8,257.4,33.5,257.9,34.3,258.6L34.3,258.6z M34.5,255.4l-0.3,0.4c-0.6-0.6-1.2-1.2-2-1.7
			l0.3-0.4C33.2,254.2,33.9,254.8,34.5,255.4L34.5,255.4z M36.3,260.9c0,1.5-0.6,2.7-1.9,3.6l-0.4-0.3c1.2-0.8,1.8-1.9,1.8-3.3v-1.5
			h0.5V260.9L36.3,260.9z M42.7,258.9l-0.4,0.3c-0.2-0.3-0.5-0.6-0.8-1c-2.1,0.3-4.2,0.5-6.4,0.6l-0.1-0.4c1.1-0.9,2-1.9,2.7-3h-2.8
			V255H38c0.2-0.4,0.4-0.8,0.6-1.3l0.5,0.2c-0.2,0.4-0.3,0.8-0.5,1.1h4.1v0.5h-4.4c-0.7,1.1-1.5,2.1-2.5,2.9
			c1.5-0.1,3.4-0.2,5.5-0.5c-0.5-0.5-0.9-1-1.4-1.3l0.3-0.3C41.2,257,42,257.9,42.7,258.9L42.7,258.9z M38.5,264.5H38v-5.1h0.5
			V264.5z M42.8,264.5h-1.8c-0.5,0-0.7-0.2-0.7-0.7v-4.4h0.5v4.4c0,0.1,0.1,0.2,0.2,0.2h1.8V264.5L42.8,264.5z"/>
		<path d="M55.2,261l-0.2,0.4l-0.8-0.3v3.4h-0.5v-0.7H51v0.7h-0.5v-3.6h3c-1.4-0.4-2.5-1.1-3.2-2h-1.1c-0.6,0.7-1.6,1.4-3,2H49v3.6
			h-0.5v-0.7h-2.6v0.7h-0.5v-3.3l-0.8,0.3l-0.2-0.5c2-0.6,3.4-1.3,4.2-2.2h-4.2v-0.4h4.5c0.3-0.4,0.5-0.9,0.7-1.4l0.5,0.1
			c-0.2,0.6-0.4,1-0.7,1.3h5.6v0.4h-4.2C51.6,259.6,53,260.3,55.2,261L55.2,261z M48.9,256.9h-3.5V254h3.5V256.9z M48.4,256.5v-2
			h-2.5v2H48.4z M48.5,263.3v-2.1h-2.6v2.1H48.5z M54.1,256.9h-3.5V254h3.5V256.9z M53.6,263.3v-2.1H51v2.1H53.6z M53.6,256.5v-2
			h-2.5v2H53.6z M53.4,257.9l-0.3,0.4c-0.5-0.2-1-0.4-1.6-0.6l0.2-0.4C52.4,257.4,52.9,257.6,53.4,257.9z"/>
	</g>
</g>
<g id="_圖層_2-5">
	<g id="_圖層_1-2-5">
		<polygon class="st20" points="32.9,106.1 32.9,94.8 36.4,96.7 39.8,94.8 39.8,106.1 		"/>
		<polygon class="st21" points="43.7,106.1 36.4,115.5 29.1,106.1 		"/>
	</g>
</g>
<g id="_圖層_2-6">
	<g id="_圖層_1-2-6">
		<polygon class="st20" points="33.9,326.3 33.9,314.9 37.4,316.8 40.8,314.9 40.8,326.3 		"/>
		<polygon class="st21" points="44.7,326.3 37.4,335.7 30.1,326.3 		"/>
	</g>
</g>
<g id="_圖層_2-7">
	<g id="_圖層_1-2-7">
		<polygon class="st20" points="33.9,231.9 33.9,220.6 37.4,222.5 40.8,220.6 40.8,231.9 		"/>
		<polygon class="st21" points="44.7,231.9 37.4,241.3 30.1,231.9 		"/>
	</g>
</g>
</svg>
