<?xml version="1.0" encoding="UTF-8"?>
<svg id="_圖層_1" data-name="圖層 1" xmlns="http://www.w3.org/2000/svg" xmlns:xlink="http://www.w3.org/1999/xlink" viewBox="0 0 367.89 86.77">
  <defs>
    <style>
      .cls-1 {
        stroke: #f4c43a;
      }

      .cls-1, .cls-2, .cls-3, .cls-4, .cls-5, .cls-6 {
        stroke-linecap: round;
        stroke-linejoin: round;
      }

      .cls-1, .cls-7, .cls-4 {
        stroke-width: 4px;
      }

      .cls-1, .cls-8, .cls-6 {
        fill: none;
      }

      .cls-9 {
        fill: #cbcbcb;
      }

      .cls-10, .cls-4 {
        fill: #e8eae1;
      }

      .cls-11 {
        fill: #989898;
      }

      .cls-12 {
        fill: #9ed0f0;
      }

      .cls-2, .cls-3 {
        fill: #fc3;
        stroke: #fc3;
      }

      .cls-2, .cls-6 {
        stroke-width: 3px;
      }

      .cls-13 {
        fill: #4a9dd7;
      }

      .cls-14 {
        fill: #4d4d4d;
      }

      .cls-3 {
        stroke-width: 2.89px;
      }

      .cls-15 {
        fill: #bcdcf3;
      }

      .cls-7 {
        stroke: #040000;
        stroke-miterlimit: 10;
      }

      .cls-7, .cls-16 {
        fill: #231815;
      }

      .cls-17 {
        clip-path: url(#clippath);
      }

      .cls-18 {
        fill: #f4c43a;
      }

      .cls-4 {
        stroke: #4d4d4d;
      }

      .cls-19 {
        fill: #da3b37;
      }

      .cls-20 {
        fill: #dc2525;
      }

      .cls-5 {
        fill: #325ca1;
        stroke: #cbcbcb;
        stroke-width: 2px;
      }

      .cls-6 {
        stroke: #f0aa3f;
      }
    </style>
    <clipPath id="clippath">
      <rect class="cls-8" x="225" y="34.26" width="45.32" height="45.32" rx="2.41" ry="2.41"/>
    </clipPath>
  </defs>
  <g>
    <path d="M327.96,13.24l-.24,.43c-2.16-.55-3.82-1.3-4.99-2.27-1.18,.94-2.82,1.7-4.91,2.27l-.28-.43c2-.48,3.61-1.2,4.83-2.15-.82-.75-1.52-1.72-2.09-2.9l.45-.21c.51,1.14,1.18,2.07,2.02,2.81,.86-.75,1.58-1.68,2.17-2.81l.47,.22c-.67,1.17-1.43,2.13-2.28,2.89,1.08,.88,2.7,1.59,4.86,2.15Zm-.12-8.16h-10.18v-.45h5.12c-.21-.55-.41-.99-.62-1.33l.47-.15c.22,.36,.45,.85,.68,1.48h4.53v.45Zm-6.38,.95c-.77,1.01-1.92,2.09-3.45,3.24l-.32-.39c1.44-1.05,2.56-2.1,3.36-3.14l.41,.29Zm6.31,2.92l-.37,.32c-1.03-1.22-2.14-2.28-3.32-3.19l.35-.35c1.24,.96,2.36,2.04,3.35,3.22Z"/>
    <path d="M331.86,9.52c-.46,1.32-1.13,2.72-2.02,4.18l-.41-.29c.85-1.34,1.52-2.74,2.02-4.2l.41,.31Zm-.05-1.56l-.31,.38c-.75-.7-1.43-1.23-2.03-1.59l.3-.36c.57,.36,1.25,.88,2.04,1.58Zm.17-3.11l-.32,.36c-.56-.61-1.19-1.16-1.89-1.66l.26-.36c.68,.48,1.33,1.03,1.95,1.65Zm1.75,5.27c0,1.46-.62,2.63-1.85,3.52l-.4-.32c1.18-.75,1.76-1.81,1.76-3.19v-1.44h.48v1.44Zm6.21-1.93l-.39,.29c-.2-.3-.44-.62-.73-.96-2,.27-4.08,.45-6.22,.56l-.12-.37c1.09-.86,1.96-1.82,2.6-2.87h-2.72v-.45h2.97c.21-.38,.4-.81,.57-1.29l.45,.18c-.15,.43-.31,.8-.48,1.11h3.98v.45h-4.24c-.62,1.07-1.44,2-2.44,2.79,1.49-.06,3.26-.22,5.31-.49-.46-.5-.9-.92-1.32-1.26l.32-.28c.91,.77,1.73,1.63,2.45,2.58Zm-4.07,5.44h-.48v-4.96h.48v4.96Zm4.1-.01h-1.79c-.44,0-.66-.22-.66-.66v-4.29h.48v4.28c0,.15,.07,.22,.21,.22h1.76v.45Z"/>
    <path d="M351.67,7.51h-.48v-2.14h-4.2v2.46h-.48v-2.46h-4.2v2.14h-.47v-2.55h4.68v-1.03h-4.32v-.42h9.12v.42h-4.32v1.03h4.68v2.55Zm.37,4.57c-.04,.5-.14,.86-.32,1.08s-.46,.35-.86,.38-1,.05-1.8,.05c-1.2,0-1.93-.05-2.18-.14s-.38-.35-.38-.77v-.9h-3.84v-3.42h8.16v3.42h-3.84v1.01c0,.13,.04,.22,.11,.26s.29,.07,.67,.09,.85,.03,1.42,.03c1.05,0,1.71-.03,1.96-.08s.41-.46,.46-1.22l.44,.21Zm-6.22-4.67c-1.04,.23-1.97,.4-2.78,.49l-.13-.4c.93-.09,1.84-.25,2.75-.47l.16,.38Zm-.01-1.14l-.16,.39c-.8-.19-1.68-.33-2.65-.4l.21-.39c.92,.08,1.79,.21,2.61,.4Zm.7,3.57v-1.07h-3.36v1.07h3.36Zm0,1.51v-1.09h-3.36v1.09h3.36Zm3.84-1.51v-1.07h-3.36v1.07h3.36Zm0,1.51v-1.09h-3.36v1.09h3.36Zm.29-3.83l-.23,.39c-.97-.24-1.93-.41-2.88-.49l.22-.37c1.06,.1,2.03,.25,2.89,.47Zm-.09-1.24c-1.1,.21-2.02,.35-2.77,.4l-.14-.4c.77-.06,1.69-.19,2.77-.4l.14,.4Z"/>
    <path d="M359.77,13.06l-1.04-2.81h-3.93l-1.03,2.81h-.71l3.43-9.08h.62l3.39,9.08h-.73Zm-2.98-8.26h-.03c-.07,.27-.14,.5-.21,.67l-1.52,4.19h3.48l-1.53-4.18-.2-.68Z"/>
    <path d="M367.89,12.76c-.72,.31-1.49,.46-2.3,.46s-1.56-.19-2.2-.57-1.14-.91-1.49-1.6-.53-1.47-.53-2.34c0-.93,.19-1.76,.57-2.51s.91-1.33,1.6-1.74,1.47-.62,2.34-.62c.7,0,1.37,.11,2,.34v.69c-.64-.29-1.32-.43-2.02-.43-.76,0-1.43,.18-2.02,.53s-1.03,.85-1.34,1.49-.47,1.37-.47,2.19,.15,1.48,.45,2.08,.72,1.08,1.27,1.4,1.17,.49,1.88,.49c.84,0,1.59-.16,2.25-.49v.63Z"/>
  </g>
  <line class="cls-7" x1="14.77" y1="57.76" x2="347.63" y2="54.85"/>
  <g id="_圖層_2" data-name="圖層 2">
    <g id="_圖層_1-2" data-name="圖層 1-2">
      <rect class="cls-15" x="225" y="34.26" width="45.32" height="45.32" rx="2.41" ry="2.41"/>
      <g class="cls-17">
        <g>
          <polygon class="cls-12" points="270.32 79.58 225 34.26 270.32 34.26 270.32 79.58"/>
          <rect class="cls-18" x="255.59" y="39.77" width="10.57" height="2.83" rx=".48" ry=".48"/>
          <rect class="cls-20" x="255.59" y="44.5" width="4.36" height="2.83" rx=".48" ry=".48"/>
          <rect class="cls-13" x="261.8" y="44.5" width="4.36" height="2.83" rx=".48" ry=".48"/>
          <path class="cls-1" d="M229.43,72.11s4.01-8.6,9.12-2.32c5.17,6.35,9.12-2.29,9.12-2.29"/>
        </g>
      </g>
    </g>
  </g>
  <g id="_圖層_2-2" data-name="圖層 2">
    <g id="_圖層_1-2-2" data-name="圖層 1-2">
      <ellipse class="cls-18" cx="36.5" cy="17.84" rx="10.25" ry="10"/>
      <line class="cls-6" x1="36.5" y1="4.65" x2="36.5" y2="1.5"/>
      <line class="cls-6" x1="26.93" y1="8.52" x2="24.65" y2="6.29"/>
      <line class="cls-6" x1="22.97" y1="17.84" x2="19.74" y2="17.84"/>
      <line class="cls-6" x1="26.93" y1="27.17" x2="24.65" y2="29.4"/>
      <line class="cls-6" x1="36.5" y1="31.04" x2="36.5" y2="34.19"/>
      <line class="cls-6" x1="46.07" y1="27.17" x2="48.35" y2="29.4"/>
      <line class="cls-6" x1="50.03" y1="17.84" x2="53.26" y2="17.84"/>
      <line class="cls-6" x1="46.07" y1="8.52" x2="48.35" y2="6.29"/>
      <rect class="cls-14" x="33.03" y="73.94" width="6.95" height="9.02"/>
      <path class="cls-9" d="M47,83.06v3.24c0,.26-.21,.46-.48,.46H26.49c-.26,0-.48-.21-.48-.46v-3.24c0-.26,.21-.46,.48-.46h20.03c.26,0,.48,.21,.48,.46Z"/>
      <polygon class="cls-5" points="6.35 39 26.45 39 25.92 49.6 4.76 49.6 6.35 39"/>
      <polygon class="cls-5" points="26.45 39 46.55 39 47.08 49.6 25.92 49.6 26.45 39"/>
      <polygon class="cls-5" points="46.55 39 66.65 39 68.24 49.6 47.08 49.6 46.55 39"/>
      <polygon class="cls-5" points="4.76 49.6 25.92 49.6 25.33 61.39 2.98 61.39 4.76 49.6"/>
      <polygon class="cls-5" points="25.92 49.6 47.08 49.6 47.67 61.39 25.33 61.39 25.92 49.6"/>
      <polygon class="cls-5" points="47.08 49.6 68.24 49.6 70.02 61.39 47.67 61.39 47.08 49.6"/>
      <polygon class="cls-5" points="2.98 61.39 25.33 61.39 24.66 74.57 1 74.57 2.98 61.39"/>
      <polygon class="cls-5" points="25.33 61.39 47.67 61.39 48.34 74.57 24.66 74.57 25.33 61.39"/>
      <polygon class="cls-5" points="47.67 61.39 70.02 61.39 72 74.57 48.34 74.57 47.67 61.39"/>
    </g>
  </g>
  <g>
    <g id="_圖層_2-3" data-name="圖層 2">
      <g id="_圖層_1-2-3" data-name="圖層 1-2">
        <rect class="cls-10" x="140.18" y="68.82" width="25.4" height="15.95" rx=".98" ry=".98"/>
        <rect class="cls-14" x="142.85" y="71.02" width="19.93" height="9.39" rx=".91" ry=".91"/>
        <rect class="cls-14" x="132.11" y="53.63" width="4.09" height="3.34" rx=".44" ry=".44"/>
        <rect class="cls-14" x="169.42" y="53.63" width="4.09" height="3.34" rx=".44" ry=".44"/>
        <rect class="cls-4" x="136.2" y="37.8" width="33.22" height="33.22" rx="1.95" ry="1.95"/>
        <rect class="cls-11" x="141.19" y="45.96" width="23.25" height="5.28" rx=".84" ry=".84"/>
        <path class="cls-19" d="M161.11,45.96h2.48c.46,0,.84,.37,.84,.84v3.61c0,.46-.37,.84-.84,.84h-2.48v-5.28h0Z"/>
        <rect class="cls-14" x="144.51" y="45.96" width="3.32" height="5.28"/>
        <rect class="cls-14" x="151.15" y="45.96" width="3.32" height="5.28"/>
        <rect class="cls-14" x="157.79" y="45.96" width="3.32" height="5.28"/>
        <circle class="cls-11" cx="144.01" cy="60.48" r="1.41"/>
        <circle class="cls-19" cx="149.88" cy="60.48" r="1.41"/>
        <circle class="cls-19" cx="155.74" cy="60.48" r="1.41"/>
        <circle class="cls-11" cx="161.61" cy="60.48" r="1.41"/>
        <rect class="cls-10" x="145.87" y="73.61" width="1.48" height="4.72" rx=".69" ry=".69"/>
        <rect class="cls-10" x="150.05" y="73.61" width="1.48" height="4.72" rx=".69" ry=".69"/>
        <rect class="cls-10" x="154.24" y="73.61" width="1.48" height="4.72" rx=".69" ry=".69"/>
        <rect class="cls-10" x="158.42" y="73.61" width="1.48" height="4.72" rx=".69" ry=".69"/>
      </g>
    </g>
    <g>
      <path class="cls-16" d="M149.71,26.44h-.56v-1.88h-3.85v2.18h-.55v-2.18h-3.59v1.88h-.58v-2.4h4.17v-.81h-3.77v-.52h8.37v.52h-4.05v.81h4.41v2.4Zm.33,4.32c-.05,.45-.16,.77-.34,.96-.18,.19-.49,.3-.94,.32-.45,.03-.96,.04-1.52,.04-.49,0-.95-.01-1.38-.03s-.73-.1-.88-.25-.22-.37-.22-.68v-.81h-3.51v-3.15h7.61v3.15h-3.52v.85c0,.09,.03,.16,.1,.21s.3,.08,.7,.11c.4,.03,.85,.04,1.35,.04,.86,0,1.36-.02,1.51-.06,.15-.04,.26-.15,.33-.33,.07-.18,.11-.4,.13-.67l.59,.3Zm-5.75-4.37c-.88,.23-1.71,.37-2.48,.41l-.18-.5c.82-.04,1.64-.15,2.48-.34l.18,.43Zm0-1.12l-.18,.47c-.61-.15-1.41-.27-2.4-.34l.24-.47c.92,.08,1.7,.19,2.34,.34Zm.47,3.2v-.79h-2.94v.79h2.94Zm0,1.32v-.82h-2.94v.82h2.94Zm3.52-1.32v-.79h-2.94v.79h2.94Zm0,1.32v-.82h-2.94v.82h2.94Zm.33-3.38l-.25,.46c-.77-.2-1.63-.35-2.59-.43l.24-.44c1.13,.1,2,.23,2.61,.41Zm-.08-.99c-.91,.16-1.75,.27-2.51,.32l-.17-.45c.76-.06,1.58-.17,2.48-.34l.2,.47Z"/>
      <path class="cls-16" d="M155.29,24.49l-.42,.38c-.35-.48-.82-.97-1.41-1.49-.34,.58-.76,1.16-1.26,1.75h2.58v.53h-1.17v1.24h1.31v.55h-1.31v3.44c.36-.06,.82-.17,1.4-.35l.05,.54c-1.17,.34-2.38,.62-3.61,.85l-.12-.54,1.75-.34v-3.6h-1.55v-.55h1.55v-1.24h-.94v-.46l-.52,.53-.35-.45c.89-.88,1.59-1.83,2.08-2.86l.5,.23c-.03,.08-.07,.17-.14,.27,.59,.47,1.11,1,1.58,1.57Zm-2.69,5.91l-.53,.09c-.09-.64-.25-1.38-.48-2.22l.52-.13c.27,.93,.43,1.69,.49,2.27Zm2.44-2.16c-.13,.72-.3,1.37-.5,1.96l-.49-.21c.22-.65,.38-1.29,.48-1.92l.52,.18Zm5.88-.96h-3.13c-.22,.52-.54,1.04-.96,1.55v2.51c.55-.17,1.11-.39,1.68-.65l.09,.57c-.96,.39-1.73,.68-2.31,.86l-.22-.53c.12-.08,.19-.2,.19-.37v-1.77c-.39,.36-.67,.61-.86,.74l-.37-.43c1.02-.74,1.74-1.57,2.16-2.48h-1.8v-.54h2.36v-1.19h-2v-.53h2v-1.15h-2.22v-.53h2.22v-.86h.55v.86h2.49v.53h-2.49v1.15h2.2v.53h-2.2v1.19h2.62v.54Zm.11,4.37l-.38,.48c-1.53-1.01-2.38-2.35-2.57-4.01l.55-.15c.03,.44,.15,.9,.34,1.38,.63-.46,1.1-.9,1.42-1.32l.38,.35c-.34,.52-.86,1-1.57,1.46,.37,.65,.98,1.25,1.83,1.81Z"/>
      <path class="cls-16" d="M167.29,31.53h-4.67v-.8h1.89v-6.54l-1.94,.59v-.86l2.84-.89v7.71h1.88v.8Z"/>
    </g>
  </g>
  <g>
    <g id="_圖層_2-4" data-name="圖層 2">
      <g id="_圖層_1-2-4" data-name="圖層 1-2">
        <rect class="cls-10" x="330.09" y="69.42" width="25.4" height="15.95" rx=".98" ry=".98"/>
        <rect class="cls-14" x="332.75" y="71.62" width="19.93" height="9.39" rx=".91" ry=".91"/>
        <rect class="cls-14" x="322.01" y="54.23" width="4.09" height="3.34" rx=".44" ry=".44"/>
        <rect class="cls-14" x="359.33" y="54.23" width="4.09" height="3.34" rx=".44" ry=".44"/>
        <rect class="cls-4" x="326.11" y="38.4" width="33.22" height="33.22" rx="1.95" ry="1.95"/>
        <rect class="cls-11" x="331.09" y="46.56" width="23.25" height="5.28" rx=".84" ry=".84"/>
        <path class="cls-19" d="M351.02,46.56h2.48c.46,0,.84,.37,.84,.84v3.61c0,.46-.37,.84-.84,.84h-2.48v-5.28h0Z"/>
        <rect class="cls-14" x="334.42" y="46.56" width="3.32" height="5.28"/>
        <rect class="cls-14" x="341.06" y="46.56" width="3.32" height="5.28"/>
        <rect class="cls-14" x="347.7" y="46.56" width="3.32" height="5.28"/>
        <circle class="cls-11" cx="333.92" cy="61.08" r="1.41"/>
        <circle class="cls-19" cx="339.79" cy="61.08" r="1.41"/>
        <circle class="cls-19" cx="345.65" cy="61.08" r="1.41"/>
        <circle class="cls-11" cx="351.51" cy="61.08" r="1.41"/>
        <rect class="cls-10" x="335.78" y="74.21" width="1.48" height="4.72" rx=".69" ry=".69"/>
        <rect class="cls-10" x="339.96" y="74.21" width="1.48" height="4.72" rx=".69" ry=".69"/>
        <rect class="cls-10" x="344.15" y="74.21" width="1.48" height="4.72" rx=".69" ry=".69"/>
        <rect class="cls-10" x="348.33" y="74.21" width="1.48" height="4.72" rx=".69" ry=".69"/>
      </g>
    </g>
    <g>
      <path class="cls-16" d="M338.03,26.49h-.56v-1.88h-3.85v2.17h-.55v-2.17h-3.59v1.88h-.58v-2.4h4.17v-.81h-3.77v-.52h8.37v.52h-4.05v.81h4.41v2.4Zm.33,4.32c-.05,.45-.16,.77-.34,.96-.18,.19-.49,.3-.94,.33-.45,.03-.96,.04-1.52,.04-.49,0-.95,0-1.38-.03s-.73-.1-.88-.25c-.15-.14-.22-.37-.22-.68v-.81h-3.51v-3.15h7.61v3.15h-3.52v.85c0,.09,.03,.16,.1,.21,.06,.05,.3,.08,.7,.11,.4,.03,.85,.04,1.35,.04,.86,0,1.36-.02,1.51-.06s.26-.15,.33-.33c.07-.18,.11-.4,.13-.67l.59,.3Zm-5.75-4.37c-.88,.23-1.71,.37-2.48,.41l-.18-.51c.82-.04,1.64-.15,2.48-.34l.18,.43Zm0-1.12l-.18,.47c-.61-.15-1.41-.26-2.4-.34l.24-.47c.92,.08,1.7,.19,2.34,.34Zm.47,3.2v-.79h-2.94v.79h2.94Zm0,1.32v-.82h-2.94v.82h2.94Zm3.52-1.32v-.79h-2.94v.79h2.94Zm0,1.32v-.82h-2.94v.82h2.94Zm.33-3.38l-.25,.46c-.77-.2-1.63-.35-2.59-.43l.24-.44c1.13,.1,2,.23,2.61,.41Zm-.08-.99c-.91,.16-1.75,.27-2.51,.32l-.17-.45c.76-.06,1.58-.17,2.48-.34l.2,.47Z"/>
      <path class="cls-16" d="M343.62,24.54l-.42,.38c-.35-.48-.82-.97-1.41-1.49-.34,.58-.76,1.16-1.26,1.75h2.58v.53h-1.17v1.24h1.31v.55h-1.31v3.44c.36-.06,.82-.17,1.4-.35l.05,.54c-1.17,.34-2.38,.62-3.61,.85l-.12-.54,1.75-.34v-3.6h-1.55v-.55h1.55v-1.24h-.94v-.46l-.52,.53-.35-.45c.89-.88,1.59-1.83,2.08-2.86l.5,.23c-.03,.08-.07,.17-.14,.27,.59,.47,1.11,1,1.58,1.57Zm-2.69,5.91l-.53,.09c-.09-.64-.25-1.38-.48-2.22l.52-.13c.27,.94,.43,1.69,.49,2.27Zm2.44-2.17c-.13,.72-.3,1.37-.5,1.96l-.49-.21c.22-.65,.38-1.29,.48-1.92l.52,.18Zm5.88-.96h-3.13c-.22,.52-.54,1.04-.96,1.55v2.51c.55-.17,1.11-.39,1.68-.65l.09,.58c-.96,.39-1.73,.68-2.31,.86l-.22-.53c.12-.08,.19-.2,.19-.37v-1.77c-.39,.36-.67,.61-.86,.74l-.37-.43c1.02-.74,1.74-1.57,2.16-2.48h-1.8v-.54h2.36v-1.19h-2v-.53h2v-1.15h-2.22v-.53h2.22v-.86h.55v.86h2.49v.53h-2.49v1.15h2.2v.53h-2.2v1.19h2.62v.54Zm.11,4.37l-.38,.48c-1.53-1.01-2.38-2.35-2.57-4.01l.55-.14c.03,.44,.15,.9,.34,1.38,.63-.46,1.1-.9,1.42-1.32l.38,.35c-.34,.52-.86,1-1.57,1.46,.37,.65,.98,1.26,1.83,1.81Z"/>
      <path class="cls-16" d="M355.45,31.58h-4.98v-.81l2.42-2.44c.8-.81,1.29-1.4,1.48-1.76s.28-.75,.28-1.16c0-.49-.14-.87-.42-1.13-.28-.27-.68-.4-1.19-.4-.74,0-1.45,.32-2.14,.96v-.96c.64-.51,1.39-.77,2.26-.77,.72,0,1.29,.2,1.72,.6s.65,.94,.65,1.62c0,.52-.14,1.04-.43,1.54-.29,.51-.82,1.16-1.61,1.95l-1.94,1.92v.02h3.91v.82Z"/>
    </g>
  </g>
  <g id="_圖層_2-5" data-name="圖層 2">
    <g id="_圖層_1-2-5" data-name="圖層 1-2">
      <polygon class="cls-3" points="107.52 59.25 96.15 59.25 98.07 55.81 96.15 52.37 107.52 52.37 107.52 59.25"/>
      <polygon class="cls-2" points="107.52 48.51 116.91 55.81 107.52 63.11 107.52 48.51"/>
    </g>
  </g>
  <g id="_圖層_2-6" data-name="圖層 2">
    <g id="_圖層_1-2-6" data-name="圖層 1-2">
      <polygon class="cls-3" points="297.68 59.25 286.31 59.25 288.24 55.81 286.31 52.37 297.68 52.37 297.68 59.25"/>
      <polygon class="cls-2" points="297.68 48.51 307.07 55.81 297.68 63.11 297.68 48.51"/>
    </g>
  </g>
  <g id="_圖層_2-7" data-name="圖層 2">
    <g id="_圖層_1-2-7" data-name="圖層 1-2">
      <polygon class="cls-3" points="199.31 59.25 187.94 59.25 189.87 55.81 187.94 52.37 199.31 52.37 199.31 59.25"/>
      <polygon class="cls-2" points="199.31 48.51 208.7 55.81 199.31 63.11 199.31 48.51"/>
    </g>
  </g>
  <g>
    <path d="M240.72,30.37l-.16,.44c-2.03,0-3.78-.26-5.23-.79-1.28,.49-3.05,.76-5.31,.8l-.15-.44h.22c1.58,0,3.11-.2,4.61-.61-.78-.35-1.47-.76-2.07-1.25l.36-.28c.66,.54,1.43,.97,2.32,1.31,1.03-.43,1.85-1.07,2.46-1.93h-5.02c-.75,.56-1.5,.99-2.25,1.31l-.3-.38c1.35-.58,2.45-1.33,3.31-2.24l.44,.25c-.2,.23-.42,.44-.66,.64h7.05v.42h-2c-.63,.94-1.43,1.66-2.4,2.14,1.26,.41,2.86,.61,4.79,.61Zm-9.67-5.44c-.27,.86-.52,1.47-.73,1.83l-.42-.22c.25-.43,.48-1.02,.7-1.76l.46,.15Zm2.5-.67l-.45,.18-.15-.45c-.92,.2-1.81,.33-2.69,.41l-.14-.43c.64-.45,1.24-1,1.81-1.64-.47,.07-1.02,.14-1.65,.2l-.14-.44c.52-.39,1.08-1.09,1.69-2.1l.46,.2c-.48,.77-.98,1.38-1.51,1.83,.59-.04,1.09-.09,1.51-.15l.54-.71,.45,.24c-.76,1.04-1.55,1.88-2.39,2.49,.65-.07,1.29-.17,1.91-.28-.11-.25-.22-.47-.34-.64l.45-.18c.25,.38,.46,.87,.63,1.46Zm-1.36,2.11l-.5,.08c-.07-.64-.18-1.16-.32-1.55l.48-.1c.13,.4,.24,.92,.33,1.56Zm1.11-.3l-.48,.08c-.06-.52-.17-.99-.33-1.41l.47-.1c.16,.46,.27,.94,.33,1.43Zm3.67-4.72h-3.42v-.4h1.55c-.07-.23-.2-.51-.41-.85l.45-.13c.23,.37,.38,.69,.47,.98h1.37v.4Zm-.31,1.16h-2.8v-.39h2.8v.39Zm0,1.16h-2.8v-.4h2.8v.4Zm0,2.5h-2.8v-1.77h2.8v1.77Zm-.49-.34v-1.08h-1.81v1.08h1.81Zm1.87-.89c-.23,.78-.46,1.37-.71,1.78l-.45-.22c.34-.58,.57-1.16,.7-1.71l.46,.15Zm2.45-.67l-.45,.18-.15-.45c-.89,.19-1.83,.32-2.81,.41l-.13-.43c.63-.44,1.24-.99,1.86-1.64-.5,.08-1.03,.15-1.57,.2l-.14-.44c.52-.39,1.08-1.09,1.69-2.1l.45,.2c-.48,.77-.98,1.38-1.51,1.83,.57-.04,1.07-.09,1.49-.15,.2-.24,.39-.47,.56-.71l.45,.24c-.66,.91-1.5,1.74-2.51,2.49,.79-.08,1.47-.18,2.03-.28-.1-.25-.22-.47-.33-.64l.45-.18c.25,.38,.46,.87,.63,1.46Zm-1.23,2.11l-.48,.08c-.07-.64-.18-1.16-.33-1.55l.47-.1c.13,.4,.25,.92,.34,1.56Zm1.3-.2l-.46,.13c-.13-.57-.29-1.05-.48-1.43l.45-.15c.2,.44,.37,.92,.5,1.45Z"/>
    <path d="M244.7,26.55c-.48,1.37-1.17,2.81-2.08,4.31l-.42-.3c.88-1.38,1.57-2.83,2.08-4.33l.42,.32Zm-.05-1.61l-.32,.39c-.78-.73-1.48-1.27-2.09-1.65l.31-.38c.59,.37,1.29,.91,2.11,1.63Zm.18-3.21l-.33,.38c-.58-.63-1.23-1.2-1.95-1.71l.27-.37c.71,.49,1.38,1.06,2.01,1.71Zm1.81,5.44c0,1.51-.64,2.72-1.91,3.63l-.41-.33c1.21-.77,1.82-1.87,1.82-3.3v-1.49h.5v1.49Zm6.41-1.99l-.4,.3c-.21-.31-.46-.64-.76-.99-2.07,.27-4.21,.47-6.42,.58l-.13-.38c1.13-.89,2.02-1.88,2.69-2.96h-2.81v-.46h3.07c.21-.39,.41-.83,.59-1.34l.46,.19c-.16,.44-.32,.83-.5,1.15h4.11v.46h-4.37c-.65,1.11-1.48,2.07-2.52,2.89,1.54-.06,3.37-.23,5.49-.51-.48-.51-.93-.95-1.36-1.3l.33-.28c.94,.8,1.79,1.69,2.53,2.67Zm-4.2,5.62h-.5v-5.12h.5v5.12Zm4.23-.01h-1.85c-.46,0-.68-.23-.68-.68v-4.43h.5v4.42c0,.15,.07,.23,.21,.23h1.82v.46Z"/>
    <path d="M265.46,27.29l-.25,.44-.83-.34v3.41h-.5v-.68h-2.59v.68h-.5v-3.64h3.04c-1.38-.44-2.46-1.11-3.25-2h-1.08c-.59,.72-1.61,1.39-3.05,2h2.84v3.64h-.5v-.68h-2.59v.68h-.5v-3.3l-.83,.3-.21-.46c2.02-.61,3.43-1.34,4.23-2.18h-4.19v-.44h4.53c.29-.38,.54-.86,.74-1.43l.48,.14c-.21,.58-.43,1.01-.65,1.29h5.61v.44h-4.21c.71,.76,2.13,1.47,4.23,2.14Zm-6.26-4.03h-3.51v-2.91h3.51v2.91Zm-.5-.45v-2h-2.52v2h2.52Zm.1,6.85v-2.07h-2.59v2.07h2.59Zm5.58-6.41h-3.51v-2.91h3.51v2.91Zm-.5,6.41v-2.07h-2.59v2.07h2.59Zm0-6.85v-2h-2.52v2h2.52Zm-.19,1.37l-.26,.36c-.47-.25-.99-.44-1.56-.57l.21-.39c.59,.13,1.13,.32,1.61,.6Z"/>
  </g>
  <g>
    <path d="M137.68,14.31h-10.44v-.43h1.95V7.22h2.45c.14-.27,.31-.69,.52-1.27h-4.71v-.43h4.88c.18-.57,.31-1.02,.38-1.34l.45,.13-.32,1.2h4.69v.43h-4.85l-.49,1.27h3.57v6.66h1.93v.43Zm-2.41-5.41v-1.25h-5.6v1.25h5.6Zm0,1.66v-1.22h-5.6v1.22h5.6Zm0,1.66v-1.22h-5.6v1.22h5.6Zm0,1.66v-1.24h-5.6v1.24h5.6Z"/>
    <path d="M141.59,10.52c-.46,1.32-1.13,2.72-2.02,4.18l-.41-.29c.85-1.34,1.52-2.74,2.02-4.2l.41,.31Zm-.05-1.56l-.31,.38c-.75-.7-1.43-1.23-2.03-1.59l.3-.36c.57,.36,1.25,.88,2.04,1.58Zm.17-3.11l-.32,.36c-.56-.61-1.19-1.16-1.89-1.66l.26-.36c.68,.48,1.33,1.03,1.95,1.65Zm1.75,5.27c0,1.46-.62,2.63-1.85,3.52l-.4-.32c1.18-.75,1.76-1.81,1.76-3.19v-1.44h.48v1.44Zm6.21-1.93l-.39,.29c-.2-.3-.44-.62-.73-.96-2,.27-4.08,.45-6.22,.56l-.12-.37c1.09-.86,1.96-1.82,2.6-2.87h-2.72v-.45h2.97c.21-.38,.4-.81,.57-1.29l.45,.18c-.15,.43-.31,.8-.48,1.11h3.98v.45h-4.24c-.62,1.07-1.44,2-2.44,2.79,1.49-.06,3.26-.22,5.31-.49-.46-.5-.9-.92-1.32-1.26l.32-.28c.91,.77,1.73,1.63,2.45,2.58Zm-4.07,5.44h-.48v-4.96h.48v4.96Zm4.1-.01h-1.79c-.44,0-.66-.22-.66-.66v-4.29h.48v4.28c0,.15,.07,.22,.21,.22h1.76v.45Z"/>
    <path d="M161.4,8.51h-.48v-2.14h-4.2v2.46h-.48v-2.46h-4.2v2.14h-.47v-2.55h4.68v-1.03h-4.32v-.42h9.12v.42h-4.32v1.03h4.68v2.55Zm.37,4.57c-.04,.5-.14,.86-.32,1.08s-.46,.35-.86,.38-1,.05-1.8,.05c-1.2,0-1.93-.05-2.18-.14s-.38-.35-.38-.77v-.9h-3.84v-3.42h8.16v3.42h-3.84v1.01c0,.13,.04,.22,.11,.26s.29,.07,.67,.09,.85,.03,1.42,.03c1.05,0,1.71-.03,1.96-.08s.41-.46,.46-1.22l.44,.21Zm-6.22-4.67c-1.04,.23-1.97,.4-2.78,.49l-.13-.4c.93-.09,1.84-.25,2.75-.47l.16,.38Zm-.01-1.14l-.16,.39c-.8-.19-1.68-.33-2.65-.4l.21-.39c.92,.08,1.79,.21,2.61,.4Zm.7,3.57v-1.07h-3.36v1.07h3.36Zm0,1.51v-1.09h-3.36v1.09h3.36Zm3.84-1.51v-1.07h-3.36v1.07h3.36Zm0,1.51v-1.09h-3.36v1.09h3.36Zm.29-3.83l-.23,.39c-.97-.24-1.93-.41-2.88-.49l.22-.37c1.06,.1,2.03,.25,2.89,.47Zm-.09-1.24c-1.1,.21-2.02,.35-2.77,.4l-.14-.4c.77-.06,1.69-.19,2.77-.4l.14,.4Z"/>
    <path d="M163.6,14.06V4.99h2.29c1.51,0,2.66,.38,3.44,1.12s1.18,1.85,1.18,3.29c0,.93-.19,1.74-.58,2.46s-.94,1.26-1.66,1.64-1.56,.57-2.53,.57h-2.15Zm.65-8.48v7.89h1.42c1.34,0,2.37-.35,3.09-1.05s1.08-1.7,1.08-3c0-2.56-1.35-3.84-4.04-3.84h-1.54Z"/>
    <path d="M178.39,13.76c-.72,.31-1.49,.46-2.3,.46s-1.56-.19-2.2-.57-1.14-.91-1.49-1.6-.53-1.47-.53-2.34c0-.93,.19-1.76,.57-2.51s.91-1.33,1.6-1.74,1.47-.62,2.34-.62c.7,0,1.37,.11,2,.34v.69c-.64-.29-1.32-.43-2.02-.43-.76,0-1.43,.18-2.02,.53s-1.03,.85-1.34,1.49-.47,1.37-.47,2.19,.15,1.48,.45,2.08,.72,1.08,1.27,1.4,1.17,.49,1.88,.49c.84,0,1.59-.16,2.25-.49v.63Z"/>
  </g>
</svg>