<svg xmlns="http://www.w3.org/2000/svg" viewBox="0 0 106.27 177.62"><defs><style>.cls-1{fill:none;stroke:#4d4d4d;stroke-miterlimit:10;stroke-width:3px;}.cls-2{fill:#ccc;}.cls-3{fill:#999;}.cls-4{fill:#4d4d4d;}</style></defs><g id="圖層_2" data-name="圖層 2"><g id="圖層_1-2" data-name="圖層 1"><line class="cls-1" x1="20.44" y1="31.13" x2="53.55" y2="65.97"/><line class="cls-1" x1="20.44" y1="66.41" x2="53.55" y2="101.25"/><line class="cls-1" x1="86.86" y1="30.04" x2="53.75" y2="64.89"/><line class="cls-1" x1="86.86" y1="65.32" x2="53.75" y2="100.17"/><path class="cls-2" d="M48.21,0h9.67a2,2,0,0,1,2,2V172.09a0,0,0,0,1,0,0H46.21a0,0,0,0,1,0,0V2a2,2,0,0,1,2-2Z"/><rect class="cls-3" y="23.18" width="106.27" height="10" rx="1.95"/><path class="cls-4" d="M12.24,14.18h.28a4.61,4.61,0,0,1,4.61,4.61v4.39a0,0,0,0,1,0,0H7.62a0,0,0,0,1,0,0V18.79a4.61,4.61,0,0,1,4.61-4.61Z"/><path class="cls-4" d="M93.76,14.18H94a4.61,4.61,0,0,1,4.61,4.61v4.39a0,0,0,0,1,0,0h-9.5a0,0,0,0,1,0,0V18.79A4.61,4.61,0,0,1,93.76,14.18Z"/><rect class="cls-3" x="5.88" y="60.41" width="95.9" height="10" rx="1.95"/><path class="cls-4" d="M17.42,51.41h.28A4.61,4.61,0,0,1,22.31,56v4.39a0,0,0,0,1,0,0h-9.5a0,0,0,0,1,0,0V56A4.61,4.61,0,0,1,17.42,51.41Z"/><path class="cls-4" d="M88.57,51.41h.28A4.61,4.61,0,0,1,93.46,56v4.39a0,0,0,0,1,0,0H84a0,0,0,0,1,0,0V56a4.61,4.61,0,0,1,4.61-4.61Z"/><rect class="cls-4" x="39.55" y="172" width="27.06" height="5.62" rx="1"/></g></g></svg>